G04 #@! TF.FileFunction,Copper,L1,Top,Signal*
%FSLAX46Y46*%
G04 Gerber Fmt 4.6, Leading zero omitted, Abs format (unit mm)*
G04 Created by KiCad (PCBNEW 4.0.2+dfsg1-stable) date Die 18 Okt 2016 18:09:58 CEST*
%MOMM*%
G01*
G04 APERTURE LIST*
%ADD10C,0.100000*%
%ADD11C,0.250000*%
%ADD12R,0.750000X1.200000*%
%ADD13R,2.032000X1.524000*%
%ADD14R,1.200000X0.750000*%
%ADD15R,1.200000X0.900000*%
%ADD16R,0.900000X1.200000*%
%ADD17R,2.032000X2.032000*%
%ADD18O,2.032000X2.032000*%
%ADD19R,1.727200X2.032000*%
%ADD20O,1.727200X2.032000*%
%ADD21R,2.032000X1.727200*%
%ADD22O,2.032000X1.727200*%
%ADD23R,1.727200X1.727200*%
%ADD24O,1.727200X1.727200*%
%ADD25R,2.400300X1.300480*%
%ADD26R,2.199640X3.599180*%
%ADD27O,1.501140X2.499360*%
%ADD28R,0.550000X1.500000*%
%ADD29R,1.500000X0.550000*%
%ADD30R,1.498600X0.599440*%
%ADD31R,1.060000X0.650000*%
%ADD32R,1.550000X0.600000*%
%ADD33R,2.000000X2.500000*%
%ADD34C,3.100000*%
%ADD35C,1.700000*%
%ADD36C,1.000000*%
%ADD37C,0.400000*%
%ADD38C,0.800000*%
%ADD39C,0.500000*%
G04 APERTURE END LIST*
D10*
D11*
X53321428Y-57202381D02*
X53988095Y-57202381D01*
X53321428Y-58202381D01*
X53988095Y-58202381D01*
X54511904Y-58202381D02*
X54416666Y-58154762D01*
X54369047Y-58107143D01*
X54321428Y-58011905D01*
X54321428Y-57726190D01*
X54369047Y-57630952D01*
X54416666Y-57583333D01*
X54511904Y-57535714D01*
X54654762Y-57535714D01*
X54750000Y-57583333D01*
X54797619Y-57630952D01*
X54845238Y-57726190D01*
X54845238Y-58011905D01*
X54797619Y-58107143D01*
X54750000Y-58154762D01*
X54654762Y-58202381D01*
X54511904Y-58202381D01*
X55416666Y-58202381D02*
X55321428Y-58154762D01*
X55273809Y-58059524D01*
X55273809Y-57202381D01*
X55654762Y-57535714D02*
X56035714Y-57535714D01*
X55797619Y-57202381D02*
X55797619Y-58059524D01*
X55845238Y-58154762D01*
X55940476Y-58202381D01*
X56035714Y-58202381D01*
X56797620Y-58202381D02*
X56797620Y-57678571D01*
X56750001Y-57583333D01*
X56654763Y-57535714D01*
X56464286Y-57535714D01*
X56369048Y-57583333D01*
X56797620Y-58154762D02*
X56702382Y-58202381D01*
X56464286Y-58202381D01*
X56369048Y-58154762D01*
X56321429Y-58059524D01*
X56321429Y-57964286D01*
X56369048Y-57869048D01*
X56464286Y-57821429D01*
X56702382Y-57821429D01*
X56797620Y-57773810D01*
X57273810Y-57535714D02*
X57273810Y-58202381D01*
X57273810Y-57630952D02*
X57321429Y-57583333D01*
X57416667Y-57535714D01*
X57559525Y-57535714D01*
X57654763Y-57583333D01*
X57702382Y-57678571D01*
X57702382Y-58202381D01*
X59511906Y-58202381D02*
X59178572Y-57726190D01*
X58940477Y-58202381D02*
X58940477Y-57202381D01*
X59321430Y-57202381D01*
X59416668Y-57250000D01*
X59464287Y-57297619D01*
X59511906Y-57392857D01*
X59511906Y-57535714D01*
X59464287Y-57630952D01*
X59416668Y-57678571D01*
X59321430Y-57726190D01*
X58940477Y-57726190D01*
X60369049Y-58202381D02*
X60369049Y-57678571D01*
X60321430Y-57583333D01*
X60226192Y-57535714D01*
X60035715Y-57535714D01*
X59940477Y-57583333D01*
X60369049Y-58154762D02*
X60273811Y-58202381D01*
X60035715Y-58202381D01*
X59940477Y-58154762D01*
X59892858Y-58059524D01*
X59892858Y-57964286D01*
X59940477Y-57869048D01*
X60035715Y-57821429D01*
X60273811Y-57821429D01*
X60369049Y-57773810D01*
X60845239Y-58202381D02*
X60845239Y-57535714D01*
X60845239Y-57202381D02*
X60797620Y-57250000D01*
X60845239Y-57297619D01*
X60892858Y-57250000D01*
X60845239Y-57202381D01*
X60845239Y-57297619D01*
X61750001Y-58154762D02*
X61654763Y-58202381D01*
X61464286Y-58202381D01*
X61369048Y-58154762D01*
X61321429Y-58107143D01*
X61273810Y-58011905D01*
X61273810Y-57726190D01*
X61321429Y-57630952D01*
X61369048Y-57583333D01*
X61464286Y-57535714D01*
X61654763Y-57535714D01*
X61750001Y-57583333D01*
X62130953Y-58154762D02*
X62226191Y-58202381D01*
X62416667Y-58202381D01*
X62511906Y-58154762D01*
X62559525Y-58059524D01*
X62559525Y-58011905D01*
X62511906Y-57916667D01*
X62416667Y-57869048D01*
X62273810Y-57869048D01*
X62178572Y-57821429D01*
X62130953Y-57726190D01*
X62130953Y-57678571D01*
X62178572Y-57583333D01*
X62273810Y-57535714D01*
X62416667Y-57535714D01*
X62511906Y-57583333D01*
X63702382Y-57297619D02*
X63750001Y-57250000D01*
X63845239Y-57202381D01*
X64083335Y-57202381D01*
X64178573Y-57250000D01*
X64226192Y-57297619D01*
X64273811Y-57392857D01*
X64273811Y-57488095D01*
X64226192Y-57630952D01*
X63654763Y-58202381D01*
X64273811Y-58202381D01*
X64892858Y-57202381D02*
X64988097Y-57202381D01*
X65083335Y-57250000D01*
X65130954Y-57297619D01*
X65178573Y-57392857D01*
X65226192Y-57583333D01*
X65226192Y-57821429D01*
X65178573Y-58011905D01*
X65130954Y-58107143D01*
X65083335Y-58154762D01*
X64988097Y-58202381D01*
X64892858Y-58202381D01*
X64797620Y-58154762D01*
X64750001Y-58107143D01*
X64702382Y-58011905D01*
X64654763Y-57821429D01*
X64654763Y-57583333D01*
X64702382Y-57392857D01*
X64750001Y-57297619D01*
X64797620Y-57250000D01*
X64892858Y-57202381D01*
X66178573Y-58202381D02*
X65607144Y-58202381D01*
X65892858Y-58202381D02*
X65892858Y-57202381D01*
X65797620Y-57345238D01*
X65702382Y-57440476D01*
X65607144Y-57488095D01*
X67035716Y-57202381D02*
X66845239Y-57202381D01*
X66750001Y-57250000D01*
X66702382Y-57297619D01*
X66607144Y-57440476D01*
X66559525Y-57630952D01*
X66559525Y-58011905D01*
X66607144Y-58107143D01*
X66654763Y-58154762D01*
X66750001Y-58202381D01*
X66940478Y-58202381D01*
X67035716Y-58154762D01*
X67083335Y-58107143D01*
X67130954Y-58011905D01*
X67130954Y-57773810D01*
X67083335Y-57678571D01*
X67035716Y-57630952D01*
X66940478Y-57583333D01*
X66750001Y-57583333D01*
X66654763Y-57630952D01*
X66607144Y-57678571D01*
X66559525Y-57773810D01*
D12*
X70250000Y-93200000D03*
X70250000Y-91300000D03*
X73000000Y-93200000D03*
X73000000Y-91300000D03*
X67250000Y-93200000D03*
X67250000Y-91300000D03*
D13*
X78750000Y-80349000D03*
X78750000Y-83651000D03*
X78750000Y-72651000D03*
X78750000Y-69349000D03*
X78750000Y-94849000D03*
X78750000Y-98151000D03*
X78750000Y-89901000D03*
X78750000Y-86599000D03*
D12*
X118500000Y-82800000D03*
X118500000Y-84700000D03*
D14*
X113050000Y-61000000D03*
X114950000Y-61000000D03*
D12*
X128500000Y-72050000D03*
X128500000Y-73950000D03*
X101250000Y-74700000D03*
X101250000Y-72800000D03*
D14*
X125950000Y-92500000D03*
X124050000Y-92500000D03*
D12*
X128250000Y-89450000D03*
X128250000Y-87550000D03*
X153750000Y-89200000D03*
X153750000Y-87300000D03*
X153750000Y-93050000D03*
X153750000Y-94950000D03*
D15*
X61650000Y-94750000D03*
X63850000Y-94750000D03*
D16*
X133500000Y-59400000D03*
X133500000Y-61600000D03*
X131000000Y-59400000D03*
X131000000Y-61600000D03*
D17*
X54700000Y-100300000D03*
D18*
X57240000Y-100300000D03*
D19*
X107750000Y-58500000D03*
D20*
X110290000Y-58500000D03*
X112830000Y-58500000D03*
D21*
X54500000Y-64250000D03*
D22*
X54500000Y-66790000D03*
X54500000Y-69330000D03*
D17*
X133000000Y-101000000D03*
D18*
X135540000Y-101000000D03*
D17*
X163500000Y-101000000D03*
D18*
X166040000Y-101000000D03*
D23*
X163000000Y-59500000D03*
D24*
X165540000Y-59500000D03*
X163000000Y-62040000D03*
X165540000Y-62040000D03*
X163000000Y-64580000D03*
X165540000Y-64580000D03*
D17*
X55000000Y-88500000D03*
D18*
X55000000Y-85960000D03*
D15*
X59100000Y-94750000D03*
X56900000Y-94750000D03*
X64400000Y-84500000D03*
X66600000Y-84500000D03*
X56900000Y-97250000D03*
X59100000Y-97250000D03*
X81850000Y-61000000D03*
X79650000Y-61000000D03*
X66650000Y-63000000D03*
X68850000Y-63000000D03*
D16*
X150000000Y-58400000D03*
X150000000Y-60600000D03*
D15*
X139400000Y-63000000D03*
X141600000Y-63000000D03*
D16*
X136000000Y-59400000D03*
X136000000Y-61600000D03*
X128500000Y-59400000D03*
X128500000Y-61600000D03*
D15*
X157150000Y-64750000D03*
X159350000Y-64750000D03*
X132900000Y-81500000D03*
X135100000Y-81500000D03*
X153350000Y-81500000D03*
X151150000Y-81500000D03*
X132900000Y-79000000D03*
X135100000Y-79000000D03*
X153350000Y-79000000D03*
X151150000Y-79000000D03*
X132900000Y-76500000D03*
X135100000Y-76500000D03*
X153350000Y-76250000D03*
X151150000Y-76250000D03*
X132900000Y-73750000D03*
X135100000Y-73750000D03*
X153350000Y-73750000D03*
X151150000Y-73750000D03*
X90900000Y-64000000D03*
X93100000Y-64000000D03*
X93100000Y-60750000D03*
X90900000Y-60750000D03*
D25*
X84651200Y-73198760D03*
X84651200Y-75500000D03*
X84651200Y-77801240D03*
D26*
X90848800Y-75500000D03*
D25*
X84651200Y-87698760D03*
X84651200Y-90000000D03*
X84651200Y-92301240D03*
D26*
X90848800Y-90000000D03*
D27*
X67000000Y-80000000D03*
X69540000Y-80000000D03*
X64460000Y-80000000D03*
D28*
X120000000Y-67300000D03*
X119200000Y-67300000D03*
X118400000Y-67300000D03*
X117600000Y-67300000D03*
X116800000Y-67300000D03*
X116000000Y-67300000D03*
X115200000Y-67300000D03*
X114400000Y-67300000D03*
X113600000Y-67300000D03*
X112800000Y-67300000D03*
X112000000Y-67300000D03*
D29*
X110300000Y-69000000D03*
X110300000Y-69800000D03*
X110300000Y-70600000D03*
X110300000Y-71400000D03*
X110300000Y-72200000D03*
X110300000Y-73000000D03*
X110300000Y-73800000D03*
X110300000Y-74600000D03*
X110300000Y-75400000D03*
X110300000Y-76200000D03*
X110300000Y-77000000D03*
D28*
X112000000Y-78700000D03*
X112800000Y-78700000D03*
X113600000Y-78700000D03*
X114400000Y-78700000D03*
X115200000Y-78700000D03*
X116000000Y-78700000D03*
X116800000Y-78700000D03*
X117600000Y-78700000D03*
X118400000Y-78700000D03*
X119200000Y-78700000D03*
X120000000Y-78700000D03*
D29*
X121700000Y-77000000D03*
X121700000Y-76200000D03*
X121700000Y-75400000D03*
X121700000Y-74600000D03*
X121700000Y-73800000D03*
X121700000Y-73000000D03*
X121700000Y-72200000D03*
X121700000Y-71400000D03*
X121700000Y-70600000D03*
X121700000Y-69800000D03*
X121700000Y-69000000D03*
D30*
X139802520Y-73807540D03*
X139802520Y-75077540D03*
X139802520Y-76347540D03*
X139802520Y-77617540D03*
X139802520Y-78882460D03*
X139802520Y-80152460D03*
X139802520Y-81422460D03*
X139802520Y-82692460D03*
X145197480Y-82692460D03*
X145197480Y-81422460D03*
X145197480Y-80152460D03*
X145197480Y-78882460D03*
X145197480Y-77617540D03*
X145197480Y-76347540D03*
X145197480Y-75077540D03*
X145197480Y-73807540D03*
D31*
X97500000Y-62150000D03*
X97500000Y-63100000D03*
X97500000Y-64050000D03*
X99700000Y-64050000D03*
X99700000Y-62150000D03*
D32*
X136700000Y-93905000D03*
X136700000Y-92635000D03*
X136700000Y-91365000D03*
X136700000Y-90095000D03*
X131300000Y-90095000D03*
X131300000Y-91365000D03*
X131300000Y-92635000D03*
X131300000Y-93905000D03*
X163700000Y-93905000D03*
X163700000Y-92635000D03*
X163700000Y-91365000D03*
X163700000Y-90095000D03*
X158300000Y-90095000D03*
X158300000Y-91365000D03*
X158300000Y-92635000D03*
X158300000Y-93905000D03*
D33*
X61800000Y-100250000D03*
X65200000Y-100250000D03*
D34*
X164000000Y-81000000D03*
X56000000Y-81000000D03*
X56000000Y-53000000D03*
X74000000Y-53000000D03*
X92000000Y-53000000D03*
X110000000Y-53000000D03*
X128000000Y-53000000D03*
X146000000Y-53000000D03*
X164000000Y-53000000D03*
D35*
X72730000Y-63105000D03*
X72730000Y-60895000D03*
X75270000Y-63105000D03*
X75270000Y-60895000D03*
X144730000Y-63105000D03*
X144730000Y-60895000D03*
X147270000Y-63105000D03*
X147270000Y-60895000D03*
D34*
X96400000Y-100000000D03*
X123600000Y-100000000D03*
D19*
X106500000Y-84500000D03*
D20*
X103960000Y-84500000D03*
X101420000Y-84500000D03*
X98880000Y-84500000D03*
X96340000Y-84500000D03*
X93800000Y-84500000D03*
D36*
X87000000Y-77750000D03*
X89000000Y-64000000D03*
X126000000Y-94500000D03*
X155500000Y-91500000D03*
X69250000Y-100250000D03*
X127000000Y-61750000D03*
X64750000Y-70750000D03*
X144000000Y-69750000D03*
X114750000Y-72250000D03*
X119250000Y-74500000D03*
X112250000Y-72250000D03*
X117000000Y-76750000D03*
X118500000Y-86250000D03*
X93000000Y-71000000D03*
X89000000Y-60750000D03*
X70750000Y-88250000D03*
X76500000Y-86500000D03*
X66750000Y-65500000D03*
X68500000Y-75500000D03*
X89000000Y-72250000D03*
X101500000Y-62000000D03*
X137000000Y-66750000D03*
X137000000Y-64000000D03*
X90500000Y-57500000D03*
X82000000Y-90000000D03*
X69000000Y-84500000D03*
X87000000Y-90000000D03*
X121500000Y-93000000D03*
X153750000Y-85500000D03*
X133500000Y-93000000D03*
X141750000Y-93000000D03*
X67750000Y-98750000D03*
X126250000Y-77000000D03*
X127000000Y-68750000D03*
X125000000Y-75750000D03*
X116250000Y-58750000D03*
X105000000Y-61000000D03*
X107000000Y-76000000D03*
X103000000Y-67750000D03*
X149000000Y-81500000D03*
X139000000Y-90000000D03*
X147000000Y-79000000D03*
X133250000Y-90000000D03*
X161500000Y-89250000D03*
X148500000Y-76250000D03*
X118250000Y-69500000D03*
X109250000Y-62500000D03*
X115250000Y-75750000D03*
X124000000Y-65750000D03*
X116250000Y-70500000D03*
X109500000Y-83250000D03*
D37*
X50000000Y-50000000D02*
X50000000Y-105000000D01*
X170000000Y-50000000D02*
X50000000Y-50000000D01*
X170000000Y-105000000D02*
X170000000Y-50000000D01*
X50000000Y-105000000D02*
X170000000Y-105000000D01*
D38*
X87000000Y-77750000D02*
X87000000Y-81250000D01*
X90250000Y-84500000D02*
X93800000Y-84500000D01*
X87000000Y-81250000D02*
X90250000Y-84500000D01*
X90900000Y-64000000D02*
X89000000Y-64000000D01*
X86948760Y-77801240D02*
X87000000Y-77750000D01*
X86948760Y-77801240D02*
X84651200Y-77801240D01*
X68250000Y-96000000D02*
X70875000Y-98625000D01*
X67250000Y-95000000D02*
X68250000Y-96000000D01*
X67250000Y-94750000D02*
X67250000Y-95000000D01*
X70750000Y-98500000D02*
X70750000Y-98750000D01*
X70875000Y-98625000D02*
X70750000Y-98500000D01*
X72750000Y-81000000D02*
X71750000Y-80000000D01*
X71750000Y-80000000D02*
X69540000Y-80000000D01*
X78750000Y-77801240D02*
X77698760Y-77801240D01*
X77698760Y-77801240D02*
X74875000Y-80625000D01*
X74875000Y-80625000D02*
X74875000Y-83125000D01*
X72750000Y-81000000D02*
X74875000Y-83125000D01*
X128000000Y-92500000D02*
X126000000Y-94500000D01*
X125950000Y-92500000D02*
X128000000Y-92500000D01*
X129135000Y-91365000D02*
X128000000Y-92500000D01*
X129135000Y-91365000D02*
X129385000Y-91365000D01*
X163700000Y-92635000D02*
X162635000Y-92635000D01*
X162635000Y-92635000D02*
X161365000Y-91365000D01*
X158300000Y-91365000D02*
X161365000Y-91365000D01*
X161365000Y-91365000D02*
X163700000Y-91365000D01*
X153350000Y-79000000D02*
X154000000Y-79000000D01*
X155500000Y-80500000D02*
X155500000Y-81000000D01*
X154000000Y-79000000D02*
X155500000Y-80500000D01*
X153350000Y-73750000D02*
X153750000Y-73750000D01*
X153750000Y-73750000D02*
X155500000Y-75500000D01*
X153350000Y-81500000D02*
X154000000Y-81500000D01*
X154000000Y-81500000D02*
X155500000Y-83000000D01*
X153350000Y-76250000D02*
X154000000Y-76250000D01*
X154000000Y-76250000D02*
X155500000Y-77750000D01*
X155500000Y-91500000D02*
X155500000Y-83000000D01*
X155500000Y-83000000D02*
X155500000Y-81000000D01*
X155500000Y-81000000D02*
X155500000Y-79750000D01*
X155500000Y-79750000D02*
X155500000Y-77750000D01*
X155500000Y-77750000D02*
X155500000Y-75500000D01*
X155500000Y-91500000D02*
X153750000Y-91500000D01*
X153750000Y-91500000D02*
X154000000Y-91500000D01*
X154000000Y-91500000D02*
X153750000Y-91500000D01*
X153750000Y-89200000D02*
X153750000Y-91500000D01*
X153750000Y-91500000D02*
X153750000Y-93050000D01*
X155635000Y-91365000D02*
X158300000Y-91365000D01*
X155500000Y-91500000D02*
X155635000Y-91365000D01*
X136700000Y-92635000D02*
X135135000Y-92635000D01*
X135135000Y-92635000D02*
X133865000Y-91365000D01*
X131300000Y-91365000D02*
X133865000Y-91365000D01*
X133865000Y-91365000D02*
X136700000Y-91365000D01*
X128250000Y-89450000D02*
X128250000Y-90230000D01*
X128250000Y-90230000D02*
X129385000Y-91365000D01*
X131300000Y-91365000D02*
X129385000Y-91365000D01*
X67250000Y-94750000D02*
X63850000Y-94750000D01*
X73000000Y-93200000D02*
X73000000Y-95250000D01*
X73000000Y-95250000D02*
X73625000Y-95875000D01*
X70250000Y-93200000D02*
X70250000Y-94500000D01*
X70250000Y-94500000D02*
X71750000Y-96000000D01*
X67250000Y-93200000D02*
X67250000Y-94750000D01*
X71750000Y-96000000D02*
X72625000Y-96875000D01*
X78750000Y-80349000D02*
X78750000Y-77801240D01*
X78750000Y-77801240D02*
X78750000Y-78000000D01*
X78750000Y-78000000D02*
X78750000Y-77801240D01*
X74875000Y-94625000D02*
X74875000Y-83125000D01*
X78750000Y-77801240D02*
X84651200Y-77801240D01*
X78750000Y-94849000D02*
X78750000Y-92301240D01*
X78750000Y-92301240D02*
X78750000Y-92250000D01*
X78750000Y-92250000D02*
X78750000Y-92301240D01*
X65200000Y-100250000D02*
X69250000Y-100250000D01*
X77198760Y-92301240D02*
X78750000Y-92301240D01*
X78750000Y-92301240D02*
X84651200Y-92301240D01*
X69250000Y-100250000D02*
X70750000Y-98750000D01*
X70750000Y-98750000D02*
X72625000Y-96875000D01*
X72625000Y-96875000D02*
X73625000Y-95875000D01*
X73625000Y-95875000D02*
X74875000Y-94625000D01*
X74875000Y-94625000D02*
X77198760Y-92301240D01*
D39*
X101250000Y-72800000D02*
X101250000Y-71750000D01*
X101250000Y-71750000D02*
X100500000Y-71000000D01*
X128500000Y-61600000D02*
X127150000Y-61600000D01*
X127150000Y-61600000D02*
X127000000Y-61750000D01*
X78750000Y-69349000D02*
X76901000Y-69349000D01*
X76901000Y-69349000D02*
X76500000Y-69750000D01*
X78750000Y-69349000D02*
X81349000Y-69349000D01*
X81349000Y-69349000D02*
X84651200Y-72651200D01*
X84651200Y-72651200D02*
X84651200Y-73198760D01*
X76901000Y-69349000D02*
X76500000Y-69750000D01*
X76500000Y-69750000D02*
X75500000Y-70750000D01*
X64750000Y-70750000D02*
X75500000Y-70750000D01*
X84651200Y-73151200D02*
X84651200Y-73198760D01*
X144730000Y-60895000D02*
X145060000Y-60895000D01*
X145060000Y-60895000D02*
X147270000Y-63105000D01*
X136000000Y-61600000D02*
X144025000Y-61600000D01*
X144025000Y-61600000D02*
X144730000Y-60895000D01*
X137750000Y-69750000D02*
X139750000Y-71750000D01*
X139750000Y-71750000D02*
X141500000Y-73500000D01*
X141500000Y-73500000D02*
X141500000Y-75750000D01*
X131500000Y-71750000D02*
X133500000Y-69750000D01*
X160370000Y-69750000D02*
X165540000Y-64580000D01*
X144000000Y-69750000D02*
X160370000Y-69750000D01*
X133500000Y-69750000D02*
X137750000Y-69750000D01*
X137750000Y-69750000D02*
X144000000Y-69750000D01*
X128500000Y-73950000D02*
X129300000Y-73950000D01*
X129300000Y-73950000D02*
X131500000Y-71750000D01*
X139802520Y-80152460D02*
X140652460Y-80152460D01*
X140652460Y-80152460D02*
X141500000Y-81000000D01*
X139802520Y-77617540D02*
X140617540Y-77617540D01*
X140617540Y-77617540D02*
X141500000Y-78500000D01*
X139802520Y-82692460D02*
X141057540Y-82692460D01*
X140827540Y-75077540D02*
X139802520Y-75077540D01*
X141500000Y-75750000D02*
X140827540Y-75077540D01*
X141500000Y-82250000D02*
X141500000Y-81000000D01*
X141500000Y-81000000D02*
X141500000Y-78500000D01*
X141500000Y-78500000D02*
X141500000Y-75750000D01*
X141057540Y-82692460D02*
X141500000Y-82250000D01*
X121700000Y-73800000D02*
X125500000Y-73800000D01*
X125500000Y-73800000D02*
X128350000Y-73800000D01*
X128350000Y-73800000D02*
X128500000Y-73950000D01*
X114400000Y-67300000D02*
X114400000Y-62850000D01*
X114950000Y-62300000D02*
X114950000Y-61000000D01*
X114400000Y-62850000D02*
X114950000Y-62300000D01*
X114400000Y-71900000D02*
X114400000Y-67300000D01*
X114750000Y-72250000D02*
X114400000Y-71900000D01*
X119950000Y-73800000D02*
X121700000Y-73800000D01*
X119250000Y-74500000D02*
X119950000Y-73800000D01*
X111450000Y-73800000D02*
X110300000Y-73800000D01*
X112250000Y-73000000D02*
X111450000Y-73800000D01*
X112250000Y-72250000D02*
X112250000Y-73000000D01*
X118500000Y-84700000D02*
X118500000Y-86250000D01*
X117600000Y-77350000D02*
X117600000Y-78700000D01*
X117000000Y-76750000D02*
X117600000Y-77350000D01*
X110300000Y-73800000D02*
X104800000Y-73800000D01*
X86301240Y-73198760D02*
X84651200Y-73198760D01*
X88500000Y-71000000D02*
X86301240Y-73198760D01*
X102000000Y-71000000D02*
X100500000Y-71000000D01*
X100500000Y-71000000D02*
X93000000Y-71000000D01*
X93000000Y-71000000D02*
X88500000Y-71000000D01*
X97500000Y-63100000D02*
X96900000Y-63100000D01*
X88000000Y-66000000D02*
X85105000Y-63105000D01*
X94000000Y-66000000D02*
X88000000Y-66000000D01*
X96900000Y-63100000D02*
X94000000Y-66000000D01*
X90900000Y-60750000D02*
X89000000Y-60750000D01*
X89000000Y-60750000D02*
X87750000Y-60750000D01*
X85395000Y-63105000D02*
X85105000Y-63105000D01*
X85105000Y-63105000D02*
X75270000Y-63105000D01*
X87750000Y-60750000D02*
X85395000Y-63105000D01*
X56900000Y-97250000D02*
X54700000Y-97250000D01*
X54700000Y-97250000D02*
X54750000Y-97250000D01*
X54750000Y-97250000D02*
X54700000Y-97250000D01*
X56900000Y-94750000D02*
X54700000Y-94750000D01*
X54700000Y-94750000D02*
X54750000Y-94750000D01*
X54750000Y-94750000D02*
X54700000Y-94750000D01*
X70750000Y-88250000D02*
X70750000Y-84000000D01*
X67000000Y-82000000D02*
X67000000Y-80000000D01*
X67750000Y-82750000D02*
X67000000Y-82000000D01*
X69500000Y-82750000D02*
X67750000Y-82750000D01*
X70750000Y-84000000D02*
X69500000Y-82750000D01*
X78750000Y-86599000D02*
X76599000Y-86599000D01*
X76599000Y-86599000D02*
X76500000Y-86500000D01*
X78750000Y-86599000D02*
X78750000Y-83651000D01*
X84651200Y-87698760D02*
X82198760Y-87698760D01*
X81099000Y-86599000D02*
X78750000Y-86599000D01*
X82198760Y-87698760D02*
X81099000Y-86599000D01*
X78750000Y-98151000D02*
X83099000Y-98151000D01*
X86948760Y-87698760D02*
X84651200Y-87698760D01*
X88500000Y-89250000D02*
X86948760Y-87698760D01*
X88500000Y-92750000D02*
X88500000Y-89250000D01*
X83099000Y-98151000D02*
X88500000Y-92750000D01*
X67250000Y-91300000D02*
X67250000Y-90000000D01*
X67250000Y-90000000D02*
X65500000Y-88250000D01*
X70250000Y-91300000D02*
X70250000Y-90000000D01*
X70250000Y-90000000D02*
X68500000Y-88250000D01*
X54700000Y-100300000D02*
X54700000Y-97250000D01*
X54700000Y-97250000D02*
X54700000Y-94750000D01*
X54700000Y-94750000D02*
X54700000Y-88800000D01*
X54700000Y-88800000D02*
X55250000Y-88250000D01*
X55250000Y-88250000D02*
X65250000Y-88250000D01*
X65250000Y-88250000D02*
X68500000Y-88250000D01*
X68500000Y-88250000D02*
X70750000Y-88250000D01*
X70750000Y-88250000D02*
X71250000Y-88250000D01*
X73000000Y-90000000D02*
X73000000Y-91300000D01*
X71250000Y-88250000D02*
X73000000Y-90000000D01*
X104800000Y-73800000D02*
X103250000Y-72250000D01*
X103250000Y-72250000D02*
X102000000Y-71000000D01*
X110300000Y-74600000D02*
X94850000Y-74600000D01*
X92500000Y-72250000D02*
X89000000Y-72250000D01*
X94850000Y-74600000D02*
X92500000Y-72250000D01*
X70750000Y-75500000D02*
X68500000Y-75500000D01*
X66650000Y-65400000D02*
X66750000Y-65500000D01*
X78750000Y-75500000D02*
X70750000Y-75500000D01*
X66650000Y-65400000D02*
X66650000Y-63000000D01*
X128500000Y-72050000D02*
X125450000Y-72050000D01*
X125450000Y-72050000D02*
X125250000Y-72250000D01*
X113600000Y-67300000D02*
X113600000Y-63350000D01*
X113050000Y-62800000D02*
X113050000Y-61000000D01*
X113600000Y-63350000D02*
X113050000Y-62800000D01*
X99700000Y-62150000D02*
X101350000Y-62150000D01*
X101500000Y-62000000D02*
X101350000Y-62150000D01*
X88500000Y-74750000D02*
X89000000Y-74250000D01*
X84651200Y-75500000D02*
X87750000Y-75500000D01*
X88500000Y-74750000D02*
X87750000Y-75500000D01*
X89000000Y-74250000D02*
X89000000Y-72250000D01*
X137000000Y-66750000D02*
X126750000Y-66750000D01*
X125250000Y-72250000D02*
X124500000Y-73000000D01*
X125250000Y-68250000D02*
X125250000Y-72250000D01*
X126750000Y-66750000D02*
X125250000Y-68250000D01*
X137000000Y-66750000D02*
X155750000Y-66750000D01*
X157150000Y-65350000D02*
X157150000Y-64750000D01*
X155750000Y-66750000D02*
X157150000Y-65350000D01*
X139400000Y-63000000D02*
X138000000Y-63000000D01*
X138000000Y-63000000D02*
X137000000Y-64000000D01*
X121700000Y-73000000D02*
X124500000Y-73000000D01*
X165540000Y-59500000D02*
X165540000Y-58790000D01*
X165540000Y-58790000D02*
X164500000Y-57750000D01*
X157150000Y-59600000D02*
X157150000Y-64750000D01*
X159000000Y-57750000D02*
X157150000Y-59600000D01*
X164500000Y-57750000D02*
X159000000Y-57750000D01*
X118400000Y-78700000D02*
X118400000Y-82700000D01*
X118400000Y-82700000D02*
X118500000Y-82800000D01*
X113600000Y-67300000D02*
X113600000Y-72900000D01*
X113600000Y-72900000D02*
X111900000Y-74600000D01*
X121700000Y-73000000D02*
X118450000Y-73000000D01*
X118450000Y-73000000D02*
X116850000Y-74600000D01*
X110300000Y-74600000D02*
X111900000Y-74600000D01*
X111900000Y-74600000D02*
X116850000Y-74600000D01*
X118400000Y-76150000D02*
X118400000Y-78700000D01*
X116850000Y-74600000D02*
X118400000Y-76150000D01*
X110300000Y-74600000D02*
X105750000Y-74600000D01*
X105750000Y-74600000D02*
X104350000Y-74600000D01*
X78750000Y-72651000D02*
X78750000Y-75500000D01*
X84651200Y-75500000D02*
X78750000Y-75500000D01*
X110290000Y-59710000D02*
X110290000Y-58500000D01*
X90500000Y-57500000D02*
X104000000Y-57500000D01*
X104000000Y-57500000D02*
X106750000Y-60250000D01*
X106750000Y-60250000D02*
X109750000Y-60250000D01*
X109750000Y-60250000D02*
X110290000Y-59710000D01*
X69000000Y-84500000D02*
X66600000Y-84500000D01*
X84651200Y-90000000D02*
X86750000Y-90000000D01*
X86750000Y-90000000D02*
X87000000Y-90000000D01*
X84651200Y-90000000D02*
X82000000Y-90000000D01*
X82000000Y-90000000D02*
X78849000Y-90000000D01*
X78849000Y-90000000D02*
X78750000Y-89901000D01*
D38*
X141750000Y-93000000D02*
X142000000Y-93000000D01*
X145500000Y-96500000D02*
X154000000Y-96500000D01*
X142000000Y-93000000D02*
X145500000Y-96500000D01*
X128250000Y-87550000D02*
X125700000Y-87550000D01*
X121500000Y-91750000D02*
X121500000Y-93000000D01*
X125700000Y-87550000D02*
X121500000Y-91750000D01*
X124050000Y-92500000D02*
X122000000Y-92500000D01*
X122000000Y-92500000D02*
X121500000Y-93000000D01*
X153750000Y-87300000D02*
X153750000Y-85500000D01*
X131300000Y-93905000D02*
X132595000Y-93905000D01*
X132595000Y-93905000D02*
X133500000Y-93000000D01*
X145197480Y-77617540D02*
X143500000Y-77617540D01*
X143500000Y-77617540D02*
X143500000Y-77500000D01*
X145197480Y-80152460D02*
X143500000Y-80152460D01*
X143750000Y-80250000D02*
X143500000Y-80250000D01*
X143597540Y-80250000D02*
X143750000Y-80250000D01*
X143500000Y-80152460D02*
X143597540Y-80250000D01*
X145197480Y-82692460D02*
X143500000Y-82692460D01*
X143500000Y-82692460D02*
X143500000Y-82750000D01*
X145197480Y-75077540D02*
X144172460Y-75077540D01*
X143500000Y-91250000D02*
X141750000Y-93000000D01*
X143500000Y-75750000D02*
X143500000Y-77500000D01*
X143500000Y-77500000D02*
X143500000Y-80250000D01*
X143500000Y-80250000D02*
X143500000Y-82750000D01*
X143500000Y-82750000D02*
X143500000Y-91250000D01*
X144172460Y-75077540D02*
X143500000Y-75750000D01*
X153750000Y-94950000D02*
X153750000Y-95500000D01*
X153750000Y-95500000D02*
X152750000Y-96500000D01*
X158300000Y-93905000D02*
X157095000Y-93905000D01*
X157095000Y-93905000D02*
X154500000Y-96500000D01*
X154500000Y-96500000D02*
X154000000Y-96500000D01*
X154000000Y-96500000D02*
X152750000Y-96500000D01*
X152750000Y-96500000D02*
X152000000Y-96500000D01*
X66250000Y-97250000D02*
X67750000Y-98750000D01*
X66250000Y-97250000D02*
X59100000Y-97250000D01*
X57240000Y-100300000D02*
X61750000Y-100300000D01*
X61750000Y-100300000D02*
X61800000Y-100250000D01*
D37*
X61650000Y-94750000D02*
X59100000Y-94750000D01*
X133500000Y-59400000D02*
X136000000Y-59400000D01*
X117600000Y-67300000D02*
X117600000Y-65400000D01*
X133500000Y-63250000D02*
X133500000Y-61600000D01*
X132500000Y-64250000D02*
X133500000Y-63250000D01*
X118750000Y-64250000D02*
X132500000Y-64250000D01*
X117600000Y-65400000D02*
X118750000Y-64250000D01*
X128500000Y-59400000D02*
X131000000Y-59400000D01*
X116800000Y-67300000D02*
X116800000Y-64700000D01*
X131000000Y-62250000D02*
X131000000Y-61600000D01*
X130000000Y-63250000D02*
X131000000Y-62250000D01*
X118250000Y-63250000D02*
X130000000Y-63250000D01*
X116800000Y-64700000D02*
X118250000Y-63250000D01*
X112800000Y-65800000D02*
X112800000Y-64300000D01*
X111750000Y-63250000D02*
X111750000Y-61750000D01*
X112800000Y-64300000D02*
X111750000Y-63250000D01*
X112800000Y-67300000D02*
X112800000Y-65800000D01*
X111750000Y-59580000D02*
X112830000Y-58500000D01*
X111750000Y-61750000D02*
X111750000Y-59580000D01*
X112800000Y-58530000D02*
X112830000Y-58500000D01*
X110300000Y-69000000D02*
X108250000Y-69000000D01*
X55710000Y-68000000D02*
X54500000Y-66790000D01*
X74250000Y-68000000D02*
X55710000Y-68000000D01*
X76000000Y-66250000D02*
X74250000Y-68000000D01*
X82000000Y-66250000D02*
X76000000Y-66250000D01*
X84500000Y-68750000D02*
X82000000Y-66250000D01*
X108000000Y-68750000D02*
X84500000Y-68750000D01*
X108250000Y-69000000D02*
X108000000Y-68750000D01*
X110300000Y-69800000D02*
X83800000Y-69800000D01*
X74920000Y-69330000D02*
X54500000Y-69330000D01*
X76750000Y-67500000D02*
X74920000Y-69330000D01*
X81500000Y-67500000D02*
X76750000Y-67500000D01*
X83800000Y-69800000D02*
X81500000Y-67500000D01*
X112000000Y-80250000D02*
X110750000Y-81500000D01*
X101420000Y-82830000D02*
X101420000Y-84500000D01*
X102750000Y-81500000D02*
X101420000Y-82830000D01*
X110750000Y-81500000D02*
X102750000Y-81500000D01*
X112000000Y-78700000D02*
X112000000Y-80250000D01*
X108000000Y-77000000D02*
X102000000Y-77000000D01*
X110300000Y-77000000D02*
X108000000Y-77000000D01*
X98880000Y-80120000D02*
X98880000Y-84500000D01*
X102000000Y-77000000D02*
X98880000Y-80120000D01*
D38*
X131300000Y-92635000D02*
X129865000Y-92635000D01*
X130750000Y-101000000D02*
X133000000Y-101000000D01*
X128500000Y-98750000D02*
X130750000Y-101000000D01*
X128500000Y-94000000D02*
X128500000Y-98750000D01*
X129865000Y-92635000D02*
X128500000Y-94000000D01*
X136700000Y-93905000D02*
X138905000Y-93905000D01*
X138500000Y-101000000D02*
X135540000Y-101000000D01*
X140500000Y-99000000D02*
X138500000Y-101000000D01*
X140500000Y-95500000D02*
X140500000Y-99000000D01*
X138905000Y-93905000D02*
X140500000Y-95500000D01*
X158300000Y-92635000D02*
X159635000Y-92635000D01*
X163500000Y-96500000D02*
X163500000Y-101000000D01*
X159635000Y-92635000D02*
X163500000Y-96500000D01*
X163700000Y-93905000D02*
X165155000Y-93905000D01*
X166040000Y-94790000D02*
X166040000Y-101000000D01*
X165155000Y-93905000D02*
X166040000Y-94790000D01*
D37*
X126250000Y-77000000D02*
X121700000Y-77000000D01*
X127000000Y-68750000D02*
X127750000Y-68000000D01*
X127750000Y-68000000D02*
X128000000Y-68000000D01*
X124500000Y-76200000D02*
X124550000Y-76200000D01*
X121700000Y-76200000D02*
X124500000Y-76200000D01*
X124550000Y-76200000D02*
X125000000Y-75750000D01*
X159500000Y-68000000D02*
X162920000Y-64580000D01*
X143250000Y-68000000D02*
X159500000Y-68000000D01*
X127750000Y-68000000D02*
X128000000Y-68000000D01*
X128000000Y-68000000D02*
X143250000Y-68000000D01*
X162920000Y-64580000D02*
X163000000Y-64580000D01*
X163000000Y-64580000D02*
X159520000Y-64580000D01*
X159520000Y-64580000D02*
X159350000Y-64750000D01*
D39*
X64400000Y-84500000D02*
X56460000Y-84500000D01*
X56460000Y-84500000D02*
X55000000Y-85960000D01*
X64460000Y-80000000D02*
X64460000Y-84440000D01*
X64460000Y-84440000D02*
X64400000Y-84500000D01*
D37*
X103500000Y-59500000D02*
X102500000Y-58500000D01*
X88250000Y-58500000D02*
X87250000Y-59500000D01*
X102500000Y-58500000D02*
X88250000Y-58500000D01*
X115200000Y-64550000D02*
X115200000Y-63300000D01*
X116250000Y-62250000D02*
X116250000Y-61500000D01*
X115200000Y-63300000D02*
X116250000Y-62250000D01*
X116250000Y-61250000D02*
X116250000Y-58750000D01*
X116250000Y-61250000D02*
X116250000Y-61500000D01*
X81850000Y-61000000D02*
X85750000Y-61000000D01*
X103500000Y-59500000D02*
X105000000Y-61000000D01*
X85750000Y-61000000D02*
X87250000Y-59500000D01*
X115200000Y-67300000D02*
X115200000Y-64550000D01*
X79650000Y-61000000D02*
X75375000Y-61000000D01*
X75375000Y-61000000D02*
X75270000Y-60895000D01*
X97500000Y-67750000D02*
X85250000Y-67750000D01*
X107600000Y-75400000D02*
X107000000Y-76000000D01*
X103000000Y-67750000D02*
X97500000Y-67750000D01*
X110300000Y-75400000D02*
X107600000Y-75400000D01*
X74625000Y-65000000D02*
X72730000Y-63105000D01*
X82500000Y-65000000D02*
X74625000Y-65000000D01*
X85250000Y-67750000D02*
X82500000Y-65000000D01*
X72730000Y-63105000D02*
X68955000Y-63105000D01*
X68955000Y-63105000D02*
X68850000Y-63000000D01*
X116000000Y-65500000D02*
X116000000Y-64000000D01*
X117250000Y-62750000D02*
X117250000Y-60750000D01*
X116000000Y-64000000D02*
X117250000Y-62750000D01*
X117250000Y-60750000D02*
X117250000Y-59000000D01*
X116000000Y-67300000D02*
X116000000Y-65500000D01*
X118250000Y-58000000D02*
X119500000Y-58000000D01*
X117250000Y-59000000D02*
X118250000Y-58000000D01*
X149600000Y-58000000D02*
X119500000Y-58000000D01*
X119500000Y-58000000D02*
X119000000Y-58000000D01*
X149600000Y-58000000D02*
X150000000Y-58400000D01*
X147270000Y-60895000D02*
X149705000Y-60895000D01*
X149705000Y-60895000D02*
X150000000Y-60600000D01*
X121000000Y-88750000D02*
X121500000Y-88750000D01*
X116000000Y-87000000D02*
X117750000Y-88750000D01*
X117750000Y-88750000D02*
X121000000Y-88750000D01*
X116000000Y-78700000D02*
X116000000Y-87000000D01*
X128750000Y-81500000D02*
X132900000Y-81500000D01*
X121500000Y-88750000D02*
X128750000Y-81500000D01*
X139802520Y-81422460D02*
X135177540Y-81422460D01*
X135177540Y-81422460D02*
X135100000Y-81500000D01*
X136700000Y-90095000D02*
X138905000Y-90095000D01*
X139000000Y-90000000D02*
X138905000Y-90095000D01*
X151150000Y-81500000D02*
X149000000Y-81500000D01*
X149000000Y-81500000D02*
X148250000Y-81500000D01*
X148250000Y-81500000D02*
X145275020Y-81500000D01*
X145275020Y-81500000D02*
X145197480Y-81422460D01*
X129750000Y-79000000D02*
X129250000Y-79000000D01*
X120750000Y-87500000D02*
X120250000Y-87500000D01*
X129250000Y-79000000D02*
X120750000Y-87500000D01*
X118000000Y-87500000D02*
X117000000Y-86500000D01*
X130000000Y-79000000D02*
X129750000Y-79000000D01*
X118000000Y-87500000D02*
X118250000Y-87500000D01*
X120250000Y-87500000D02*
X118000000Y-87500000D01*
X116800000Y-86300000D02*
X117000000Y-86500000D01*
X116800000Y-78700000D02*
X116800000Y-86300000D01*
X117000000Y-86500000D02*
X117375000Y-86875000D01*
X130000000Y-79000000D02*
X131000000Y-79000000D01*
X131000000Y-79000000D02*
X132900000Y-79000000D01*
X139802520Y-78882460D02*
X135217540Y-78882460D01*
X135217540Y-78882460D02*
X135100000Y-79000000D01*
X131300000Y-90095000D02*
X133155000Y-90095000D01*
X133250000Y-90000000D02*
X133155000Y-90095000D01*
X151150000Y-79000000D02*
X147000000Y-79000000D01*
X147000000Y-79000000D02*
X145315020Y-79000000D01*
X145315020Y-79000000D02*
X145197480Y-78882460D01*
X130750000Y-76500000D02*
X130250000Y-76500000D01*
X123750000Y-83000000D02*
X123000000Y-83000000D01*
X130250000Y-76500000D02*
X123750000Y-83000000D01*
X119200000Y-78700000D02*
X119200000Y-80950000D01*
X121250000Y-83000000D02*
X123000000Y-83000000D01*
X119200000Y-80950000D02*
X121250000Y-83000000D01*
X130750000Y-76500000D02*
X132900000Y-76500000D01*
X139802520Y-76347540D02*
X135252460Y-76347540D01*
X135252460Y-76347540D02*
X135100000Y-76500000D01*
X162345000Y-90095000D02*
X161500000Y-89250000D01*
X162345000Y-90095000D02*
X163700000Y-90095000D01*
X151150000Y-76250000D02*
X149500000Y-76250000D01*
X149500000Y-76250000D02*
X148500000Y-76250000D01*
X148500000Y-76250000D02*
X145295020Y-76250000D01*
X145295020Y-76250000D02*
X145197480Y-76347540D01*
X131750000Y-73750000D02*
X131250000Y-73750000D01*
X131250000Y-73750000D02*
X123250000Y-81750000D01*
X123250000Y-81750000D02*
X122500000Y-81750000D01*
X131750000Y-73750000D02*
X132900000Y-73750000D01*
X120000000Y-78700000D02*
X120000000Y-80750000D01*
X121000000Y-81750000D02*
X122500000Y-81750000D01*
X122500000Y-81750000D02*
X123250000Y-81750000D01*
X120000000Y-80750000D02*
X121000000Y-81750000D01*
X135100000Y-73750000D02*
X139744980Y-73750000D01*
X139744980Y-73750000D02*
X139802520Y-73807540D01*
X158300000Y-90095000D02*
X157345000Y-90095000D01*
X150250000Y-72000000D02*
X148500000Y-73750000D01*
X154500000Y-72000000D02*
X150250000Y-72000000D01*
X156750000Y-74250000D02*
X154500000Y-72000000D01*
X156750000Y-89500000D02*
X156750000Y-74250000D01*
X157345000Y-90095000D02*
X156750000Y-89500000D01*
X151150000Y-73750000D02*
X148500000Y-73750000D01*
X148500000Y-73750000D02*
X145255020Y-73750000D01*
X145255020Y-73750000D02*
X145197480Y-73807540D01*
X94500000Y-60750000D02*
X93100000Y-60750000D01*
X93100000Y-64000000D02*
X94250000Y-64000000D01*
X95850000Y-62250000D02*
X95850000Y-62150000D01*
X95850000Y-62250000D02*
X95850000Y-62400000D01*
X94250000Y-64000000D02*
X95850000Y-62400000D01*
X97500000Y-62150000D02*
X95850000Y-62150000D01*
X95850000Y-62150000D02*
X94450000Y-60750000D01*
X97500000Y-62150000D02*
X96850000Y-62150000D01*
X96850000Y-62150000D02*
X96650000Y-62150000D01*
X104250000Y-62500000D02*
X102700000Y-64050000D01*
X99700000Y-64050000D02*
X102700000Y-64050000D01*
X118250000Y-69500000D02*
X118400000Y-69350000D01*
X118400000Y-69350000D02*
X118400000Y-67300000D01*
X109250000Y-62500000D02*
X104250000Y-62500000D01*
X97500000Y-64050000D02*
X99700000Y-64050000D01*
X99700000Y-64050000D02*
X101950000Y-64050000D01*
X111950000Y-76200000D02*
X114800000Y-76200000D01*
X110300000Y-76200000D02*
X111950000Y-76200000D01*
X114800000Y-76200000D02*
X115250000Y-75750000D01*
X141600000Y-64900000D02*
X141600000Y-63000000D01*
X141000000Y-65500000D02*
X141600000Y-64900000D01*
X124250000Y-65500000D02*
X141000000Y-65500000D01*
X124000000Y-65750000D02*
X124250000Y-65500000D01*
X144730000Y-63105000D02*
X141705000Y-63105000D01*
X141705000Y-63105000D02*
X141600000Y-63000000D01*
X103960000Y-84500000D02*
X103960000Y-86210000D01*
X117950000Y-72200000D02*
X121700000Y-72200000D01*
X116250000Y-70500000D02*
X117950000Y-72200000D01*
X109500000Y-85750000D02*
X109500000Y-83250000D01*
X107750000Y-87500000D02*
X109500000Y-85750000D01*
X105250000Y-87500000D02*
X107750000Y-87500000D01*
X103960000Y-86210000D02*
X105250000Y-87500000D01*
G36*
X82933608Y-78954819D02*
X83170202Y-79116477D01*
X83451050Y-79173350D01*
X85851350Y-79173350D01*
X85892000Y-79165701D01*
X85892000Y-81250000D01*
X85976341Y-81674014D01*
X86216526Y-82033474D01*
X89466526Y-85283474D01*
X89825986Y-85523659D01*
X90250000Y-85608000D01*
X92562115Y-85608000D01*
X92688711Y-85797464D01*
X93198575Y-86138144D01*
X93800000Y-86257775D01*
X94401425Y-86138144D01*
X94911289Y-85797464D01*
X95070000Y-85559936D01*
X95228711Y-85797464D01*
X95738575Y-86138144D01*
X96340000Y-86257775D01*
X96941425Y-86138144D01*
X97451289Y-85797464D01*
X97610000Y-85559936D01*
X97768711Y-85797464D01*
X98278575Y-86138144D01*
X98880000Y-86257775D01*
X99481425Y-86138144D01*
X99991289Y-85797464D01*
X100150000Y-85559936D01*
X100308711Y-85797464D01*
X100818575Y-86138144D01*
X101420000Y-86257775D01*
X102021425Y-86138144D01*
X102531289Y-85797464D01*
X102690000Y-85559936D01*
X102848711Y-85797464D01*
X103052000Y-85933297D01*
X103052000Y-86210000D01*
X103121117Y-86557477D01*
X103317947Y-86852053D01*
X104607947Y-88142053D01*
X104902523Y-88338883D01*
X105250000Y-88408000D01*
X107750000Y-88408000D01*
X108097477Y-88338883D01*
X108392053Y-88142053D01*
X110142053Y-86392053D01*
X110231775Y-86257775D01*
X110338883Y-86097477D01*
X110408000Y-85750000D01*
X110408000Y-84050464D01*
X110523495Y-83935170D01*
X110707790Y-83491340D01*
X110708209Y-83010768D01*
X110524690Y-82566617D01*
X110366349Y-82408000D01*
X110750000Y-82408000D01*
X111097477Y-82338883D01*
X111392053Y-82142053D01*
X112642053Y-80892053D01*
X112663222Y-80860371D01*
X112838883Y-80597477D01*
X112908000Y-80250000D01*
X112908000Y-80171870D01*
X113075000Y-80171870D01*
X113204589Y-80147486D01*
X113325000Y-80171870D01*
X113875000Y-80171870D01*
X114004589Y-80147486D01*
X114125000Y-80171870D01*
X114675000Y-80171870D01*
X114804589Y-80147486D01*
X114925000Y-80171870D01*
X115092000Y-80171870D01*
X115092000Y-87000000D01*
X115161117Y-87347477D01*
X115357947Y-87642053D01*
X117015894Y-89300000D01*
X94000000Y-89300000D01*
X93922189Y-89315757D01*
X93856638Y-89360546D01*
X93813678Y-89427309D01*
X93800000Y-89500000D01*
X93800000Y-101800000D01*
X66851911Y-101800000D01*
X66864997Y-101780848D01*
X66921870Y-101500000D01*
X66921870Y-101358000D01*
X68768340Y-101358000D01*
X69008660Y-101457790D01*
X69489232Y-101458209D01*
X69933383Y-101274690D01*
X70273495Y-100935170D01*
X70374128Y-100692821D01*
X71533474Y-99533475D01*
X71533476Y-99533472D01*
X71658469Y-99408479D01*
X71658475Y-99408475D01*
X71658479Y-99408469D01*
X72684948Y-98382000D01*
X77026000Y-98382000D01*
X77026000Y-99053830D01*
X77133787Y-99314050D01*
X77332950Y-99513213D01*
X77593170Y-99621000D01*
X78519000Y-99621000D01*
X78696000Y-99444000D01*
X78696000Y-98205000D01*
X78804000Y-98205000D01*
X78804000Y-99444000D01*
X78981000Y-99621000D01*
X79906830Y-99621000D01*
X80167050Y-99513213D01*
X80366213Y-99314050D01*
X80474000Y-99053830D01*
X80474000Y-98382000D01*
X80297000Y-98205000D01*
X78804000Y-98205000D01*
X78696000Y-98205000D01*
X77203000Y-98205000D01*
X77026000Y-98382000D01*
X72684948Y-98382000D01*
X73408474Y-97658475D01*
X73408476Y-97658472D01*
X73818778Y-97248170D01*
X77026000Y-97248170D01*
X77026000Y-97920000D01*
X77203000Y-98097000D01*
X78696000Y-98097000D01*
X78696000Y-96858000D01*
X78804000Y-96858000D01*
X78804000Y-98097000D01*
X80297000Y-98097000D01*
X80474000Y-97920000D01*
X80474000Y-97248170D01*
X80366213Y-96987950D01*
X80167050Y-96788787D01*
X79906830Y-96681000D01*
X78981000Y-96681000D01*
X78804000Y-96858000D01*
X78696000Y-96858000D01*
X78519000Y-96681000D01*
X77593170Y-96681000D01*
X77332950Y-96788787D01*
X77133787Y-96987950D01*
X77026000Y-97248170D01*
X73818778Y-97248170D01*
X74408475Y-96658474D01*
X74408477Y-96658471D01*
X77020302Y-94046646D01*
X77012130Y-94087000D01*
X77012130Y-95611000D01*
X77061498Y-95873369D01*
X77216558Y-96114339D01*
X77453152Y-96275997D01*
X77734000Y-96332870D01*
X79766000Y-96332870D01*
X80028369Y-96283502D01*
X80269339Y-96128442D01*
X80430997Y-95891848D01*
X80487870Y-95611000D01*
X80487870Y-94087000D01*
X80438502Y-93824631D01*
X80283442Y-93583661D01*
X80046848Y-93422003D01*
X79983822Y-93409240D01*
X82904279Y-93409240D01*
X82933608Y-93454819D01*
X83170202Y-93616477D01*
X83451050Y-93673350D01*
X85851350Y-93673350D01*
X86113719Y-93623982D01*
X86354689Y-93468922D01*
X86516347Y-93232328D01*
X86573220Y-92951480D01*
X86573220Y-91651000D01*
X86523852Y-91388631D01*
X86368792Y-91147661D01*
X86368503Y-91147464D01*
X86422624Y-91068255D01*
X86758660Y-91207790D01*
X87239232Y-91208209D01*
X87683383Y-91024690D01*
X88023495Y-90685170D01*
X88207790Y-90241340D01*
X88208209Y-89760768D01*
X88024690Y-89316617D01*
X87685170Y-88976505D01*
X87241340Y-88792210D01*
X86760768Y-88791791D01*
X86423351Y-88931208D01*
X86368792Y-88846421D01*
X86360712Y-88840901D01*
X86451563Y-88750050D01*
X86559350Y-88489830D01*
X86559350Y-88200410D01*
X89027110Y-88200410D01*
X89027110Y-91799590D01*
X89076478Y-92061959D01*
X89231538Y-92302929D01*
X89468132Y-92464587D01*
X89748980Y-92521460D01*
X91948620Y-92521460D01*
X92210989Y-92472092D01*
X92451959Y-92317032D01*
X92613617Y-92080438D01*
X92670490Y-91799590D01*
X92670490Y-88200410D01*
X92621122Y-87938041D01*
X92466062Y-87697071D01*
X92229468Y-87535413D01*
X91948620Y-87478540D01*
X89748980Y-87478540D01*
X89486611Y-87527908D01*
X89245641Y-87682968D01*
X89083983Y-87919562D01*
X89027110Y-88200410D01*
X86559350Y-88200410D01*
X86559350Y-87929760D01*
X86382350Y-87752760D01*
X84705200Y-87752760D01*
X84705200Y-87772760D01*
X84597200Y-87772760D01*
X84597200Y-87752760D01*
X82920050Y-87752760D01*
X82743050Y-87929760D01*
X82743050Y-88489830D01*
X82850837Y-88750050D01*
X82941782Y-88840995D01*
X82804441Y-89042000D01*
X82750551Y-89042000D01*
X82685170Y-88976505D01*
X82241340Y-88792210D01*
X81760768Y-88791791D01*
X81316617Y-88975310D01*
X81249811Y-89042000D01*
X80469618Y-89042000D01*
X80438502Y-88876631D01*
X80283442Y-88635661D01*
X80046848Y-88474003D01*
X79766000Y-88417130D01*
X77734000Y-88417130D01*
X77471631Y-88466498D01*
X77230661Y-88621558D01*
X77069003Y-88858152D01*
X77012130Y-89139000D01*
X77012130Y-90663000D01*
X77061498Y-90925369D01*
X77216558Y-91166339D01*
X77255929Y-91193240D01*
X77198760Y-91193240D01*
X76774746Y-91277581D01*
X76415286Y-91517766D01*
X75983000Y-91950052D01*
X75983000Y-86830000D01*
X77026000Y-86830000D01*
X77026000Y-87501830D01*
X77133787Y-87762050D01*
X77332950Y-87961213D01*
X77593170Y-88069000D01*
X78519000Y-88069000D01*
X78696000Y-87892000D01*
X78696000Y-86653000D01*
X78804000Y-86653000D01*
X78804000Y-87892000D01*
X78981000Y-88069000D01*
X79906830Y-88069000D01*
X80167050Y-87961213D01*
X80366213Y-87762050D01*
X80474000Y-87501830D01*
X80474000Y-86907690D01*
X82743050Y-86907690D01*
X82743050Y-87467760D01*
X82920050Y-87644760D01*
X84597200Y-87644760D01*
X84597200Y-86517520D01*
X84705200Y-86517520D01*
X84705200Y-87644760D01*
X86382350Y-87644760D01*
X86559350Y-87467760D01*
X86559350Y-86907690D01*
X86451563Y-86647470D01*
X86252400Y-86448307D01*
X85992180Y-86340520D01*
X84882200Y-86340520D01*
X84705200Y-86517520D01*
X84597200Y-86517520D01*
X84420200Y-86340520D01*
X83310220Y-86340520D01*
X83050000Y-86448307D01*
X82850837Y-86647470D01*
X82743050Y-86907690D01*
X80474000Y-86907690D01*
X80474000Y-86830000D01*
X80297000Y-86653000D01*
X78804000Y-86653000D01*
X78696000Y-86653000D01*
X77203000Y-86653000D01*
X77026000Y-86830000D01*
X75983000Y-86830000D01*
X75983000Y-85696170D01*
X77026000Y-85696170D01*
X77026000Y-86368000D01*
X77203000Y-86545000D01*
X78696000Y-86545000D01*
X78696000Y-85306000D01*
X78804000Y-85306000D01*
X78804000Y-86545000D01*
X80297000Y-86545000D01*
X80474000Y-86368000D01*
X80474000Y-85696170D01*
X80366213Y-85435950D01*
X80167050Y-85236787D01*
X79906830Y-85129000D01*
X78981000Y-85129000D01*
X78804000Y-85306000D01*
X78696000Y-85306000D01*
X78519000Y-85129000D01*
X77593170Y-85129000D01*
X77332950Y-85236787D01*
X77133787Y-85435950D01*
X77026000Y-85696170D01*
X75983000Y-85696170D01*
X75983000Y-83882000D01*
X77026000Y-83882000D01*
X77026000Y-84553830D01*
X77133787Y-84814050D01*
X77332950Y-85013213D01*
X77593170Y-85121000D01*
X78519000Y-85121000D01*
X78696000Y-84944000D01*
X78696000Y-83705000D01*
X78804000Y-83705000D01*
X78804000Y-84944000D01*
X78981000Y-85121000D01*
X79906830Y-85121000D01*
X80167050Y-85013213D01*
X80366213Y-84814050D01*
X80474000Y-84553830D01*
X80474000Y-83882000D01*
X80297000Y-83705000D01*
X78804000Y-83705000D01*
X78696000Y-83705000D01*
X77203000Y-83705000D01*
X77026000Y-83882000D01*
X75983000Y-83882000D01*
X75983000Y-82748170D01*
X77026000Y-82748170D01*
X77026000Y-83420000D01*
X77203000Y-83597000D01*
X78696000Y-83597000D01*
X78696000Y-82358000D01*
X78804000Y-82358000D01*
X78804000Y-83597000D01*
X80297000Y-83597000D01*
X80474000Y-83420000D01*
X80474000Y-82748170D01*
X80366213Y-82487950D01*
X80167050Y-82288787D01*
X79906830Y-82181000D01*
X78981000Y-82181000D01*
X78804000Y-82358000D01*
X78696000Y-82358000D01*
X78519000Y-82181000D01*
X77593170Y-82181000D01*
X77332950Y-82288787D01*
X77133787Y-82487950D01*
X77026000Y-82748170D01*
X75983000Y-82748170D01*
X75983000Y-81083948D01*
X77012130Y-80054818D01*
X77012130Y-81111000D01*
X77061498Y-81373369D01*
X77216558Y-81614339D01*
X77453152Y-81775997D01*
X77734000Y-81832870D01*
X79766000Y-81832870D01*
X80028369Y-81783502D01*
X80269339Y-81628442D01*
X80430997Y-81391848D01*
X80487870Y-81111000D01*
X80487870Y-79587000D01*
X80438502Y-79324631D01*
X80283442Y-79083661D01*
X80046848Y-78922003D01*
X79983822Y-78909240D01*
X82904279Y-78909240D01*
X82933608Y-78954819D01*
X82933608Y-78954819D01*
G37*
X82933608Y-78954819D02*
X83170202Y-79116477D01*
X83451050Y-79173350D01*
X85851350Y-79173350D01*
X85892000Y-79165701D01*
X85892000Y-81250000D01*
X85976341Y-81674014D01*
X86216526Y-82033474D01*
X89466526Y-85283474D01*
X89825986Y-85523659D01*
X90250000Y-85608000D01*
X92562115Y-85608000D01*
X92688711Y-85797464D01*
X93198575Y-86138144D01*
X93800000Y-86257775D01*
X94401425Y-86138144D01*
X94911289Y-85797464D01*
X95070000Y-85559936D01*
X95228711Y-85797464D01*
X95738575Y-86138144D01*
X96340000Y-86257775D01*
X96941425Y-86138144D01*
X97451289Y-85797464D01*
X97610000Y-85559936D01*
X97768711Y-85797464D01*
X98278575Y-86138144D01*
X98880000Y-86257775D01*
X99481425Y-86138144D01*
X99991289Y-85797464D01*
X100150000Y-85559936D01*
X100308711Y-85797464D01*
X100818575Y-86138144D01*
X101420000Y-86257775D01*
X102021425Y-86138144D01*
X102531289Y-85797464D01*
X102690000Y-85559936D01*
X102848711Y-85797464D01*
X103052000Y-85933297D01*
X103052000Y-86210000D01*
X103121117Y-86557477D01*
X103317947Y-86852053D01*
X104607947Y-88142053D01*
X104902523Y-88338883D01*
X105250000Y-88408000D01*
X107750000Y-88408000D01*
X108097477Y-88338883D01*
X108392053Y-88142053D01*
X110142053Y-86392053D01*
X110231775Y-86257775D01*
X110338883Y-86097477D01*
X110408000Y-85750000D01*
X110408000Y-84050464D01*
X110523495Y-83935170D01*
X110707790Y-83491340D01*
X110708209Y-83010768D01*
X110524690Y-82566617D01*
X110366349Y-82408000D01*
X110750000Y-82408000D01*
X111097477Y-82338883D01*
X111392053Y-82142053D01*
X112642053Y-80892053D01*
X112663222Y-80860371D01*
X112838883Y-80597477D01*
X112908000Y-80250000D01*
X112908000Y-80171870D01*
X113075000Y-80171870D01*
X113204589Y-80147486D01*
X113325000Y-80171870D01*
X113875000Y-80171870D01*
X114004589Y-80147486D01*
X114125000Y-80171870D01*
X114675000Y-80171870D01*
X114804589Y-80147486D01*
X114925000Y-80171870D01*
X115092000Y-80171870D01*
X115092000Y-87000000D01*
X115161117Y-87347477D01*
X115357947Y-87642053D01*
X117015894Y-89300000D01*
X94000000Y-89300000D01*
X93922189Y-89315757D01*
X93856638Y-89360546D01*
X93813678Y-89427309D01*
X93800000Y-89500000D01*
X93800000Y-101800000D01*
X66851911Y-101800000D01*
X66864997Y-101780848D01*
X66921870Y-101500000D01*
X66921870Y-101358000D01*
X68768340Y-101358000D01*
X69008660Y-101457790D01*
X69489232Y-101458209D01*
X69933383Y-101274690D01*
X70273495Y-100935170D01*
X70374128Y-100692821D01*
X71533474Y-99533475D01*
X71533476Y-99533472D01*
X71658469Y-99408479D01*
X71658475Y-99408475D01*
X71658479Y-99408469D01*
X72684948Y-98382000D01*
X77026000Y-98382000D01*
X77026000Y-99053830D01*
X77133787Y-99314050D01*
X77332950Y-99513213D01*
X77593170Y-99621000D01*
X78519000Y-99621000D01*
X78696000Y-99444000D01*
X78696000Y-98205000D01*
X78804000Y-98205000D01*
X78804000Y-99444000D01*
X78981000Y-99621000D01*
X79906830Y-99621000D01*
X80167050Y-99513213D01*
X80366213Y-99314050D01*
X80474000Y-99053830D01*
X80474000Y-98382000D01*
X80297000Y-98205000D01*
X78804000Y-98205000D01*
X78696000Y-98205000D01*
X77203000Y-98205000D01*
X77026000Y-98382000D01*
X72684948Y-98382000D01*
X73408474Y-97658475D01*
X73408476Y-97658472D01*
X73818778Y-97248170D01*
X77026000Y-97248170D01*
X77026000Y-97920000D01*
X77203000Y-98097000D01*
X78696000Y-98097000D01*
X78696000Y-96858000D01*
X78804000Y-96858000D01*
X78804000Y-98097000D01*
X80297000Y-98097000D01*
X80474000Y-97920000D01*
X80474000Y-97248170D01*
X80366213Y-96987950D01*
X80167050Y-96788787D01*
X79906830Y-96681000D01*
X78981000Y-96681000D01*
X78804000Y-96858000D01*
X78696000Y-96858000D01*
X78519000Y-96681000D01*
X77593170Y-96681000D01*
X77332950Y-96788787D01*
X77133787Y-96987950D01*
X77026000Y-97248170D01*
X73818778Y-97248170D01*
X74408475Y-96658474D01*
X74408477Y-96658471D01*
X77020302Y-94046646D01*
X77012130Y-94087000D01*
X77012130Y-95611000D01*
X77061498Y-95873369D01*
X77216558Y-96114339D01*
X77453152Y-96275997D01*
X77734000Y-96332870D01*
X79766000Y-96332870D01*
X80028369Y-96283502D01*
X80269339Y-96128442D01*
X80430997Y-95891848D01*
X80487870Y-95611000D01*
X80487870Y-94087000D01*
X80438502Y-93824631D01*
X80283442Y-93583661D01*
X80046848Y-93422003D01*
X79983822Y-93409240D01*
X82904279Y-93409240D01*
X82933608Y-93454819D01*
X83170202Y-93616477D01*
X83451050Y-93673350D01*
X85851350Y-93673350D01*
X86113719Y-93623982D01*
X86354689Y-93468922D01*
X86516347Y-93232328D01*
X86573220Y-92951480D01*
X86573220Y-91651000D01*
X86523852Y-91388631D01*
X86368792Y-91147661D01*
X86368503Y-91147464D01*
X86422624Y-91068255D01*
X86758660Y-91207790D01*
X87239232Y-91208209D01*
X87683383Y-91024690D01*
X88023495Y-90685170D01*
X88207790Y-90241340D01*
X88208209Y-89760768D01*
X88024690Y-89316617D01*
X87685170Y-88976505D01*
X87241340Y-88792210D01*
X86760768Y-88791791D01*
X86423351Y-88931208D01*
X86368792Y-88846421D01*
X86360712Y-88840901D01*
X86451563Y-88750050D01*
X86559350Y-88489830D01*
X86559350Y-88200410D01*
X89027110Y-88200410D01*
X89027110Y-91799590D01*
X89076478Y-92061959D01*
X89231538Y-92302929D01*
X89468132Y-92464587D01*
X89748980Y-92521460D01*
X91948620Y-92521460D01*
X92210989Y-92472092D01*
X92451959Y-92317032D01*
X92613617Y-92080438D01*
X92670490Y-91799590D01*
X92670490Y-88200410D01*
X92621122Y-87938041D01*
X92466062Y-87697071D01*
X92229468Y-87535413D01*
X91948620Y-87478540D01*
X89748980Y-87478540D01*
X89486611Y-87527908D01*
X89245641Y-87682968D01*
X89083983Y-87919562D01*
X89027110Y-88200410D01*
X86559350Y-88200410D01*
X86559350Y-87929760D01*
X86382350Y-87752760D01*
X84705200Y-87752760D01*
X84705200Y-87772760D01*
X84597200Y-87772760D01*
X84597200Y-87752760D01*
X82920050Y-87752760D01*
X82743050Y-87929760D01*
X82743050Y-88489830D01*
X82850837Y-88750050D01*
X82941782Y-88840995D01*
X82804441Y-89042000D01*
X82750551Y-89042000D01*
X82685170Y-88976505D01*
X82241340Y-88792210D01*
X81760768Y-88791791D01*
X81316617Y-88975310D01*
X81249811Y-89042000D01*
X80469618Y-89042000D01*
X80438502Y-88876631D01*
X80283442Y-88635661D01*
X80046848Y-88474003D01*
X79766000Y-88417130D01*
X77734000Y-88417130D01*
X77471631Y-88466498D01*
X77230661Y-88621558D01*
X77069003Y-88858152D01*
X77012130Y-89139000D01*
X77012130Y-90663000D01*
X77061498Y-90925369D01*
X77216558Y-91166339D01*
X77255929Y-91193240D01*
X77198760Y-91193240D01*
X76774746Y-91277581D01*
X76415286Y-91517766D01*
X75983000Y-91950052D01*
X75983000Y-86830000D01*
X77026000Y-86830000D01*
X77026000Y-87501830D01*
X77133787Y-87762050D01*
X77332950Y-87961213D01*
X77593170Y-88069000D01*
X78519000Y-88069000D01*
X78696000Y-87892000D01*
X78696000Y-86653000D01*
X78804000Y-86653000D01*
X78804000Y-87892000D01*
X78981000Y-88069000D01*
X79906830Y-88069000D01*
X80167050Y-87961213D01*
X80366213Y-87762050D01*
X80474000Y-87501830D01*
X80474000Y-86907690D01*
X82743050Y-86907690D01*
X82743050Y-87467760D01*
X82920050Y-87644760D01*
X84597200Y-87644760D01*
X84597200Y-86517520D01*
X84705200Y-86517520D01*
X84705200Y-87644760D01*
X86382350Y-87644760D01*
X86559350Y-87467760D01*
X86559350Y-86907690D01*
X86451563Y-86647470D01*
X86252400Y-86448307D01*
X85992180Y-86340520D01*
X84882200Y-86340520D01*
X84705200Y-86517520D01*
X84597200Y-86517520D01*
X84420200Y-86340520D01*
X83310220Y-86340520D01*
X83050000Y-86448307D01*
X82850837Y-86647470D01*
X82743050Y-86907690D01*
X80474000Y-86907690D01*
X80474000Y-86830000D01*
X80297000Y-86653000D01*
X78804000Y-86653000D01*
X78696000Y-86653000D01*
X77203000Y-86653000D01*
X77026000Y-86830000D01*
X75983000Y-86830000D01*
X75983000Y-85696170D01*
X77026000Y-85696170D01*
X77026000Y-86368000D01*
X77203000Y-86545000D01*
X78696000Y-86545000D01*
X78696000Y-85306000D01*
X78804000Y-85306000D01*
X78804000Y-86545000D01*
X80297000Y-86545000D01*
X80474000Y-86368000D01*
X80474000Y-85696170D01*
X80366213Y-85435950D01*
X80167050Y-85236787D01*
X79906830Y-85129000D01*
X78981000Y-85129000D01*
X78804000Y-85306000D01*
X78696000Y-85306000D01*
X78519000Y-85129000D01*
X77593170Y-85129000D01*
X77332950Y-85236787D01*
X77133787Y-85435950D01*
X77026000Y-85696170D01*
X75983000Y-85696170D01*
X75983000Y-83882000D01*
X77026000Y-83882000D01*
X77026000Y-84553830D01*
X77133787Y-84814050D01*
X77332950Y-85013213D01*
X77593170Y-85121000D01*
X78519000Y-85121000D01*
X78696000Y-84944000D01*
X78696000Y-83705000D01*
X78804000Y-83705000D01*
X78804000Y-84944000D01*
X78981000Y-85121000D01*
X79906830Y-85121000D01*
X80167050Y-85013213D01*
X80366213Y-84814050D01*
X80474000Y-84553830D01*
X80474000Y-83882000D01*
X80297000Y-83705000D01*
X78804000Y-83705000D01*
X78696000Y-83705000D01*
X77203000Y-83705000D01*
X77026000Y-83882000D01*
X75983000Y-83882000D01*
X75983000Y-82748170D01*
X77026000Y-82748170D01*
X77026000Y-83420000D01*
X77203000Y-83597000D01*
X78696000Y-83597000D01*
X78696000Y-82358000D01*
X78804000Y-82358000D01*
X78804000Y-83597000D01*
X80297000Y-83597000D01*
X80474000Y-83420000D01*
X80474000Y-82748170D01*
X80366213Y-82487950D01*
X80167050Y-82288787D01*
X79906830Y-82181000D01*
X78981000Y-82181000D01*
X78804000Y-82358000D01*
X78696000Y-82358000D01*
X78519000Y-82181000D01*
X77593170Y-82181000D01*
X77332950Y-82288787D01*
X77133787Y-82487950D01*
X77026000Y-82748170D01*
X75983000Y-82748170D01*
X75983000Y-81083948D01*
X77012130Y-80054818D01*
X77012130Y-81111000D01*
X77061498Y-81373369D01*
X77216558Y-81614339D01*
X77453152Y-81775997D01*
X77734000Y-81832870D01*
X79766000Y-81832870D01*
X80028369Y-81783502D01*
X80269339Y-81628442D01*
X80430997Y-81391848D01*
X80487870Y-81111000D01*
X80487870Y-79587000D01*
X80438502Y-79324631D01*
X80283442Y-79083661D01*
X80046848Y-78922003D01*
X79983822Y-78909240D01*
X82904279Y-78909240D01*
X82933608Y-78954819D01*
G36*
X83157947Y-70442053D02*
X83452523Y-70638883D01*
X83800000Y-70708000D01*
X108828130Y-70708000D01*
X108828130Y-70875000D01*
X108852514Y-71004589D01*
X108828130Y-71125000D01*
X108828130Y-71675000D01*
X108852514Y-71804589D01*
X108828130Y-71925000D01*
X108828130Y-72475000D01*
X108852514Y-72604589D01*
X108828130Y-72725000D01*
X108828130Y-73275000D01*
X108846588Y-73373094D01*
X108842000Y-73384170D01*
X108842000Y-73569000D01*
X108915000Y-73642000D01*
X102291094Y-73642000D01*
X102333000Y-73540830D01*
X102333000Y-73031000D01*
X102156000Y-72854000D01*
X101304000Y-72854000D01*
X101304000Y-72874000D01*
X101196000Y-72874000D01*
X101196000Y-72854000D01*
X100344000Y-72854000D01*
X100167000Y-73031000D01*
X100167000Y-73540830D01*
X100208906Y-73642000D01*
X95246816Y-73642000D01*
X93663986Y-72059170D01*
X100167000Y-72059170D01*
X100167000Y-72569000D01*
X100344000Y-72746000D01*
X101196000Y-72746000D01*
X101196000Y-71669000D01*
X101304000Y-71669000D01*
X101304000Y-72746000D01*
X102156000Y-72746000D01*
X102333000Y-72569000D01*
X102333000Y-72059170D01*
X102225213Y-71798950D01*
X102026050Y-71599787D01*
X101765830Y-71492000D01*
X101481000Y-71492000D01*
X101304000Y-71669000D01*
X101196000Y-71669000D01*
X101019000Y-71492000D01*
X100734170Y-71492000D01*
X100473950Y-71599787D01*
X100274787Y-71798950D01*
X100167000Y-72059170D01*
X93663986Y-72059170D01*
X93177408Y-71572592D01*
X92866611Y-71364923D01*
X92500000Y-71292000D01*
X89750551Y-71292000D01*
X89685170Y-71226505D01*
X89241340Y-71042210D01*
X88760768Y-71041791D01*
X88316617Y-71225310D01*
X87976505Y-71564830D01*
X87792210Y-72008660D01*
X87791791Y-72489232D01*
X87975310Y-72933383D01*
X88042000Y-73000189D01*
X88042000Y-73853184D01*
X87353184Y-74542000D01*
X86494644Y-74542000D01*
X86368792Y-74346421D01*
X86360712Y-74340901D01*
X86451563Y-74250050D01*
X86559350Y-73989830D01*
X86559350Y-73429760D01*
X86382350Y-73252760D01*
X84705200Y-73252760D01*
X84705200Y-73272760D01*
X84597200Y-73272760D01*
X84597200Y-73252760D01*
X82920050Y-73252760D01*
X82743050Y-73429760D01*
X82743050Y-73989830D01*
X82850837Y-74250050D01*
X82941782Y-74340995D01*
X82804441Y-74542000D01*
X79708000Y-74542000D01*
X79708000Y-74134870D01*
X79766000Y-74134870D01*
X80028369Y-74085502D01*
X80269339Y-73930442D01*
X80430997Y-73693848D01*
X80487870Y-73413000D01*
X80487870Y-72407690D01*
X82743050Y-72407690D01*
X82743050Y-72967760D01*
X82920050Y-73144760D01*
X84597200Y-73144760D01*
X84597200Y-72017520D01*
X84705200Y-72017520D01*
X84705200Y-73144760D01*
X86382350Y-73144760D01*
X86559350Y-72967760D01*
X86559350Y-72407690D01*
X86451563Y-72147470D01*
X86252400Y-71948307D01*
X85992180Y-71840520D01*
X84882200Y-71840520D01*
X84705200Y-72017520D01*
X84597200Y-72017520D01*
X84420200Y-71840520D01*
X83310220Y-71840520D01*
X83050000Y-71948307D01*
X82850837Y-72147470D01*
X82743050Y-72407690D01*
X80487870Y-72407690D01*
X80487870Y-71889000D01*
X80438502Y-71626631D01*
X80283442Y-71385661D01*
X80046848Y-71224003D01*
X79766000Y-71167130D01*
X77734000Y-71167130D01*
X77471631Y-71216498D01*
X77230661Y-71371558D01*
X77069003Y-71608152D01*
X77012130Y-71889000D01*
X77012130Y-73413000D01*
X77061498Y-73675369D01*
X77216558Y-73916339D01*
X77453152Y-74077997D01*
X77734000Y-74134870D01*
X77792000Y-74134870D01*
X77792000Y-74542000D01*
X69250551Y-74542000D01*
X69185170Y-74476505D01*
X68741340Y-74292210D01*
X68260768Y-74291791D01*
X67816617Y-74475310D01*
X67476505Y-74814830D01*
X67292210Y-75258660D01*
X67291791Y-75739232D01*
X67475310Y-76183383D01*
X67814830Y-76523495D01*
X68258660Y-76707790D01*
X68739232Y-76708209D01*
X69183383Y-76524690D01*
X69250189Y-76458000D01*
X82807756Y-76458000D01*
X82933608Y-76653579D01*
X82933897Y-76653776D01*
X82906932Y-76693240D01*
X77698760Y-76693240D01*
X77274746Y-76777581D01*
X76915286Y-77017765D01*
X74091526Y-79841526D01*
X73851341Y-80200986D01*
X73796026Y-80479078D01*
X73533477Y-80216529D01*
X73533475Y-80216526D01*
X72533474Y-79216526D01*
X72174014Y-78976341D01*
X71750000Y-78892000D01*
X70879280Y-78892000D01*
X70571365Y-78431172D01*
X70098171Y-78114994D01*
X69540000Y-78003967D01*
X68981829Y-78114994D01*
X68508635Y-78431172D01*
X68261021Y-78801753D01*
X67993181Y-78431342D01*
X67508281Y-78132683D01*
X67281349Y-78069713D01*
X67054000Y-78220458D01*
X67054000Y-79946000D01*
X67074000Y-79946000D01*
X67074000Y-80054000D01*
X67054000Y-80054000D01*
X67054000Y-81779542D01*
X67281349Y-81930287D01*
X67508281Y-81867317D01*
X67993181Y-81568658D01*
X68261021Y-81198247D01*
X68508635Y-81568828D01*
X68981829Y-81885006D01*
X69540000Y-81996033D01*
X70098171Y-81885006D01*
X70571365Y-81568828D01*
X70879280Y-81108000D01*
X71291052Y-81108000D01*
X71966526Y-81783475D01*
X71966529Y-81783477D01*
X73767000Y-83583948D01*
X73767000Y-90096038D01*
X73515830Y-89992000D01*
X73231000Y-89992000D01*
X73054000Y-90169000D01*
X73054000Y-91246000D01*
X73074000Y-91246000D01*
X73074000Y-91354000D01*
X73054000Y-91354000D01*
X73054000Y-91374000D01*
X72946000Y-91374000D01*
X72946000Y-91354000D01*
X72094000Y-91354000D01*
X71917000Y-91531000D01*
X71917000Y-92040830D01*
X72005004Y-92253290D01*
X71960003Y-92319152D01*
X71903130Y-92600000D01*
X71903130Y-93144045D01*
X71892000Y-93200000D01*
X71892000Y-94575051D01*
X71358000Y-94041052D01*
X71358000Y-93200000D01*
X71346870Y-93144045D01*
X71346870Y-92600000D01*
X71297502Y-92337631D01*
X71244304Y-92254960D01*
X71333000Y-92040830D01*
X71333000Y-91531000D01*
X71156000Y-91354000D01*
X70304000Y-91354000D01*
X70304000Y-91374000D01*
X70196000Y-91374000D01*
X70196000Y-91354000D01*
X69344000Y-91354000D01*
X69167000Y-91531000D01*
X69167000Y-92040830D01*
X69255004Y-92253290D01*
X69210003Y-92319152D01*
X69153130Y-92600000D01*
X69153130Y-93144045D01*
X69142000Y-93200000D01*
X69142000Y-94500000D01*
X69226341Y-94924014D01*
X69466526Y-95283474D01*
X70966525Y-96783474D01*
X70966528Y-96783476D01*
X71058052Y-96875000D01*
X70875000Y-97058051D01*
X69033477Y-95216529D01*
X69033475Y-95216526D01*
X68358000Y-94541052D01*
X68358000Y-93200000D01*
X68346870Y-93144045D01*
X68346870Y-92600000D01*
X68297502Y-92337631D01*
X68244304Y-92254960D01*
X68333000Y-92040830D01*
X68333000Y-91531000D01*
X68156000Y-91354000D01*
X67304000Y-91354000D01*
X67304000Y-91374000D01*
X67196000Y-91374000D01*
X67196000Y-91354000D01*
X66344000Y-91354000D01*
X66167000Y-91531000D01*
X66167000Y-92040830D01*
X66255004Y-92253290D01*
X66210003Y-92319152D01*
X66153130Y-92600000D01*
X66153130Y-93144045D01*
X66142000Y-93200000D01*
X66142000Y-93642000D01*
X64741088Y-93642000D01*
X64730848Y-93635003D01*
X64450000Y-93578130D01*
X63250000Y-93578130D01*
X62987631Y-93627498D01*
X62746733Y-93782511D01*
X62530848Y-93635003D01*
X62250000Y-93578130D01*
X61050000Y-93578130D01*
X60787631Y-93627498D01*
X60546661Y-93782558D01*
X60506046Y-93842000D01*
X60246617Y-93842000D01*
X60217442Y-93796661D01*
X59980848Y-93635003D01*
X59700000Y-93578130D01*
X58500000Y-93578130D01*
X58237631Y-93627498D01*
X57996661Y-93782558D01*
X57991449Y-93790186D01*
X57901050Y-93699787D01*
X57640830Y-93592000D01*
X57131000Y-93592000D01*
X56954000Y-93769000D01*
X56954000Y-94696000D01*
X56974000Y-94696000D01*
X56974000Y-94804000D01*
X56954000Y-94804000D01*
X56954000Y-95731000D01*
X57131000Y-95908000D01*
X57640830Y-95908000D01*
X57901050Y-95800213D01*
X57991687Y-95709576D01*
X58219152Y-95864997D01*
X58500000Y-95921870D01*
X59700000Y-95921870D01*
X59962369Y-95872502D01*
X60203339Y-95717442D01*
X60243954Y-95658000D01*
X60503383Y-95658000D01*
X60532558Y-95703339D01*
X60769152Y-95864997D01*
X61050000Y-95921870D01*
X62250000Y-95921870D01*
X62512369Y-95872502D01*
X62753267Y-95717489D01*
X62969152Y-95864997D01*
X63250000Y-95921870D01*
X64450000Y-95921870D01*
X64712369Y-95872502D01*
X64734906Y-95858000D01*
X66541052Y-95858000D01*
X67466526Y-96783475D01*
X67466529Y-96783477D01*
X68391369Y-97708317D01*
X68192822Y-97625873D01*
X67033474Y-96466526D01*
X66674014Y-96226341D01*
X66250000Y-96142000D01*
X59991088Y-96142000D01*
X59980848Y-96135003D01*
X59700000Y-96078130D01*
X58500000Y-96078130D01*
X58237631Y-96127498D01*
X57996661Y-96282558D01*
X57991449Y-96290186D01*
X57901050Y-96199787D01*
X57640830Y-96092000D01*
X57131000Y-96092000D01*
X56954000Y-96269000D01*
X56954000Y-97196000D01*
X56974000Y-97196000D01*
X56974000Y-97304000D01*
X56954000Y-97304000D01*
X56954000Y-98231000D01*
X57131000Y-98408000D01*
X57640830Y-98408000D01*
X57901050Y-98300213D01*
X57991687Y-98209576D01*
X58219152Y-98364997D01*
X58500000Y-98421870D01*
X59700000Y-98421870D01*
X59962369Y-98372502D01*
X59984906Y-98358000D01*
X60490230Y-98358000D01*
X60296661Y-98482558D01*
X60135003Y-98719152D01*
X60078130Y-99000000D01*
X60078130Y-99192000D01*
X58555822Y-99192000D01*
X58459052Y-99047173D01*
X57899746Y-98673457D01*
X57240000Y-98542225D01*
X56580254Y-98673457D01*
X56296391Y-98863128D01*
X56117050Y-98683787D01*
X55856830Y-98576000D01*
X54931000Y-98576000D01*
X54754000Y-98753000D01*
X54754000Y-100246000D01*
X54774000Y-100246000D01*
X54774000Y-100354000D01*
X54754000Y-100354000D01*
X54754000Y-100374000D01*
X54646000Y-100374000D01*
X54646000Y-100354000D01*
X54626000Y-100354000D01*
X54626000Y-100246000D01*
X54646000Y-100246000D01*
X54646000Y-98753000D01*
X54469000Y-98576000D01*
X53543170Y-98576000D01*
X53282950Y-98683787D01*
X53200000Y-98766737D01*
X53200000Y-97481000D01*
X55592000Y-97481000D01*
X55592000Y-97840830D01*
X55699787Y-98101050D01*
X55898950Y-98300213D01*
X56159170Y-98408000D01*
X56669000Y-98408000D01*
X56846000Y-98231000D01*
X56846000Y-97304000D01*
X55769000Y-97304000D01*
X55592000Y-97481000D01*
X53200000Y-97481000D01*
X53200000Y-96659170D01*
X55592000Y-96659170D01*
X55592000Y-97019000D01*
X55769000Y-97196000D01*
X56846000Y-97196000D01*
X56846000Y-96269000D01*
X56669000Y-96092000D01*
X56159170Y-96092000D01*
X55898950Y-96199787D01*
X55699787Y-96398950D01*
X55592000Y-96659170D01*
X53200000Y-96659170D01*
X53200000Y-94981000D01*
X55592000Y-94981000D01*
X55592000Y-95340830D01*
X55699787Y-95601050D01*
X55898950Y-95800213D01*
X56159170Y-95908000D01*
X56669000Y-95908000D01*
X56846000Y-95731000D01*
X56846000Y-94804000D01*
X55769000Y-94804000D01*
X55592000Y-94981000D01*
X53200000Y-94981000D01*
X53200000Y-94159170D01*
X55592000Y-94159170D01*
X55592000Y-94519000D01*
X55769000Y-94696000D01*
X56846000Y-94696000D01*
X56846000Y-93769000D01*
X56669000Y-93592000D01*
X56159170Y-93592000D01*
X55898950Y-93699787D01*
X55699787Y-93898950D01*
X55592000Y-94159170D01*
X53200000Y-94159170D01*
X53200000Y-90559170D01*
X66167000Y-90559170D01*
X66167000Y-91069000D01*
X66344000Y-91246000D01*
X67196000Y-91246000D01*
X67196000Y-90169000D01*
X67304000Y-90169000D01*
X67304000Y-91246000D01*
X68156000Y-91246000D01*
X68333000Y-91069000D01*
X68333000Y-90559170D01*
X69167000Y-90559170D01*
X69167000Y-91069000D01*
X69344000Y-91246000D01*
X70196000Y-91246000D01*
X70196000Y-90169000D01*
X70304000Y-90169000D01*
X70304000Y-91246000D01*
X71156000Y-91246000D01*
X71333000Y-91069000D01*
X71333000Y-90559170D01*
X71917000Y-90559170D01*
X71917000Y-91069000D01*
X72094000Y-91246000D01*
X72946000Y-91246000D01*
X72946000Y-90169000D01*
X72769000Y-89992000D01*
X72484170Y-89992000D01*
X72223950Y-90099787D01*
X72024787Y-90298950D01*
X71917000Y-90559170D01*
X71333000Y-90559170D01*
X71225213Y-90298950D01*
X71026050Y-90099787D01*
X70765830Y-89992000D01*
X70481000Y-89992000D01*
X70304000Y-90169000D01*
X70196000Y-90169000D01*
X70019000Y-89992000D01*
X69734170Y-89992000D01*
X69473950Y-90099787D01*
X69274787Y-90298950D01*
X69167000Y-90559170D01*
X68333000Y-90559170D01*
X68225213Y-90298950D01*
X68026050Y-90099787D01*
X67765830Y-89992000D01*
X67481000Y-89992000D01*
X67304000Y-90169000D01*
X67196000Y-90169000D01*
X67019000Y-89992000D01*
X66734170Y-89992000D01*
X66473950Y-90099787D01*
X66274787Y-90298950D01*
X66167000Y-90559170D01*
X53200000Y-90559170D01*
X53200000Y-88731000D01*
X53276000Y-88731000D01*
X53276000Y-89656830D01*
X53383787Y-89917050D01*
X53582950Y-90116213D01*
X53843170Y-90224000D01*
X54769000Y-90224000D01*
X54946000Y-90047000D01*
X54946000Y-88554000D01*
X55054000Y-88554000D01*
X55054000Y-90047000D01*
X55231000Y-90224000D01*
X56156830Y-90224000D01*
X56417050Y-90116213D01*
X56616213Y-89917050D01*
X56724000Y-89656830D01*
X56724000Y-88731000D01*
X56547000Y-88554000D01*
X55054000Y-88554000D01*
X54946000Y-88554000D01*
X53453000Y-88554000D01*
X53276000Y-88731000D01*
X53200000Y-88731000D01*
X53200000Y-84200000D01*
X55405184Y-84200000D01*
X55313536Y-84291648D01*
X55033775Y-84236000D01*
X54966225Y-84236000D01*
X54306479Y-84367232D01*
X53747173Y-84740948D01*
X53373457Y-85300254D01*
X53242225Y-85960000D01*
X53373457Y-86619746D01*
X53563128Y-86903609D01*
X53383787Y-87082950D01*
X53276000Y-87343170D01*
X53276000Y-88269000D01*
X53453000Y-88446000D01*
X54946000Y-88446000D01*
X54946000Y-88426000D01*
X55054000Y-88426000D01*
X55054000Y-88446000D01*
X56547000Y-88446000D01*
X56724000Y-88269000D01*
X56724000Y-87343170D01*
X56616213Y-87082950D01*
X56436872Y-86903609D01*
X56626543Y-86619746D01*
X56757775Y-85960000D01*
X56690920Y-85623896D01*
X56856816Y-85458000D01*
X63289380Y-85458000D01*
X63519152Y-85614997D01*
X63800000Y-85671870D01*
X65000000Y-85671870D01*
X65262369Y-85622502D01*
X65503267Y-85467489D01*
X65719152Y-85614997D01*
X66000000Y-85671870D01*
X67200000Y-85671870D01*
X67462369Y-85622502D01*
X67703339Y-85467442D01*
X67709790Y-85458000D01*
X68249449Y-85458000D01*
X68314830Y-85523495D01*
X68758660Y-85707790D01*
X69239232Y-85708209D01*
X69683383Y-85524690D01*
X70023495Y-85185170D01*
X70207790Y-84741340D01*
X70208209Y-84260768D01*
X70024690Y-83816617D01*
X69685170Y-83476505D01*
X69241340Y-83292210D01*
X68760768Y-83291791D01*
X68316617Y-83475310D01*
X68249811Y-83542000D01*
X67710620Y-83542000D01*
X67480848Y-83385003D01*
X67200000Y-83328130D01*
X66000000Y-83328130D01*
X65737631Y-83377498D01*
X65496733Y-83532511D01*
X65418000Y-83478715D01*
X65418000Y-81617849D01*
X65491365Y-81568828D01*
X65738979Y-81198247D01*
X66006819Y-81568658D01*
X66491719Y-81867317D01*
X66718651Y-81930287D01*
X66946000Y-81779542D01*
X66946000Y-80054000D01*
X66926000Y-80054000D01*
X66926000Y-79946000D01*
X66946000Y-79946000D01*
X66946000Y-78220458D01*
X66718651Y-78069713D01*
X66491719Y-78132683D01*
X66006819Y-78431342D01*
X65738979Y-78801753D01*
X65491365Y-78431172D01*
X65018171Y-78114994D01*
X64460000Y-78003967D01*
X63901829Y-78114994D01*
X63428635Y-78431172D01*
X63112457Y-78904366D01*
X63001430Y-79462537D01*
X63001430Y-80537463D01*
X63112457Y-81095634D01*
X63428635Y-81568828D01*
X63502000Y-81617849D01*
X63502000Y-83400426D01*
X63296661Y-83532558D01*
X63290210Y-83542000D01*
X58200000Y-83542000D01*
X58200000Y-81589847D01*
X58257607Y-81451114D01*
X58258391Y-80552826D01*
X58200000Y-80411509D01*
X58200000Y-78000000D01*
X58184243Y-77922189D01*
X58139454Y-77856638D01*
X58072691Y-77813678D01*
X58000000Y-77800000D01*
X53200000Y-77800000D01*
X53200000Y-70437494D01*
X53202536Y-70441289D01*
X53712400Y-70781969D01*
X54313825Y-70901600D01*
X54686175Y-70901600D01*
X55287600Y-70781969D01*
X55797464Y-70441289D01*
X55933297Y-70238000D01*
X74920000Y-70238000D01*
X75267477Y-70168883D01*
X75562053Y-69972053D01*
X75954106Y-69580000D01*
X77026000Y-69580000D01*
X77026000Y-70251830D01*
X77133787Y-70512050D01*
X77332950Y-70711213D01*
X77593170Y-70819000D01*
X78519000Y-70819000D01*
X78696000Y-70642000D01*
X78696000Y-69403000D01*
X78804000Y-69403000D01*
X78804000Y-70642000D01*
X78981000Y-70819000D01*
X79906830Y-70819000D01*
X80167050Y-70711213D01*
X80366213Y-70512050D01*
X80474000Y-70251830D01*
X80474000Y-69580000D01*
X80297000Y-69403000D01*
X78804000Y-69403000D01*
X78696000Y-69403000D01*
X77203000Y-69403000D01*
X77026000Y-69580000D01*
X75954106Y-69580000D01*
X77026000Y-68508106D01*
X77026000Y-69118000D01*
X77203000Y-69295000D01*
X78696000Y-69295000D01*
X78696000Y-69275000D01*
X78804000Y-69275000D01*
X78804000Y-69295000D01*
X80297000Y-69295000D01*
X80474000Y-69118000D01*
X80474000Y-68446170D01*
X80458189Y-68408000D01*
X81123894Y-68408000D01*
X83157947Y-70442053D01*
X83157947Y-70442053D01*
G37*
X83157947Y-70442053D02*
X83452523Y-70638883D01*
X83800000Y-70708000D01*
X108828130Y-70708000D01*
X108828130Y-70875000D01*
X108852514Y-71004589D01*
X108828130Y-71125000D01*
X108828130Y-71675000D01*
X108852514Y-71804589D01*
X108828130Y-71925000D01*
X108828130Y-72475000D01*
X108852514Y-72604589D01*
X108828130Y-72725000D01*
X108828130Y-73275000D01*
X108846588Y-73373094D01*
X108842000Y-73384170D01*
X108842000Y-73569000D01*
X108915000Y-73642000D01*
X102291094Y-73642000D01*
X102333000Y-73540830D01*
X102333000Y-73031000D01*
X102156000Y-72854000D01*
X101304000Y-72854000D01*
X101304000Y-72874000D01*
X101196000Y-72874000D01*
X101196000Y-72854000D01*
X100344000Y-72854000D01*
X100167000Y-73031000D01*
X100167000Y-73540830D01*
X100208906Y-73642000D01*
X95246816Y-73642000D01*
X93663986Y-72059170D01*
X100167000Y-72059170D01*
X100167000Y-72569000D01*
X100344000Y-72746000D01*
X101196000Y-72746000D01*
X101196000Y-71669000D01*
X101304000Y-71669000D01*
X101304000Y-72746000D01*
X102156000Y-72746000D01*
X102333000Y-72569000D01*
X102333000Y-72059170D01*
X102225213Y-71798950D01*
X102026050Y-71599787D01*
X101765830Y-71492000D01*
X101481000Y-71492000D01*
X101304000Y-71669000D01*
X101196000Y-71669000D01*
X101019000Y-71492000D01*
X100734170Y-71492000D01*
X100473950Y-71599787D01*
X100274787Y-71798950D01*
X100167000Y-72059170D01*
X93663986Y-72059170D01*
X93177408Y-71572592D01*
X92866611Y-71364923D01*
X92500000Y-71292000D01*
X89750551Y-71292000D01*
X89685170Y-71226505D01*
X89241340Y-71042210D01*
X88760768Y-71041791D01*
X88316617Y-71225310D01*
X87976505Y-71564830D01*
X87792210Y-72008660D01*
X87791791Y-72489232D01*
X87975310Y-72933383D01*
X88042000Y-73000189D01*
X88042000Y-73853184D01*
X87353184Y-74542000D01*
X86494644Y-74542000D01*
X86368792Y-74346421D01*
X86360712Y-74340901D01*
X86451563Y-74250050D01*
X86559350Y-73989830D01*
X86559350Y-73429760D01*
X86382350Y-73252760D01*
X84705200Y-73252760D01*
X84705200Y-73272760D01*
X84597200Y-73272760D01*
X84597200Y-73252760D01*
X82920050Y-73252760D01*
X82743050Y-73429760D01*
X82743050Y-73989830D01*
X82850837Y-74250050D01*
X82941782Y-74340995D01*
X82804441Y-74542000D01*
X79708000Y-74542000D01*
X79708000Y-74134870D01*
X79766000Y-74134870D01*
X80028369Y-74085502D01*
X80269339Y-73930442D01*
X80430997Y-73693848D01*
X80487870Y-73413000D01*
X80487870Y-72407690D01*
X82743050Y-72407690D01*
X82743050Y-72967760D01*
X82920050Y-73144760D01*
X84597200Y-73144760D01*
X84597200Y-72017520D01*
X84705200Y-72017520D01*
X84705200Y-73144760D01*
X86382350Y-73144760D01*
X86559350Y-72967760D01*
X86559350Y-72407690D01*
X86451563Y-72147470D01*
X86252400Y-71948307D01*
X85992180Y-71840520D01*
X84882200Y-71840520D01*
X84705200Y-72017520D01*
X84597200Y-72017520D01*
X84420200Y-71840520D01*
X83310220Y-71840520D01*
X83050000Y-71948307D01*
X82850837Y-72147470D01*
X82743050Y-72407690D01*
X80487870Y-72407690D01*
X80487870Y-71889000D01*
X80438502Y-71626631D01*
X80283442Y-71385661D01*
X80046848Y-71224003D01*
X79766000Y-71167130D01*
X77734000Y-71167130D01*
X77471631Y-71216498D01*
X77230661Y-71371558D01*
X77069003Y-71608152D01*
X77012130Y-71889000D01*
X77012130Y-73413000D01*
X77061498Y-73675369D01*
X77216558Y-73916339D01*
X77453152Y-74077997D01*
X77734000Y-74134870D01*
X77792000Y-74134870D01*
X77792000Y-74542000D01*
X69250551Y-74542000D01*
X69185170Y-74476505D01*
X68741340Y-74292210D01*
X68260768Y-74291791D01*
X67816617Y-74475310D01*
X67476505Y-74814830D01*
X67292210Y-75258660D01*
X67291791Y-75739232D01*
X67475310Y-76183383D01*
X67814830Y-76523495D01*
X68258660Y-76707790D01*
X68739232Y-76708209D01*
X69183383Y-76524690D01*
X69250189Y-76458000D01*
X82807756Y-76458000D01*
X82933608Y-76653579D01*
X82933897Y-76653776D01*
X82906932Y-76693240D01*
X77698760Y-76693240D01*
X77274746Y-76777581D01*
X76915286Y-77017765D01*
X74091526Y-79841526D01*
X73851341Y-80200986D01*
X73796026Y-80479078D01*
X73533477Y-80216529D01*
X73533475Y-80216526D01*
X72533474Y-79216526D01*
X72174014Y-78976341D01*
X71750000Y-78892000D01*
X70879280Y-78892000D01*
X70571365Y-78431172D01*
X70098171Y-78114994D01*
X69540000Y-78003967D01*
X68981829Y-78114994D01*
X68508635Y-78431172D01*
X68261021Y-78801753D01*
X67993181Y-78431342D01*
X67508281Y-78132683D01*
X67281349Y-78069713D01*
X67054000Y-78220458D01*
X67054000Y-79946000D01*
X67074000Y-79946000D01*
X67074000Y-80054000D01*
X67054000Y-80054000D01*
X67054000Y-81779542D01*
X67281349Y-81930287D01*
X67508281Y-81867317D01*
X67993181Y-81568658D01*
X68261021Y-81198247D01*
X68508635Y-81568828D01*
X68981829Y-81885006D01*
X69540000Y-81996033D01*
X70098171Y-81885006D01*
X70571365Y-81568828D01*
X70879280Y-81108000D01*
X71291052Y-81108000D01*
X71966526Y-81783475D01*
X71966529Y-81783477D01*
X73767000Y-83583948D01*
X73767000Y-90096038D01*
X73515830Y-89992000D01*
X73231000Y-89992000D01*
X73054000Y-90169000D01*
X73054000Y-91246000D01*
X73074000Y-91246000D01*
X73074000Y-91354000D01*
X73054000Y-91354000D01*
X73054000Y-91374000D01*
X72946000Y-91374000D01*
X72946000Y-91354000D01*
X72094000Y-91354000D01*
X71917000Y-91531000D01*
X71917000Y-92040830D01*
X72005004Y-92253290D01*
X71960003Y-92319152D01*
X71903130Y-92600000D01*
X71903130Y-93144045D01*
X71892000Y-93200000D01*
X71892000Y-94575051D01*
X71358000Y-94041052D01*
X71358000Y-93200000D01*
X71346870Y-93144045D01*
X71346870Y-92600000D01*
X71297502Y-92337631D01*
X71244304Y-92254960D01*
X71333000Y-92040830D01*
X71333000Y-91531000D01*
X71156000Y-91354000D01*
X70304000Y-91354000D01*
X70304000Y-91374000D01*
X70196000Y-91374000D01*
X70196000Y-91354000D01*
X69344000Y-91354000D01*
X69167000Y-91531000D01*
X69167000Y-92040830D01*
X69255004Y-92253290D01*
X69210003Y-92319152D01*
X69153130Y-92600000D01*
X69153130Y-93144045D01*
X69142000Y-93200000D01*
X69142000Y-94500000D01*
X69226341Y-94924014D01*
X69466526Y-95283474D01*
X70966525Y-96783474D01*
X70966528Y-96783476D01*
X71058052Y-96875000D01*
X70875000Y-97058051D01*
X69033477Y-95216529D01*
X69033475Y-95216526D01*
X68358000Y-94541052D01*
X68358000Y-93200000D01*
X68346870Y-93144045D01*
X68346870Y-92600000D01*
X68297502Y-92337631D01*
X68244304Y-92254960D01*
X68333000Y-92040830D01*
X68333000Y-91531000D01*
X68156000Y-91354000D01*
X67304000Y-91354000D01*
X67304000Y-91374000D01*
X67196000Y-91374000D01*
X67196000Y-91354000D01*
X66344000Y-91354000D01*
X66167000Y-91531000D01*
X66167000Y-92040830D01*
X66255004Y-92253290D01*
X66210003Y-92319152D01*
X66153130Y-92600000D01*
X66153130Y-93144045D01*
X66142000Y-93200000D01*
X66142000Y-93642000D01*
X64741088Y-93642000D01*
X64730848Y-93635003D01*
X64450000Y-93578130D01*
X63250000Y-93578130D01*
X62987631Y-93627498D01*
X62746733Y-93782511D01*
X62530848Y-93635003D01*
X62250000Y-93578130D01*
X61050000Y-93578130D01*
X60787631Y-93627498D01*
X60546661Y-93782558D01*
X60506046Y-93842000D01*
X60246617Y-93842000D01*
X60217442Y-93796661D01*
X59980848Y-93635003D01*
X59700000Y-93578130D01*
X58500000Y-93578130D01*
X58237631Y-93627498D01*
X57996661Y-93782558D01*
X57991449Y-93790186D01*
X57901050Y-93699787D01*
X57640830Y-93592000D01*
X57131000Y-93592000D01*
X56954000Y-93769000D01*
X56954000Y-94696000D01*
X56974000Y-94696000D01*
X56974000Y-94804000D01*
X56954000Y-94804000D01*
X56954000Y-95731000D01*
X57131000Y-95908000D01*
X57640830Y-95908000D01*
X57901050Y-95800213D01*
X57991687Y-95709576D01*
X58219152Y-95864997D01*
X58500000Y-95921870D01*
X59700000Y-95921870D01*
X59962369Y-95872502D01*
X60203339Y-95717442D01*
X60243954Y-95658000D01*
X60503383Y-95658000D01*
X60532558Y-95703339D01*
X60769152Y-95864997D01*
X61050000Y-95921870D01*
X62250000Y-95921870D01*
X62512369Y-95872502D01*
X62753267Y-95717489D01*
X62969152Y-95864997D01*
X63250000Y-95921870D01*
X64450000Y-95921870D01*
X64712369Y-95872502D01*
X64734906Y-95858000D01*
X66541052Y-95858000D01*
X67466526Y-96783475D01*
X67466529Y-96783477D01*
X68391369Y-97708317D01*
X68192822Y-97625873D01*
X67033474Y-96466526D01*
X66674014Y-96226341D01*
X66250000Y-96142000D01*
X59991088Y-96142000D01*
X59980848Y-96135003D01*
X59700000Y-96078130D01*
X58500000Y-96078130D01*
X58237631Y-96127498D01*
X57996661Y-96282558D01*
X57991449Y-96290186D01*
X57901050Y-96199787D01*
X57640830Y-96092000D01*
X57131000Y-96092000D01*
X56954000Y-96269000D01*
X56954000Y-97196000D01*
X56974000Y-97196000D01*
X56974000Y-97304000D01*
X56954000Y-97304000D01*
X56954000Y-98231000D01*
X57131000Y-98408000D01*
X57640830Y-98408000D01*
X57901050Y-98300213D01*
X57991687Y-98209576D01*
X58219152Y-98364997D01*
X58500000Y-98421870D01*
X59700000Y-98421870D01*
X59962369Y-98372502D01*
X59984906Y-98358000D01*
X60490230Y-98358000D01*
X60296661Y-98482558D01*
X60135003Y-98719152D01*
X60078130Y-99000000D01*
X60078130Y-99192000D01*
X58555822Y-99192000D01*
X58459052Y-99047173D01*
X57899746Y-98673457D01*
X57240000Y-98542225D01*
X56580254Y-98673457D01*
X56296391Y-98863128D01*
X56117050Y-98683787D01*
X55856830Y-98576000D01*
X54931000Y-98576000D01*
X54754000Y-98753000D01*
X54754000Y-100246000D01*
X54774000Y-100246000D01*
X54774000Y-100354000D01*
X54754000Y-100354000D01*
X54754000Y-100374000D01*
X54646000Y-100374000D01*
X54646000Y-100354000D01*
X54626000Y-100354000D01*
X54626000Y-100246000D01*
X54646000Y-100246000D01*
X54646000Y-98753000D01*
X54469000Y-98576000D01*
X53543170Y-98576000D01*
X53282950Y-98683787D01*
X53200000Y-98766737D01*
X53200000Y-97481000D01*
X55592000Y-97481000D01*
X55592000Y-97840830D01*
X55699787Y-98101050D01*
X55898950Y-98300213D01*
X56159170Y-98408000D01*
X56669000Y-98408000D01*
X56846000Y-98231000D01*
X56846000Y-97304000D01*
X55769000Y-97304000D01*
X55592000Y-97481000D01*
X53200000Y-97481000D01*
X53200000Y-96659170D01*
X55592000Y-96659170D01*
X55592000Y-97019000D01*
X55769000Y-97196000D01*
X56846000Y-97196000D01*
X56846000Y-96269000D01*
X56669000Y-96092000D01*
X56159170Y-96092000D01*
X55898950Y-96199787D01*
X55699787Y-96398950D01*
X55592000Y-96659170D01*
X53200000Y-96659170D01*
X53200000Y-94981000D01*
X55592000Y-94981000D01*
X55592000Y-95340830D01*
X55699787Y-95601050D01*
X55898950Y-95800213D01*
X56159170Y-95908000D01*
X56669000Y-95908000D01*
X56846000Y-95731000D01*
X56846000Y-94804000D01*
X55769000Y-94804000D01*
X55592000Y-94981000D01*
X53200000Y-94981000D01*
X53200000Y-94159170D01*
X55592000Y-94159170D01*
X55592000Y-94519000D01*
X55769000Y-94696000D01*
X56846000Y-94696000D01*
X56846000Y-93769000D01*
X56669000Y-93592000D01*
X56159170Y-93592000D01*
X55898950Y-93699787D01*
X55699787Y-93898950D01*
X55592000Y-94159170D01*
X53200000Y-94159170D01*
X53200000Y-90559170D01*
X66167000Y-90559170D01*
X66167000Y-91069000D01*
X66344000Y-91246000D01*
X67196000Y-91246000D01*
X67196000Y-90169000D01*
X67304000Y-90169000D01*
X67304000Y-91246000D01*
X68156000Y-91246000D01*
X68333000Y-91069000D01*
X68333000Y-90559170D01*
X69167000Y-90559170D01*
X69167000Y-91069000D01*
X69344000Y-91246000D01*
X70196000Y-91246000D01*
X70196000Y-90169000D01*
X70304000Y-90169000D01*
X70304000Y-91246000D01*
X71156000Y-91246000D01*
X71333000Y-91069000D01*
X71333000Y-90559170D01*
X71917000Y-90559170D01*
X71917000Y-91069000D01*
X72094000Y-91246000D01*
X72946000Y-91246000D01*
X72946000Y-90169000D01*
X72769000Y-89992000D01*
X72484170Y-89992000D01*
X72223950Y-90099787D01*
X72024787Y-90298950D01*
X71917000Y-90559170D01*
X71333000Y-90559170D01*
X71225213Y-90298950D01*
X71026050Y-90099787D01*
X70765830Y-89992000D01*
X70481000Y-89992000D01*
X70304000Y-90169000D01*
X70196000Y-90169000D01*
X70019000Y-89992000D01*
X69734170Y-89992000D01*
X69473950Y-90099787D01*
X69274787Y-90298950D01*
X69167000Y-90559170D01*
X68333000Y-90559170D01*
X68225213Y-90298950D01*
X68026050Y-90099787D01*
X67765830Y-89992000D01*
X67481000Y-89992000D01*
X67304000Y-90169000D01*
X67196000Y-90169000D01*
X67019000Y-89992000D01*
X66734170Y-89992000D01*
X66473950Y-90099787D01*
X66274787Y-90298950D01*
X66167000Y-90559170D01*
X53200000Y-90559170D01*
X53200000Y-88731000D01*
X53276000Y-88731000D01*
X53276000Y-89656830D01*
X53383787Y-89917050D01*
X53582950Y-90116213D01*
X53843170Y-90224000D01*
X54769000Y-90224000D01*
X54946000Y-90047000D01*
X54946000Y-88554000D01*
X55054000Y-88554000D01*
X55054000Y-90047000D01*
X55231000Y-90224000D01*
X56156830Y-90224000D01*
X56417050Y-90116213D01*
X56616213Y-89917050D01*
X56724000Y-89656830D01*
X56724000Y-88731000D01*
X56547000Y-88554000D01*
X55054000Y-88554000D01*
X54946000Y-88554000D01*
X53453000Y-88554000D01*
X53276000Y-88731000D01*
X53200000Y-88731000D01*
X53200000Y-84200000D01*
X55405184Y-84200000D01*
X55313536Y-84291648D01*
X55033775Y-84236000D01*
X54966225Y-84236000D01*
X54306479Y-84367232D01*
X53747173Y-84740948D01*
X53373457Y-85300254D01*
X53242225Y-85960000D01*
X53373457Y-86619746D01*
X53563128Y-86903609D01*
X53383787Y-87082950D01*
X53276000Y-87343170D01*
X53276000Y-88269000D01*
X53453000Y-88446000D01*
X54946000Y-88446000D01*
X54946000Y-88426000D01*
X55054000Y-88426000D01*
X55054000Y-88446000D01*
X56547000Y-88446000D01*
X56724000Y-88269000D01*
X56724000Y-87343170D01*
X56616213Y-87082950D01*
X56436872Y-86903609D01*
X56626543Y-86619746D01*
X56757775Y-85960000D01*
X56690920Y-85623896D01*
X56856816Y-85458000D01*
X63289380Y-85458000D01*
X63519152Y-85614997D01*
X63800000Y-85671870D01*
X65000000Y-85671870D01*
X65262369Y-85622502D01*
X65503267Y-85467489D01*
X65719152Y-85614997D01*
X66000000Y-85671870D01*
X67200000Y-85671870D01*
X67462369Y-85622502D01*
X67703339Y-85467442D01*
X67709790Y-85458000D01*
X68249449Y-85458000D01*
X68314830Y-85523495D01*
X68758660Y-85707790D01*
X69239232Y-85708209D01*
X69683383Y-85524690D01*
X70023495Y-85185170D01*
X70207790Y-84741340D01*
X70208209Y-84260768D01*
X70024690Y-83816617D01*
X69685170Y-83476505D01*
X69241340Y-83292210D01*
X68760768Y-83291791D01*
X68316617Y-83475310D01*
X68249811Y-83542000D01*
X67710620Y-83542000D01*
X67480848Y-83385003D01*
X67200000Y-83328130D01*
X66000000Y-83328130D01*
X65737631Y-83377498D01*
X65496733Y-83532511D01*
X65418000Y-83478715D01*
X65418000Y-81617849D01*
X65491365Y-81568828D01*
X65738979Y-81198247D01*
X66006819Y-81568658D01*
X66491719Y-81867317D01*
X66718651Y-81930287D01*
X66946000Y-81779542D01*
X66946000Y-80054000D01*
X66926000Y-80054000D01*
X66926000Y-79946000D01*
X66946000Y-79946000D01*
X66946000Y-78220458D01*
X66718651Y-78069713D01*
X66491719Y-78132683D01*
X66006819Y-78431342D01*
X65738979Y-78801753D01*
X65491365Y-78431172D01*
X65018171Y-78114994D01*
X64460000Y-78003967D01*
X63901829Y-78114994D01*
X63428635Y-78431172D01*
X63112457Y-78904366D01*
X63001430Y-79462537D01*
X63001430Y-80537463D01*
X63112457Y-81095634D01*
X63428635Y-81568828D01*
X63502000Y-81617849D01*
X63502000Y-83400426D01*
X63296661Y-83532558D01*
X63290210Y-83542000D01*
X58200000Y-83542000D01*
X58200000Y-81589847D01*
X58257607Y-81451114D01*
X58258391Y-80552826D01*
X58200000Y-80411509D01*
X58200000Y-78000000D01*
X58184243Y-77922189D01*
X58139454Y-77856638D01*
X58072691Y-77813678D01*
X58000000Y-77800000D01*
X53200000Y-77800000D01*
X53200000Y-70437494D01*
X53202536Y-70441289D01*
X53712400Y-70781969D01*
X54313825Y-70901600D01*
X54686175Y-70901600D01*
X55287600Y-70781969D01*
X55797464Y-70441289D01*
X55933297Y-70238000D01*
X74920000Y-70238000D01*
X75267477Y-70168883D01*
X75562053Y-69972053D01*
X75954106Y-69580000D01*
X77026000Y-69580000D01*
X77026000Y-70251830D01*
X77133787Y-70512050D01*
X77332950Y-70711213D01*
X77593170Y-70819000D01*
X78519000Y-70819000D01*
X78696000Y-70642000D01*
X78696000Y-69403000D01*
X78804000Y-69403000D01*
X78804000Y-70642000D01*
X78981000Y-70819000D01*
X79906830Y-70819000D01*
X80167050Y-70711213D01*
X80366213Y-70512050D01*
X80474000Y-70251830D01*
X80474000Y-69580000D01*
X80297000Y-69403000D01*
X78804000Y-69403000D01*
X78696000Y-69403000D01*
X77203000Y-69403000D01*
X77026000Y-69580000D01*
X75954106Y-69580000D01*
X77026000Y-68508106D01*
X77026000Y-69118000D01*
X77203000Y-69295000D01*
X78696000Y-69295000D01*
X78696000Y-69275000D01*
X78804000Y-69275000D01*
X78804000Y-69295000D01*
X80297000Y-69295000D01*
X80474000Y-69118000D01*
X80474000Y-68446170D01*
X80458189Y-68408000D01*
X81123894Y-68408000D01*
X83157947Y-70442053D01*
G36*
X120607947Y-83642053D02*
X120902523Y-83838883D01*
X121250000Y-83908000D01*
X123057894Y-83908000D01*
X121665894Y-85300000D01*
X119750000Y-85300000D01*
X119672189Y-85315757D01*
X119606638Y-85360546D01*
X119583000Y-85397281D01*
X119583000Y-84931000D01*
X119406000Y-84754000D01*
X118554000Y-84754000D01*
X118554000Y-85831000D01*
X118731000Y-86008000D01*
X119015830Y-86008000D01*
X119276050Y-85900213D01*
X119475213Y-85701050D01*
X119550000Y-85520499D01*
X119550000Y-86592000D01*
X118376106Y-86592000D01*
X117708000Y-85923894D01*
X117708000Y-85884263D01*
X117723950Y-85900213D01*
X117984170Y-86008000D01*
X118269000Y-86008000D01*
X118446000Y-85831000D01*
X118446000Y-84754000D01*
X118426000Y-84754000D01*
X118426000Y-84646000D01*
X118446000Y-84646000D01*
X118446000Y-84626000D01*
X118554000Y-84626000D01*
X118554000Y-84646000D01*
X119406000Y-84646000D01*
X119583000Y-84469000D01*
X119583000Y-83959170D01*
X119494996Y-83746710D01*
X119539997Y-83680848D01*
X119596870Y-83400000D01*
X119596870Y-82630976D01*
X120607947Y-83642053D01*
X120607947Y-83642053D01*
G37*
X120607947Y-83642053D02*
X120902523Y-83838883D01*
X121250000Y-83908000D01*
X123057894Y-83908000D01*
X121665894Y-85300000D01*
X119750000Y-85300000D01*
X119672189Y-85315757D01*
X119606638Y-85360546D01*
X119583000Y-85397281D01*
X119583000Y-84931000D01*
X119406000Y-84754000D01*
X118554000Y-84754000D01*
X118554000Y-85831000D01*
X118731000Y-86008000D01*
X119015830Y-86008000D01*
X119276050Y-85900213D01*
X119475213Y-85701050D01*
X119550000Y-85520499D01*
X119550000Y-86592000D01*
X118376106Y-86592000D01*
X117708000Y-85923894D01*
X117708000Y-85884263D01*
X117723950Y-85900213D01*
X117984170Y-86008000D01*
X118269000Y-86008000D01*
X118446000Y-85831000D01*
X118446000Y-84754000D01*
X118426000Y-84754000D01*
X118426000Y-84646000D01*
X118446000Y-84646000D01*
X118446000Y-84626000D01*
X118554000Y-84626000D01*
X118554000Y-84646000D01*
X119406000Y-84646000D01*
X119583000Y-84469000D01*
X119583000Y-83959170D01*
X119494996Y-83746710D01*
X119539997Y-83680848D01*
X119596870Y-83400000D01*
X119596870Y-82630976D01*
X120607947Y-83642053D01*
G36*
X108476505Y-82564830D02*
X108292210Y-83008660D01*
X108291791Y-83489232D01*
X108475310Y-83933383D01*
X108592000Y-84050276D01*
X108592000Y-85373894D01*
X107373894Y-86592000D01*
X105626106Y-86592000D01*
X104927588Y-85893482D01*
X105005000Y-85841757D01*
X105036187Y-85917050D01*
X105235350Y-86116213D01*
X105495570Y-86224000D01*
X106269000Y-86224000D01*
X106446000Y-86047000D01*
X106446000Y-84554000D01*
X106554000Y-84554000D01*
X106554000Y-86047000D01*
X106731000Y-86224000D01*
X107504430Y-86224000D01*
X107764650Y-86116213D01*
X107963813Y-85917050D01*
X108071600Y-85656830D01*
X108071600Y-84731000D01*
X107894600Y-84554000D01*
X106554000Y-84554000D01*
X106446000Y-84554000D01*
X106426000Y-84554000D01*
X106426000Y-84446000D01*
X106446000Y-84446000D01*
X106446000Y-82953000D01*
X106554000Y-82953000D01*
X106554000Y-84446000D01*
X107894600Y-84446000D01*
X108071600Y-84269000D01*
X108071600Y-83343170D01*
X107963813Y-83082950D01*
X107764650Y-82883787D01*
X107504430Y-82776000D01*
X106731000Y-82776000D01*
X106554000Y-82953000D01*
X106446000Y-82953000D01*
X106269000Y-82776000D01*
X105495570Y-82776000D01*
X105235350Y-82883787D01*
X105036187Y-83082950D01*
X105005000Y-83158243D01*
X104561425Y-82861856D01*
X103960000Y-82742225D01*
X103358575Y-82861856D01*
X102848711Y-83202536D01*
X102690000Y-83440064D01*
X102531289Y-83202536D01*
X102411566Y-83122540D01*
X103126106Y-82408000D01*
X108633608Y-82408000D01*
X108476505Y-82564830D01*
X108476505Y-82564830D01*
G37*
X108476505Y-82564830D02*
X108292210Y-83008660D01*
X108291791Y-83489232D01*
X108475310Y-83933383D01*
X108592000Y-84050276D01*
X108592000Y-85373894D01*
X107373894Y-86592000D01*
X105626106Y-86592000D01*
X104927588Y-85893482D01*
X105005000Y-85841757D01*
X105036187Y-85917050D01*
X105235350Y-86116213D01*
X105495570Y-86224000D01*
X106269000Y-86224000D01*
X106446000Y-86047000D01*
X106446000Y-84554000D01*
X106554000Y-84554000D01*
X106554000Y-86047000D01*
X106731000Y-86224000D01*
X107504430Y-86224000D01*
X107764650Y-86116213D01*
X107963813Y-85917050D01*
X108071600Y-85656830D01*
X108071600Y-84731000D01*
X107894600Y-84554000D01*
X106554000Y-84554000D01*
X106446000Y-84554000D01*
X106426000Y-84554000D01*
X106426000Y-84446000D01*
X106446000Y-84446000D01*
X106446000Y-82953000D01*
X106554000Y-82953000D01*
X106554000Y-84446000D01*
X107894600Y-84446000D01*
X108071600Y-84269000D01*
X108071600Y-83343170D01*
X107963813Y-83082950D01*
X107764650Y-82883787D01*
X107504430Y-82776000D01*
X106731000Y-82776000D01*
X106554000Y-82953000D01*
X106446000Y-82953000D01*
X106269000Y-82776000D01*
X105495570Y-82776000D01*
X105235350Y-82883787D01*
X105036187Y-83082950D01*
X105005000Y-83158243D01*
X104561425Y-82861856D01*
X103960000Y-82742225D01*
X103358575Y-82861856D01*
X102848711Y-83202536D01*
X102690000Y-83440064D01*
X102531289Y-83202536D01*
X102411566Y-83122540D01*
X103126106Y-82408000D01*
X108633608Y-82408000D01*
X108476505Y-82564830D01*
G36*
X165594000Y-64526000D02*
X165614000Y-64526000D01*
X165614000Y-64634000D01*
X165594000Y-64634000D01*
X165594000Y-65973676D01*
X165839043Y-66122891D01*
X166406719Y-65891007D01*
X166800000Y-65501565D01*
X166800000Y-70050000D01*
X141500000Y-70050000D01*
X141422189Y-70065757D01*
X141356638Y-70110546D01*
X141313678Y-70177309D01*
X141300000Y-70250000D01*
X141300000Y-85300000D01*
X126234106Y-85300000D01*
X128610646Y-82923460D01*
X138345220Y-82923460D01*
X138345220Y-83133010D01*
X138453007Y-83393230D01*
X138652170Y-83592393D01*
X138912390Y-83700180D01*
X139571520Y-83700180D01*
X139748520Y-83523180D01*
X139748520Y-82746460D01*
X139856520Y-82746460D01*
X139856520Y-83523180D01*
X140033520Y-83700180D01*
X140692650Y-83700180D01*
X140952870Y-83592393D01*
X141152033Y-83393230D01*
X141259820Y-83133010D01*
X141259820Y-82923460D01*
X141082820Y-82746460D01*
X139856520Y-82746460D01*
X139748520Y-82746460D01*
X138522220Y-82746460D01*
X138345220Y-82923460D01*
X128610646Y-82923460D01*
X129126106Y-82408000D01*
X131753383Y-82408000D01*
X131782558Y-82453339D01*
X132019152Y-82614997D01*
X132300000Y-82671870D01*
X133500000Y-82671870D01*
X133762369Y-82622502D01*
X134003267Y-82467489D01*
X134219152Y-82614997D01*
X134500000Y-82671870D01*
X135700000Y-82671870D01*
X135962369Y-82622502D01*
X136203339Y-82467442D01*
X136296935Y-82330460D01*
X138345220Y-82330460D01*
X138345220Y-82461460D01*
X138522220Y-82638460D01*
X139748520Y-82638460D01*
X139748520Y-82618460D01*
X139856520Y-82618460D01*
X139856520Y-82638460D01*
X141082820Y-82638460D01*
X141259820Y-82461460D01*
X141259820Y-82251910D01*
X141179408Y-82057778D01*
X141216817Y-82003028D01*
X141273690Y-81722180D01*
X141273690Y-81122740D01*
X141224322Y-80860371D01*
X141178543Y-80789229D01*
X141259820Y-80593010D01*
X141259820Y-80383460D01*
X141082820Y-80206460D01*
X139856520Y-80206460D01*
X139856520Y-80226460D01*
X139748520Y-80226460D01*
X139748520Y-80206460D01*
X138522220Y-80206460D01*
X138345220Y-80383460D01*
X138345220Y-80514460D01*
X136170314Y-80514460D01*
X135980848Y-80385003D01*
X135700000Y-80328130D01*
X134500000Y-80328130D01*
X134237631Y-80377498D01*
X133996733Y-80532511D01*
X133780848Y-80385003D01*
X133500000Y-80328130D01*
X132300000Y-80328130D01*
X132037631Y-80377498D01*
X131796661Y-80532558D01*
X131756046Y-80592000D01*
X128942106Y-80592000D01*
X129626106Y-79908000D01*
X131753383Y-79908000D01*
X131782558Y-79953339D01*
X132019152Y-80114997D01*
X132300000Y-80171870D01*
X133500000Y-80171870D01*
X133762369Y-80122502D01*
X134003267Y-79967489D01*
X134219152Y-80114997D01*
X134500000Y-80171870D01*
X135700000Y-80171870D01*
X135962369Y-80122502D01*
X136203339Y-79967442D01*
X136324266Y-79790460D01*
X138345220Y-79790460D01*
X138345220Y-79921460D01*
X138522220Y-80098460D01*
X139748520Y-80098460D01*
X139748520Y-80078460D01*
X139856520Y-80078460D01*
X139856520Y-80098460D01*
X141082820Y-80098460D01*
X141259820Y-79921460D01*
X141259820Y-79711910D01*
X141179408Y-79517778D01*
X141216817Y-79463028D01*
X141273690Y-79182180D01*
X141273690Y-78582740D01*
X141224322Y-78320371D01*
X141179823Y-78251218D01*
X141259820Y-78058090D01*
X141259820Y-77848540D01*
X141082820Y-77671540D01*
X139856520Y-77671540D01*
X139856520Y-77691540D01*
X139748520Y-77691540D01*
X139748520Y-77671540D01*
X138522220Y-77671540D01*
X138345220Y-77848540D01*
X138345220Y-77974460D01*
X136111772Y-77974460D01*
X135980848Y-77885003D01*
X135700000Y-77828130D01*
X134500000Y-77828130D01*
X134237631Y-77877498D01*
X133996733Y-78032511D01*
X133780848Y-77885003D01*
X133500000Y-77828130D01*
X132300000Y-77828130D01*
X132037631Y-77877498D01*
X131796661Y-78032558D01*
X131756046Y-78092000D01*
X129942106Y-78092000D01*
X130626106Y-77408000D01*
X131753383Y-77408000D01*
X131782558Y-77453339D01*
X132019152Y-77614997D01*
X132300000Y-77671870D01*
X133500000Y-77671870D01*
X133762369Y-77622502D01*
X134003267Y-77467489D01*
X134219152Y-77614997D01*
X134500000Y-77671870D01*
X135700000Y-77671870D01*
X135962369Y-77622502D01*
X136203339Y-77467442D01*
X136348126Y-77255540D01*
X138345220Y-77255540D01*
X138345220Y-77386540D01*
X138522220Y-77563540D01*
X139748520Y-77563540D01*
X139748520Y-77543540D01*
X139856520Y-77543540D01*
X139856520Y-77563540D01*
X141082820Y-77563540D01*
X141259820Y-77386540D01*
X141259820Y-77176990D01*
X141179408Y-76982858D01*
X141216817Y-76928108D01*
X141273690Y-76647260D01*
X141273690Y-76047820D01*
X141224322Y-75785451D01*
X141178543Y-75714309D01*
X141259820Y-75518090D01*
X141259820Y-75308540D01*
X141082820Y-75131540D01*
X139856520Y-75131540D01*
X139856520Y-75151540D01*
X139748520Y-75151540D01*
X139748520Y-75131540D01*
X138522220Y-75131540D01*
X138345220Y-75308540D01*
X138345220Y-75439540D01*
X136060665Y-75439540D01*
X135980848Y-75385003D01*
X135700000Y-75328130D01*
X134500000Y-75328130D01*
X134237631Y-75377498D01*
X133996733Y-75532511D01*
X133780848Y-75385003D01*
X133500000Y-75328130D01*
X132300000Y-75328130D01*
X132037631Y-75377498D01*
X131796661Y-75532558D01*
X131756046Y-75592000D01*
X130692106Y-75592000D01*
X131626106Y-74658000D01*
X131753383Y-74658000D01*
X131782558Y-74703339D01*
X132019152Y-74864997D01*
X132300000Y-74921870D01*
X133500000Y-74921870D01*
X133762369Y-74872502D01*
X134003267Y-74717489D01*
X134219152Y-74864997D01*
X134500000Y-74921870D01*
X135700000Y-74921870D01*
X135962369Y-74872502D01*
X136203339Y-74717442D01*
X136243954Y-74658000D01*
X138345220Y-74658000D01*
X138345220Y-74846540D01*
X138522220Y-75023540D01*
X139748520Y-75023540D01*
X139748520Y-75003540D01*
X139856520Y-75003540D01*
X139856520Y-75023540D01*
X141082820Y-75023540D01*
X141259820Y-74846540D01*
X141259820Y-74636990D01*
X141179408Y-74442858D01*
X141216817Y-74388108D01*
X141273690Y-74107260D01*
X141273690Y-73507820D01*
X141224322Y-73245451D01*
X141069262Y-73004481D01*
X140832668Y-72842823D01*
X140551820Y-72785950D01*
X139053220Y-72785950D01*
X138790851Y-72835318D01*
X138780467Y-72842000D01*
X136246617Y-72842000D01*
X136217442Y-72796661D01*
X135980848Y-72635003D01*
X135700000Y-72578130D01*
X134500000Y-72578130D01*
X134237631Y-72627498D01*
X133996733Y-72782511D01*
X133780848Y-72635003D01*
X133500000Y-72578130D01*
X132300000Y-72578130D01*
X132037631Y-72627498D01*
X131796661Y-72782558D01*
X131756046Y-72842000D01*
X131250000Y-72842000D01*
X130902523Y-72911117D01*
X130607947Y-73107947D01*
X129558947Y-74156947D01*
X129406000Y-74004000D01*
X128554000Y-74004000D01*
X128554000Y-74024000D01*
X128446000Y-74024000D01*
X128446000Y-74004000D01*
X127594000Y-74004000D01*
X127417000Y-74181000D01*
X127417000Y-74690830D01*
X127524787Y-74951050D01*
X127723950Y-75150213D01*
X127984170Y-75258000D01*
X128269000Y-75258000D01*
X128445998Y-75081002D01*
X128445998Y-75258000D01*
X128457894Y-75258000D01*
X127311117Y-76404777D01*
X127274690Y-76316617D01*
X126935170Y-75976505D01*
X126491340Y-75792210D01*
X126207964Y-75791963D01*
X126208209Y-75510768D01*
X126024690Y-75066617D01*
X125685170Y-74726505D01*
X125241340Y-74542210D01*
X124760768Y-74541791D01*
X124316617Y-74725310D01*
X123976505Y-75064830D01*
X123882175Y-75292000D01*
X123171870Y-75292000D01*
X123171870Y-75125000D01*
X123147486Y-74995411D01*
X123171870Y-74875000D01*
X123171870Y-74325000D01*
X123153412Y-74226906D01*
X123158000Y-74215830D01*
X123158000Y-74031000D01*
X123085000Y-73958000D01*
X124500000Y-73958000D01*
X124866611Y-73885077D01*
X125177408Y-73677408D01*
X125846816Y-73008000D01*
X127500328Y-73008000D01*
X127417000Y-73209170D01*
X127417000Y-73719000D01*
X127594000Y-73896000D01*
X128446000Y-73896000D01*
X128446000Y-73876000D01*
X128554000Y-73876000D01*
X128554000Y-73896000D01*
X129406000Y-73896000D01*
X129583000Y-73719000D01*
X129583000Y-73209170D01*
X129494996Y-72996710D01*
X129539997Y-72930848D01*
X129596870Y-72650000D01*
X129596870Y-71450000D01*
X129547502Y-71187631D01*
X129392442Y-70946661D01*
X129155848Y-70785003D01*
X128875000Y-70728130D01*
X128125000Y-70728130D01*
X127862631Y-70777498D01*
X127621661Y-70932558D01*
X127512719Y-71092000D01*
X126208000Y-71092000D01*
X126208000Y-69666479D01*
X126314830Y-69773495D01*
X126758660Y-69957790D01*
X127239232Y-69958209D01*
X127683383Y-69774690D01*
X128023495Y-69435170D01*
X128207790Y-68991340D01*
X128207863Y-68908000D01*
X159500000Y-68908000D01*
X159847477Y-68838883D01*
X160142053Y-68642053D01*
X162688369Y-66095737D01*
X162969211Y-66151600D01*
X163030789Y-66151600D01*
X163632214Y-66031969D01*
X164142078Y-65691289D01*
X164273288Y-65494919D01*
X164673281Y-65891007D01*
X165240957Y-66122891D01*
X165486000Y-65973676D01*
X165486000Y-64634000D01*
X165466000Y-64634000D01*
X165466000Y-64526000D01*
X165486000Y-64526000D01*
X165486000Y-64506000D01*
X165594000Y-64506000D01*
X165594000Y-64526000D01*
X165594000Y-64526000D01*
G37*
X165594000Y-64526000D02*
X165614000Y-64526000D01*
X165614000Y-64634000D01*
X165594000Y-64634000D01*
X165594000Y-65973676D01*
X165839043Y-66122891D01*
X166406719Y-65891007D01*
X166800000Y-65501565D01*
X166800000Y-70050000D01*
X141500000Y-70050000D01*
X141422189Y-70065757D01*
X141356638Y-70110546D01*
X141313678Y-70177309D01*
X141300000Y-70250000D01*
X141300000Y-85300000D01*
X126234106Y-85300000D01*
X128610646Y-82923460D01*
X138345220Y-82923460D01*
X138345220Y-83133010D01*
X138453007Y-83393230D01*
X138652170Y-83592393D01*
X138912390Y-83700180D01*
X139571520Y-83700180D01*
X139748520Y-83523180D01*
X139748520Y-82746460D01*
X139856520Y-82746460D01*
X139856520Y-83523180D01*
X140033520Y-83700180D01*
X140692650Y-83700180D01*
X140952870Y-83592393D01*
X141152033Y-83393230D01*
X141259820Y-83133010D01*
X141259820Y-82923460D01*
X141082820Y-82746460D01*
X139856520Y-82746460D01*
X139748520Y-82746460D01*
X138522220Y-82746460D01*
X138345220Y-82923460D01*
X128610646Y-82923460D01*
X129126106Y-82408000D01*
X131753383Y-82408000D01*
X131782558Y-82453339D01*
X132019152Y-82614997D01*
X132300000Y-82671870D01*
X133500000Y-82671870D01*
X133762369Y-82622502D01*
X134003267Y-82467489D01*
X134219152Y-82614997D01*
X134500000Y-82671870D01*
X135700000Y-82671870D01*
X135962369Y-82622502D01*
X136203339Y-82467442D01*
X136296935Y-82330460D01*
X138345220Y-82330460D01*
X138345220Y-82461460D01*
X138522220Y-82638460D01*
X139748520Y-82638460D01*
X139748520Y-82618460D01*
X139856520Y-82618460D01*
X139856520Y-82638460D01*
X141082820Y-82638460D01*
X141259820Y-82461460D01*
X141259820Y-82251910D01*
X141179408Y-82057778D01*
X141216817Y-82003028D01*
X141273690Y-81722180D01*
X141273690Y-81122740D01*
X141224322Y-80860371D01*
X141178543Y-80789229D01*
X141259820Y-80593010D01*
X141259820Y-80383460D01*
X141082820Y-80206460D01*
X139856520Y-80206460D01*
X139856520Y-80226460D01*
X139748520Y-80226460D01*
X139748520Y-80206460D01*
X138522220Y-80206460D01*
X138345220Y-80383460D01*
X138345220Y-80514460D01*
X136170314Y-80514460D01*
X135980848Y-80385003D01*
X135700000Y-80328130D01*
X134500000Y-80328130D01*
X134237631Y-80377498D01*
X133996733Y-80532511D01*
X133780848Y-80385003D01*
X133500000Y-80328130D01*
X132300000Y-80328130D01*
X132037631Y-80377498D01*
X131796661Y-80532558D01*
X131756046Y-80592000D01*
X128942106Y-80592000D01*
X129626106Y-79908000D01*
X131753383Y-79908000D01*
X131782558Y-79953339D01*
X132019152Y-80114997D01*
X132300000Y-80171870D01*
X133500000Y-80171870D01*
X133762369Y-80122502D01*
X134003267Y-79967489D01*
X134219152Y-80114997D01*
X134500000Y-80171870D01*
X135700000Y-80171870D01*
X135962369Y-80122502D01*
X136203339Y-79967442D01*
X136324266Y-79790460D01*
X138345220Y-79790460D01*
X138345220Y-79921460D01*
X138522220Y-80098460D01*
X139748520Y-80098460D01*
X139748520Y-80078460D01*
X139856520Y-80078460D01*
X139856520Y-80098460D01*
X141082820Y-80098460D01*
X141259820Y-79921460D01*
X141259820Y-79711910D01*
X141179408Y-79517778D01*
X141216817Y-79463028D01*
X141273690Y-79182180D01*
X141273690Y-78582740D01*
X141224322Y-78320371D01*
X141179823Y-78251218D01*
X141259820Y-78058090D01*
X141259820Y-77848540D01*
X141082820Y-77671540D01*
X139856520Y-77671540D01*
X139856520Y-77691540D01*
X139748520Y-77691540D01*
X139748520Y-77671540D01*
X138522220Y-77671540D01*
X138345220Y-77848540D01*
X138345220Y-77974460D01*
X136111772Y-77974460D01*
X135980848Y-77885003D01*
X135700000Y-77828130D01*
X134500000Y-77828130D01*
X134237631Y-77877498D01*
X133996733Y-78032511D01*
X133780848Y-77885003D01*
X133500000Y-77828130D01*
X132300000Y-77828130D01*
X132037631Y-77877498D01*
X131796661Y-78032558D01*
X131756046Y-78092000D01*
X129942106Y-78092000D01*
X130626106Y-77408000D01*
X131753383Y-77408000D01*
X131782558Y-77453339D01*
X132019152Y-77614997D01*
X132300000Y-77671870D01*
X133500000Y-77671870D01*
X133762369Y-77622502D01*
X134003267Y-77467489D01*
X134219152Y-77614997D01*
X134500000Y-77671870D01*
X135700000Y-77671870D01*
X135962369Y-77622502D01*
X136203339Y-77467442D01*
X136348126Y-77255540D01*
X138345220Y-77255540D01*
X138345220Y-77386540D01*
X138522220Y-77563540D01*
X139748520Y-77563540D01*
X139748520Y-77543540D01*
X139856520Y-77543540D01*
X139856520Y-77563540D01*
X141082820Y-77563540D01*
X141259820Y-77386540D01*
X141259820Y-77176990D01*
X141179408Y-76982858D01*
X141216817Y-76928108D01*
X141273690Y-76647260D01*
X141273690Y-76047820D01*
X141224322Y-75785451D01*
X141178543Y-75714309D01*
X141259820Y-75518090D01*
X141259820Y-75308540D01*
X141082820Y-75131540D01*
X139856520Y-75131540D01*
X139856520Y-75151540D01*
X139748520Y-75151540D01*
X139748520Y-75131540D01*
X138522220Y-75131540D01*
X138345220Y-75308540D01*
X138345220Y-75439540D01*
X136060665Y-75439540D01*
X135980848Y-75385003D01*
X135700000Y-75328130D01*
X134500000Y-75328130D01*
X134237631Y-75377498D01*
X133996733Y-75532511D01*
X133780848Y-75385003D01*
X133500000Y-75328130D01*
X132300000Y-75328130D01*
X132037631Y-75377498D01*
X131796661Y-75532558D01*
X131756046Y-75592000D01*
X130692106Y-75592000D01*
X131626106Y-74658000D01*
X131753383Y-74658000D01*
X131782558Y-74703339D01*
X132019152Y-74864997D01*
X132300000Y-74921870D01*
X133500000Y-74921870D01*
X133762369Y-74872502D01*
X134003267Y-74717489D01*
X134219152Y-74864997D01*
X134500000Y-74921870D01*
X135700000Y-74921870D01*
X135962369Y-74872502D01*
X136203339Y-74717442D01*
X136243954Y-74658000D01*
X138345220Y-74658000D01*
X138345220Y-74846540D01*
X138522220Y-75023540D01*
X139748520Y-75023540D01*
X139748520Y-75003540D01*
X139856520Y-75003540D01*
X139856520Y-75023540D01*
X141082820Y-75023540D01*
X141259820Y-74846540D01*
X141259820Y-74636990D01*
X141179408Y-74442858D01*
X141216817Y-74388108D01*
X141273690Y-74107260D01*
X141273690Y-73507820D01*
X141224322Y-73245451D01*
X141069262Y-73004481D01*
X140832668Y-72842823D01*
X140551820Y-72785950D01*
X139053220Y-72785950D01*
X138790851Y-72835318D01*
X138780467Y-72842000D01*
X136246617Y-72842000D01*
X136217442Y-72796661D01*
X135980848Y-72635003D01*
X135700000Y-72578130D01*
X134500000Y-72578130D01*
X134237631Y-72627498D01*
X133996733Y-72782511D01*
X133780848Y-72635003D01*
X133500000Y-72578130D01*
X132300000Y-72578130D01*
X132037631Y-72627498D01*
X131796661Y-72782558D01*
X131756046Y-72842000D01*
X131250000Y-72842000D01*
X130902523Y-72911117D01*
X130607947Y-73107947D01*
X129558947Y-74156947D01*
X129406000Y-74004000D01*
X128554000Y-74004000D01*
X128554000Y-74024000D01*
X128446000Y-74024000D01*
X128446000Y-74004000D01*
X127594000Y-74004000D01*
X127417000Y-74181000D01*
X127417000Y-74690830D01*
X127524787Y-74951050D01*
X127723950Y-75150213D01*
X127984170Y-75258000D01*
X128269000Y-75258000D01*
X128445998Y-75081002D01*
X128445998Y-75258000D01*
X128457894Y-75258000D01*
X127311117Y-76404777D01*
X127274690Y-76316617D01*
X126935170Y-75976505D01*
X126491340Y-75792210D01*
X126207964Y-75791963D01*
X126208209Y-75510768D01*
X126024690Y-75066617D01*
X125685170Y-74726505D01*
X125241340Y-74542210D01*
X124760768Y-74541791D01*
X124316617Y-74725310D01*
X123976505Y-75064830D01*
X123882175Y-75292000D01*
X123171870Y-75292000D01*
X123171870Y-75125000D01*
X123147486Y-74995411D01*
X123171870Y-74875000D01*
X123171870Y-74325000D01*
X123153412Y-74226906D01*
X123158000Y-74215830D01*
X123158000Y-74031000D01*
X123085000Y-73958000D01*
X124500000Y-73958000D01*
X124866611Y-73885077D01*
X125177408Y-73677408D01*
X125846816Y-73008000D01*
X127500328Y-73008000D01*
X127417000Y-73209170D01*
X127417000Y-73719000D01*
X127594000Y-73896000D01*
X128446000Y-73896000D01*
X128446000Y-73876000D01*
X128554000Y-73876000D01*
X128554000Y-73896000D01*
X129406000Y-73896000D01*
X129583000Y-73719000D01*
X129583000Y-73209170D01*
X129494996Y-72996710D01*
X129539997Y-72930848D01*
X129596870Y-72650000D01*
X129596870Y-71450000D01*
X129547502Y-71187631D01*
X129392442Y-70946661D01*
X129155848Y-70785003D01*
X128875000Y-70728130D01*
X128125000Y-70728130D01*
X127862631Y-70777498D01*
X127621661Y-70932558D01*
X127512719Y-71092000D01*
X126208000Y-71092000D01*
X126208000Y-69666479D01*
X126314830Y-69773495D01*
X126758660Y-69957790D01*
X127239232Y-69958209D01*
X127683383Y-69774690D01*
X128023495Y-69435170D01*
X128207790Y-68991340D01*
X128207863Y-68908000D01*
X159500000Y-68908000D01*
X159847477Y-68838883D01*
X160142053Y-68642053D01*
X162688369Y-66095737D01*
X162969211Y-66151600D01*
X163030789Y-66151600D01*
X163632214Y-66031969D01*
X164142078Y-65691289D01*
X164273288Y-65494919D01*
X164673281Y-65891007D01*
X165240957Y-66122891D01*
X165486000Y-65973676D01*
X165486000Y-64634000D01*
X165466000Y-64634000D01*
X165466000Y-64526000D01*
X165486000Y-64526000D01*
X165486000Y-64506000D01*
X165594000Y-64506000D01*
X165594000Y-64526000D01*
G36*
X117442000Y-76546816D02*
X117442000Y-77315000D01*
X117369000Y-77242000D01*
X117184170Y-77242000D01*
X117170813Y-77247533D01*
X117075000Y-77228130D01*
X116525000Y-77228130D01*
X116395411Y-77252514D01*
X116275000Y-77228130D01*
X115725000Y-77228130D01*
X115595411Y-77252514D01*
X115475000Y-77228130D01*
X114925000Y-77228130D01*
X114795411Y-77252514D01*
X114675000Y-77228130D01*
X114125000Y-77228130D01*
X113995411Y-77252514D01*
X113875000Y-77228130D01*
X113325000Y-77228130D01*
X113195411Y-77252514D01*
X113075000Y-77228130D01*
X112525000Y-77228130D01*
X112395411Y-77252514D01*
X112275000Y-77228130D01*
X111771870Y-77228130D01*
X111771870Y-77108000D01*
X114800000Y-77108000D01*
X115147477Y-77038883D01*
X115268502Y-76958017D01*
X115489232Y-76958209D01*
X115933383Y-76774690D01*
X116273495Y-76435170D01*
X116457790Y-75991340D01*
X116458163Y-75562979D01*
X117442000Y-76546816D01*
X117442000Y-76546816D01*
G37*
X117442000Y-76546816D02*
X117442000Y-77315000D01*
X117369000Y-77242000D01*
X117184170Y-77242000D01*
X117170813Y-77247533D01*
X117075000Y-77228130D01*
X116525000Y-77228130D01*
X116395411Y-77252514D01*
X116275000Y-77228130D01*
X115725000Y-77228130D01*
X115595411Y-77252514D01*
X115475000Y-77228130D01*
X114925000Y-77228130D01*
X114795411Y-77252514D01*
X114675000Y-77228130D01*
X114125000Y-77228130D01*
X113995411Y-77252514D01*
X113875000Y-77228130D01*
X113325000Y-77228130D01*
X113195411Y-77252514D01*
X113075000Y-77228130D01*
X112525000Y-77228130D01*
X112395411Y-77252514D01*
X112275000Y-77228130D01*
X111771870Y-77228130D01*
X111771870Y-77108000D01*
X114800000Y-77108000D01*
X115147477Y-77038883D01*
X115268502Y-76958017D01*
X115489232Y-76958209D01*
X115933383Y-76774690D01*
X116273495Y-76435170D01*
X116457790Y-75991340D01*
X116458163Y-75562979D01*
X117442000Y-76546816D01*
G36*
X120242000Y-74031000D02*
X120242000Y-74215830D01*
X120247533Y-74229187D01*
X120228130Y-74325000D01*
X120228130Y-74875000D01*
X120252514Y-75004589D01*
X120228130Y-75125000D01*
X120228130Y-75675000D01*
X120252514Y-75804589D01*
X120228130Y-75925000D01*
X120228130Y-76475000D01*
X120252514Y-76604589D01*
X120228130Y-76725000D01*
X120228130Y-77228130D01*
X119725000Y-77228130D01*
X119595411Y-77252514D01*
X119475000Y-77228130D01*
X119358000Y-77228130D01*
X119358000Y-76150000D01*
X119285077Y-75783389D01*
X119077408Y-75472592D01*
X118204816Y-74600000D01*
X118846817Y-73958000D01*
X120315000Y-73958000D01*
X120242000Y-74031000D01*
X120242000Y-74031000D01*
G37*
X120242000Y-74031000D02*
X120242000Y-74215830D01*
X120247533Y-74229187D01*
X120228130Y-74325000D01*
X120228130Y-74875000D01*
X120252514Y-75004589D01*
X120228130Y-75125000D01*
X120228130Y-75675000D01*
X120252514Y-75804589D01*
X120228130Y-75925000D01*
X120228130Y-76475000D01*
X120252514Y-76604589D01*
X120228130Y-76725000D01*
X120228130Y-77228130D01*
X119725000Y-77228130D01*
X119595411Y-77252514D01*
X119475000Y-77228130D01*
X119358000Y-77228130D01*
X119358000Y-76150000D01*
X119285077Y-75783389D01*
X119077408Y-75472592D01*
X118204816Y-74600000D01*
X118846817Y-73958000D01*
X120315000Y-73958000D01*
X120242000Y-74031000D01*
G36*
X114631000Y-68758000D02*
X114815830Y-68758000D01*
X114829187Y-68752467D01*
X114925000Y-68771870D01*
X115475000Y-68771870D01*
X115604589Y-68747486D01*
X115725000Y-68771870D01*
X116275000Y-68771870D01*
X116404589Y-68747486D01*
X116525000Y-68771870D01*
X117075000Y-68771870D01*
X117204589Y-68747486D01*
X117278893Y-68762533D01*
X117226505Y-68814830D01*
X117042210Y-69258660D01*
X117041927Y-69583448D01*
X116935170Y-69476505D01*
X116491340Y-69292210D01*
X116010768Y-69291791D01*
X115566617Y-69475310D01*
X115226505Y-69814830D01*
X115042210Y-70258660D01*
X115041791Y-70739232D01*
X115225310Y-71183383D01*
X115564830Y-71523495D01*
X116008660Y-71707790D01*
X116173828Y-71707934D01*
X117280539Y-72814645D01*
X116453184Y-73642000D01*
X114212816Y-73642000D01*
X114277408Y-73577408D01*
X114485077Y-73266611D01*
X114558000Y-72900000D01*
X114558000Y-68685000D01*
X114631000Y-68758000D01*
X114631000Y-68758000D01*
G37*
X114631000Y-68758000D02*
X114815830Y-68758000D01*
X114829187Y-68752467D01*
X114925000Y-68771870D01*
X115475000Y-68771870D01*
X115604589Y-68747486D01*
X115725000Y-68771870D01*
X116275000Y-68771870D01*
X116404589Y-68747486D01*
X116525000Y-68771870D01*
X117075000Y-68771870D01*
X117204589Y-68747486D01*
X117278893Y-68762533D01*
X117226505Y-68814830D01*
X117042210Y-69258660D01*
X117041927Y-69583448D01*
X116935170Y-69476505D01*
X116491340Y-69292210D01*
X116010768Y-69291791D01*
X115566617Y-69475310D01*
X115226505Y-69814830D01*
X115042210Y-70258660D01*
X115041791Y-70739232D01*
X115225310Y-71183383D01*
X115564830Y-71523495D01*
X116008660Y-71707790D01*
X116173828Y-71707934D01*
X117280539Y-72814645D01*
X116453184Y-73642000D01*
X114212816Y-73642000D01*
X114277408Y-73577408D01*
X114485077Y-73266611D01*
X114558000Y-72900000D01*
X114558000Y-68685000D01*
X114631000Y-68758000D01*
G36*
X112525000Y-68771870D02*
X112642000Y-68771870D01*
X112642000Y-72503184D01*
X111758000Y-73387184D01*
X111758000Y-73384170D01*
X111752467Y-73370813D01*
X111771870Y-73275000D01*
X111771870Y-72725000D01*
X111747486Y-72595411D01*
X111771870Y-72475000D01*
X111771870Y-71925000D01*
X111747486Y-71795411D01*
X111771870Y-71675000D01*
X111771870Y-71125000D01*
X111747486Y-70995411D01*
X111771870Y-70875000D01*
X111771870Y-70325000D01*
X111747486Y-70195411D01*
X111771870Y-70075000D01*
X111771870Y-69525000D01*
X111747486Y-69395411D01*
X111771870Y-69275000D01*
X111771870Y-68771870D01*
X112275000Y-68771870D01*
X112404589Y-68747486D01*
X112525000Y-68771870D01*
X112525000Y-68771870D01*
G37*
X112525000Y-68771870D02*
X112642000Y-68771870D01*
X112642000Y-72503184D01*
X111758000Y-73387184D01*
X111758000Y-73384170D01*
X111752467Y-73370813D01*
X111771870Y-73275000D01*
X111771870Y-72725000D01*
X111747486Y-72595411D01*
X111771870Y-72475000D01*
X111771870Y-71925000D01*
X111747486Y-71795411D01*
X111771870Y-71675000D01*
X111771870Y-71125000D01*
X111747486Y-70995411D01*
X111771870Y-70875000D01*
X111771870Y-70325000D01*
X111747486Y-70195411D01*
X111771870Y-70075000D01*
X111771870Y-69525000D01*
X111747486Y-69395411D01*
X111771870Y-69275000D01*
X111771870Y-68771870D01*
X112275000Y-68771870D01*
X112404589Y-68747486D01*
X112525000Y-68771870D01*
G36*
X89292210Y-57258660D02*
X89291919Y-57592000D01*
X88250000Y-57592000D01*
X87902524Y-57661116D01*
X87607947Y-57857947D01*
X85373894Y-60092000D01*
X82996617Y-60092000D01*
X82967442Y-60046661D01*
X82730848Y-59885003D01*
X82450000Y-59828130D01*
X81250000Y-59828130D01*
X80987631Y-59877498D01*
X80746733Y-60032511D01*
X80530848Y-59885003D01*
X80250000Y-59828130D01*
X79050000Y-59828130D01*
X78787631Y-59877498D01*
X78546661Y-60032558D01*
X78506046Y-60092000D01*
X76623965Y-60092000D01*
X76591578Y-60013617D01*
X76153688Y-59574962D01*
X75581265Y-59337271D01*
X74961454Y-59336730D01*
X74388617Y-59573422D01*
X73973775Y-59987541D01*
X73765551Y-59935817D01*
X72806368Y-60895000D01*
X73765551Y-61854183D01*
X73974318Y-61802325D01*
X74386312Y-62215038D01*
X74506179Y-62264811D01*
X75270000Y-63028632D01*
X76033237Y-62265395D01*
X76151383Y-62216578D01*
X76460500Y-61908000D01*
X78503383Y-61908000D01*
X78532558Y-61953339D01*
X78769152Y-62114997D01*
X79050000Y-62171870D01*
X80250000Y-62171870D01*
X80512369Y-62122502D01*
X80753267Y-61967489D01*
X80969152Y-62114997D01*
X81250000Y-62171870D01*
X82450000Y-62171870D01*
X82712369Y-62122502D01*
X82953339Y-61967442D01*
X82993954Y-61908000D01*
X85750000Y-61908000D01*
X86097477Y-61838883D01*
X86392053Y-61642053D01*
X87053106Y-60981000D01*
X89592000Y-60981000D01*
X89592000Y-61340830D01*
X89699787Y-61601050D01*
X89898950Y-61800213D01*
X90159170Y-61908000D01*
X90669000Y-61908000D01*
X90846000Y-61731000D01*
X90846000Y-60804000D01*
X89769000Y-60804000D01*
X89592000Y-60981000D01*
X87053106Y-60981000D01*
X87874936Y-60159170D01*
X89592000Y-60159170D01*
X89592000Y-60519000D01*
X89769000Y-60696000D01*
X90846000Y-60696000D01*
X90846000Y-59769000D01*
X90669000Y-59592000D01*
X90159170Y-59592000D01*
X89898950Y-59699787D01*
X89699787Y-59898950D01*
X89592000Y-60159170D01*
X87874936Y-60159170D01*
X88626106Y-59408000D01*
X102123894Y-59408000D01*
X103791933Y-61076039D01*
X103791791Y-61239232D01*
X103961281Y-61649429D01*
X103902523Y-61661117D01*
X103607947Y-61857947D01*
X102323894Y-63142000D01*
X101899470Y-63142000D01*
X102183383Y-63024690D01*
X102523495Y-62685170D01*
X102707790Y-62241340D01*
X102708209Y-61760768D01*
X102524690Y-61316617D01*
X102185170Y-60976505D01*
X101741340Y-60792210D01*
X101260768Y-60791791D01*
X100816617Y-60975310D01*
X100599549Y-61192000D01*
X100557677Y-61192000D01*
X100510848Y-61160003D01*
X100230000Y-61103130D01*
X99170000Y-61103130D01*
X98907631Y-61152498D01*
X98666661Y-61307558D01*
X98600590Y-61404256D01*
X98547442Y-61321661D01*
X98310848Y-61160003D01*
X98030000Y-61103130D01*
X96970000Y-61103130D01*
X96707631Y-61152498D01*
X96568541Y-61242000D01*
X96226106Y-61242000D01*
X95242737Y-60258631D01*
X95142053Y-60107947D01*
X94847477Y-59911117D01*
X94500000Y-59842000D01*
X94246617Y-59842000D01*
X94217442Y-59796661D01*
X93980848Y-59635003D01*
X93700000Y-59578130D01*
X92500000Y-59578130D01*
X92237631Y-59627498D01*
X91996661Y-59782558D01*
X91991449Y-59790186D01*
X91901050Y-59699787D01*
X91640830Y-59592000D01*
X91131000Y-59592000D01*
X90954000Y-59769000D01*
X90954000Y-60696000D01*
X90974000Y-60696000D01*
X90974000Y-60804000D01*
X90954000Y-60804000D01*
X90954000Y-61731000D01*
X91131000Y-61908000D01*
X91640830Y-61908000D01*
X91901050Y-61800213D01*
X91991687Y-61709576D01*
X92219152Y-61864997D01*
X92500000Y-61921870D01*
X93700000Y-61921870D01*
X93962369Y-61872502D01*
X94160745Y-61744851D01*
X94690894Y-62275000D01*
X94040282Y-62925612D01*
X93980848Y-62885003D01*
X93700000Y-62828130D01*
X92500000Y-62828130D01*
X92237631Y-62877498D01*
X91996733Y-63032511D01*
X91780848Y-62885003D01*
X91500000Y-62828130D01*
X90300000Y-62828130D01*
X90037631Y-62877498D01*
X90015094Y-62892000D01*
X89481660Y-62892000D01*
X89241340Y-62792210D01*
X88760768Y-62791791D01*
X88316617Y-62975310D01*
X87976505Y-63314830D01*
X87792210Y-63758660D01*
X87791791Y-64239232D01*
X87975310Y-64683383D01*
X88314830Y-65023495D01*
X88758660Y-65207790D01*
X89239232Y-65208209D01*
X89481757Y-65108000D01*
X90008912Y-65108000D01*
X90019152Y-65114997D01*
X90300000Y-65171870D01*
X91500000Y-65171870D01*
X91762369Y-65122502D01*
X92003267Y-64967489D01*
X92219152Y-65114997D01*
X92500000Y-65171870D01*
X93700000Y-65171870D01*
X93962369Y-65122502D01*
X94203339Y-64967442D01*
X94243954Y-64908000D01*
X94250000Y-64908000D01*
X94597477Y-64838883D01*
X94892053Y-64642053D01*
X96380104Y-63154002D01*
X96438998Y-63154002D01*
X96262000Y-63331000D01*
X96262000Y-63565830D01*
X96274333Y-63595605D01*
X96248130Y-63725000D01*
X96248130Y-64375000D01*
X96297498Y-64637369D01*
X96452558Y-64878339D01*
X96689152Y-65039997D01*
X96970000Y-65096870D01*
X98030000Y-65096870D01*
X98292369Y-65047502D01*
X98431459Y-64958000D01*
X98769146Y-64958000D01*
X98889152Y-65039997D01*
X99170000Y-65096870D01*
X100230000Y-65096870D01*
X100492369Y-65047502D01*
X100631459Y-64958000D01*
X102700000Y-64958000D01*
X103047477Y-64888883D01*
X103342053Y-64692053D01*
X104626106Y-63408000D01*
X108449536Y-63408000D01*
X108564830Y-63523495D01*
X109008660Y-63707790D01*
X109489232Y-63708209D01*
X109933383Y-63524690D01*
X110273495Y-63185170D01*
X110457790Y-62741340D01*
X110458209Y-62260768D01*
X110274690Y-61816617D01*
X109935170Y-61476505D01*
X109491340Y-61292210D01*
X109010768Y-61291791D01*
X108566617Y-61475310D01*
X108449724Y-61592000D01*
X106062183Y-61592000D01*
X106207790Y-61241340D01*
X106207985Y-61017875D01*
X106383389Y-61135077D01*
X106750000Y-61208000D01*
X109750000Y-61208000D01*
X110116611Y-61135077D01*
X110427408Y-60927408D01*
X110842000Y-60512817D01*
X110842000Y-63250000D01*
X110911117Y-63597477D01*
X111107947Y-63892053D01*
X111892000Y-64676106D01*
X111892000Y-65828130D01*
X111725000Y-65828130D01*
X111462631Y-65877498D01*
X111221661Y-66032558D01*
X111060003Y-66269152D01*
X111003130Y-66550000D01*
X111003130Y-68003130D01*
X109550000Y-68003130D01*
X109287631Y-68052498D01*
X109226243Y-68092000D01*
X108618187Y-68092000D01*
X108347477Y-67911117D01*
X108000000Y-67842000D01*
X104207920Y-67842000D01*
X104208209Y-67510768D01*
X104024690Y-67066617D01*
X103685170Y-66726505D01*
X103241340Y-66542210D01*
X102760768Y-66541791D01*
X102316617Y-66725310D01*
X102199724Y-66842000D01*
X85626106Y-66842000D01*
X83142053Y-64357947D01*
X82847477Y-64161117D01*
X82500000Y-64092000D01*
X76333370Y-64092000D01*
X76305553Y-64064183D01*
X76586139Y-63994484D01*
X76826345Y-63423112D01*
X76829611Y-62803309D01*
X76595441Y-62229436D01*
X76586139Y-62215516D01*
X76305551Y-62145817D01*
X75346368Y-63105000D01*
X75360510Y-63119142D01*
X75284142Y-63195510D01*
X75270000Y-63181368D01*
X75255858Y-63195510D01*
X75179490Y-63119142D01*
X75193632Y-63105000D01*
X74234449Y-62145817D01*
X74025682Y-62197675D01*
X73613688Y-61784962D01*
X73493821Y-61735189D01*
X72730000Y-60971368D01*
X71966763Y-61734605D01*
X71848617Y-61783422D01*
X71434316Y-62197000D01*
X70064183Y-62197000D01*
X69967442Y-62046661D01*
X69730848Y-61885003D01*
X69450000Y-61828130D01*
X68250000Y-61828130D01*
X67987631Y-61877498D01*
X67746733Y-62032511D01*
X67530848Y-61885003D01*
X67250000Y-61828130D01*
X66050000Y-61828130D01*
X65787631Y-61877498D01*
X65546661Y-62032558D01*
X65385003Y-62269152D01*
X65328130Y-62550000D01*
X65328130Y-63450000D01*
X65377498Y-63712369D01*
X65532558Y-63953339D01*
X65692000Y-64062281D01*
X65692000Y-64897927D01*
X65542210Y-65258660D01*
X65541791Y-65739232D01*
X65725310Y-66183383D01*
X66064830Y-66523495D01*
X66508660Y-66707790D01*
X66989232Y-66708209D01*
X67433383Y-66524690D01*
X67773495Y-66185170D01*
X67957790Y-65741340D01*
X67958209Y-65260768D01*
X67774690Y-64816617D01*
X67608000Y-64649636D01*
X67608000Y-64060965D01*
X67753267Y-63967489D01*
X67969152Y-64114997D01*
X68250000Y-64171870D01*
X69450000Y-64171870D01*
X69712369Y-64122502D01*
X69882540Y-64013000D01*
X71434993Y-64013000D01*
X71846312Y-64425038D01*
X72418735Y-64662729D01*
X73004134Y-64663240D01*
X73982947Y-65642053D01*
X74277523Y-65838883D01*
X74625000Y-65908000D01*
X75057894Y-65908000D01*
X73873894Y-67092000D01*
X56197703Y-67092000D01*
X56257775Y-66790000D01*
X56138144Y-66188575D01*
X55841757Y-65745000D01*
X55917050Y-65713813D01*
X56116213Y-65514650D01*
X56224000Y-65254430D01*
X56224000Y-64481000D01*
X56047000Y-64304000D01*
X54554000Y-64304000D01*
X54554000Y-64324000D01*
X54446000Y-64324000D01*
X54446000Y-64304000D01*
X54426000Y-64304000D01*
X54426000Y-64196000D01*
X54446000Y-64196000D01*
X54446000Y-62855400D01*
X54554000Y-62855400D01*
X54554000Y-64196000D01*
X56047000Y-64196000D01*
X56224000Y-64019000D01*
X56224000Y-63245570D01*
X56116213Y-62985350D01*
X55917050Y-62786187D01*
X55656830Y-62678400D01*
X54731000Y-62678400D01*
X54554000Y-62855400D01*
X54446000Y-62855400D01*
X54269000Y-62678400D01*
X53343170Y-62678400D01*
X53200000Y-62737703D01*
X53200000Y-61196691D01*
X71170389Y-61196691D01*
X71404559Y-61770564D01*
X71413861Y-61784484D01*
X71694449Y-61854183D01*
X72653632Y-60895000D01*
X71694449Y-59935817D01*
X71413861Y-60005516D01*
X71173655Y-60576888D01*
X71170389Y-61196691D01*
X53200000Y-61196691D01*
X53200000Y-59859449D01*
X71770817Y-59859449D01*
X72730000Y-60818632D01*
X73689183Y-59859449D01*
X73619484Y-59578861D01*
X73048112Y-59338655D01*
X72428309Y-59335389D01*
X71854436Y-59569559D01*
X71840516Y-59578861D01*
X71770817Y-59859449D01*
X53200000Y-59859449D01*
X53200000Y-59283000D01*
X68154430Y-59283000D01*
X68154430Y-57200000D01*
X89316568Y-57200000D01*
X89292210Y-57258660D01*
X89292210Y-57258660D01*
G37*
X89292210Y-57258660D02*
X89291919Y-57592000D01*
X88250000Y-57592000D01*
X87902524Y-57661116D01*
X87607947Y-57857947D01*
X85373894Y-60092000D01*
X82996617Y-60092000D01*
X82967442Y-60046661D01*
X82730848Y-59885003D01*
X82450000Y-59828130D01*
X81250000Y-59828130D01*
X80987631Y-59877498D01*
X80746733Y-60032511D01*
X80530848Y-59885003D01*
X80250000Y-59828130D01*
X79050000Y-59828130D01*
X78787631Y-59877498D01*
X78546661Y-60032558D01*
X78506046Y-60092000D01*
X76623965Y-60092000D01*
X76591578Y-60013617D01*
X76153688Y-59574962D01*
X75581265Y-59337271D01*
X74961454Y-59336730D01*
X74388617Y-59573422D01*
X73973775Y-59987541D01*
X73765551Y-59935817D01*
X72806368Y-60895000D01*
X73765551Y-61854183D01*
X73974318Y-61802325D01*
X74386312Y-62215038D01*
X74506179Y-62264811D01*
X75270000Y-63028632D01*
X76033237Y-62265395D01*
X76151383Y-62216578D01*
X76460500Y-61908000D01*
X78503383Y-61908000D01*
X78532558Y-61953339D01*
X78769152Y-62114997D01*
X79050000Y-62171870D01*
X80250000Y-62171870D01*
X80512369Y-62122502D01*
X80753267Y-61967489D01*
X80969152Y-62114997D01*
X81250000Y-62171870D01*
X82450000Y-62171870D01*
X82712369Y-62122502D01*
X82953339Y-61967442D01*
X82993954Y-61908000D01*
X85750000Y-61908000D01*
X86097477Y-61838883D01*
X86392053Y-61642053D01*
X87053106Y-60981000D01*
X89592000Y-60981000D01*
X89592000Y-61340830D01*
X89699787Y-61601050D01*
X89898950Y-61800213D01*
X90159170Y-61908000D01*
X90669000Y-61908000D01*
X90846000Y-61731000D01*
X90846000Y-60804000D01*
X89769000Y-60804000D01*
X89592000Y-60981000D01*
X87053106Y-60981000D01*
X87874936Y-60159170D01*
X89592000Y-60159170D01*
X89592000Y-60519000D01*
X89769000Y-60696000D01*
X90846000Y-60696000D01*
X90846000Y-59769000D01*
X90669000Y-59592000D01*
X90159170Y-59592000D01*
X89898950Y-59699787D01*
X89699787Y-59898950D01*
X89592000Y-60159170D01*
X87874936Y-60159170D01*
X88626106Y-59408000D01*
X102123894Y-59408000D01*
X103791933Y-61076039D01*
X103791791Y-61239232D01*
X103961281Y-61649429D01*
X103902523Y-61661117D01*
X103607947Y-61857947D01*
X102323894Y-63142000D01*
X101899470Y-63142000D01*
X102183383Y-63024690D01*
X102523495Y-62685170D01*
X102707790Y-62241340D01*
X102708209Y-61760768D01*
X102524690Y-61316617D01*
X102185170Y-60976505D01*
X101741340Y-60792210D01*
X101260768Y-60791791D01*
X100816617Y-60975310D01*
X100599549Y-61192000D01*
X100557677Y-61192000D01*
X100510848Y-61160003D01*
X100230000Y-61103130D01*
X99170000Y-61103130D01*
X98907631Y-61152498D01*
X98666661Y-61307558D01*
X98600590Y-61404256D01*
X98547442Y-61321661D01*
X98310848Y-61160003D01*
X98030000Y-61103130D01*
X96970000Y-61103130D01*
X96707631Y-61152498D01*
X96568541Y-61242000D01*
X96226106Y-61242000D01*
X95242737Y-60258631D01*
X95142053Y-60107947D01*
X94847477Y-59911117D01*
X94500000Y-59842000D01*
X94246617Y-59842000D01*
X94217442Y-59796661D01*
X93980848Y-59635003D01*
X93700000Y-59578130D01*
X92500000Y-59578130D01*
X92237631Y-59627498D01*
X91996661Y-59782558D01*
X91991449Y-59790186D01*
X91901050Y-59699787D01*
X91640830Y-59592000D01*
X91131000Y-59592000D01*
X90954000Y-59769000D01*
X90954000Y-60696000D01*
X90974000Y-60696000D01*
X90974000Y-60804000D01*
X90954000Y-60804000D01*
X90954000Y-61731000D01*
X91131000Y-61908000D01*
X91640830Y-61908000D01*
X91901050Y-61800213D01*
X91991687Y-61709576D01*
X92219152Y-61864997D01*
X92500000Y-61921870D01*
X93700000Y-61921870D01*
X93962369Y-61872502D01*
X94160745Y-61744851D01*
X94690894Y-62275000D01*
X94040282Y-62925612D01*
X93980848Y-62885003D01*
X93700000Y-62828130D01*
X92500000Y-62828130D01*
X92237631Y-62877498D01*
X91996733Y-63032511D01*
X91780848Y-62885003D01*
X91500000Y-62828130D01*
X90300000Y-62828130D01*
X90037631Y-62877498D01*
X90015094Y-62892000D01*
X89481660Y-62892000D01*
X89241340Y-62792210D01*
X88760768Y-62791791D01*
X88316617Y-62975310D01*
X87976505Y-63314830D01*
X87792210Y-63758660D01*
X87791791Y-64239232D01*
X87975310Y-64683383D01*
X88314830Y-65023495D01*
X88758660Y-65207790D01*
X89239232Y-65208209D01*
X89481757Y-65108000D01*
X90008912Y-65108000D01*
X90019152Y-65114997D01*
X90300000Y-65171870D01*
X91500000Y-65171870D01*
X91762369Y-65122502D01*
X92003267Y-64967489D01*
X92219152Y-65114997D01*
X92500000Y-65171870D01*
X93700000Y-65171870D01*
X93962369Y-65122502D01*
X94203339Y-64967442D01*
X94243954Y-64908000D01*
X94250000Y-64908000D01*
X94597477Y-64838883D01*
X94892053Y-64642053D01*
X96380104Y-63154002D01*
X96438998Y-63154002D01*
X96262000Y-63331000D01*
X96262000Y-63565830D01*
X96274333Y-63595605D01*
X96248130Y-63725000D01*
X96248130Y-64375000D01*
X96297498Y-64637369D01*
X96452558Y-64878339D01*
X96689152Y-65039997D01*
X96970000Y-65096870D01*
X98030000Y-65096870D01*
X98292369Y-65047502D01*
X98431459Y-64958000D01*
X98769146Y-64958000D01*
X98889152Y-65039997D01*
X99170000Y-65096870D01*
X100230000Y-65096870D01*
X100492369Y-65047502D01*
X100631459Y-64958000D01*
X102700000Y-64958000D01*
X103047477Y-64888883D01*
X103342053Y-64692053D01*
X104626106Y-63408000D01*
X108449536Y-63408000D01*
X108564830Y-63523495D01*
X109008660Y-63707790D01*
X109489232Y-63708209D01*
X109933383Y-63524690D01*
X110273495Y-63185170D01*
X110457790Y-62741340D01*
X110458209Y-62260768D01*
X110274690Y-61816617D01*
X109935170Y-61476505D01*
X109491340Y-61292210D01*
X109010768Y-61291791D01*
X108566617Y-61475310D01*
X108449724Y-61592000D01*
X106062183Y-61592000D01*
X106207790Y-61241340D01*
X106207985Y-61017875D01*
X106383389Y-61135077D01*
X106750000Y-61208000D01*
X109750000Y-61208000D01*
X110116611Y-61135077D01*
X110427408Y-60927408D01*
X110842000Y-60512817D01*
X110842000Y-63250000D01*
X110911117Y-63597477D01*
X111107947Y-63892053D01*
X111892000Y-64676106D01*
X111892000Y-65828130D01*
X111725000Y-65828130D01*
X111462631Y-65877498D01*
X111221661Y-66032558D01*
X111060003Y-66269152D01*
X111003130Y-66550000D01*
X111003130Y-68003130D01*
X109550000Y-68003130D01*
X109287631Y-68052498D01*
X109226243Y-68092000D01*
X108618187Y-68092000D01*
X108347477Y-67911117D01*
X108000000Y-67842000D01*
X104207920Y-67842000D01*
X104208209Y-67510768D01*
X104024690Y-67066617D01*
X103685170Y-66726505D01*
X103241340Y-66542210D01*
X102760768Y-66541791D01*
X102316617Y-66725310D01*
X102199724Y-66842000D01*
X85626106Y-66842000D01*
X83142053Y-64357947D01*
X82847477Y-64161117D01*
X82500000Y-64092000D01*
X76333370Y-64092000D01*
X76305553Y-64064183D01*
X76586139Y-63994484D01*
X76826345Y-63423112D01*
X76829611Y-62803309D01*
X76595441Y-62229436D01*
X76586139Y-62215516D01*
X76305551Y-62145817D01*
X75346368Y-63105000D01*
X75360510Y-63119142D01*
X75284142Y-63195510D01*
X75270000Y-63181368D01*
X75255858Y-63195510D01*
X75179490Y-63119142D01*
X75193632Y-63105000D01*
X74234449Y-62145817D01*
X74025682Y-62197675D01*
X73613688Y-61784962D01*
X73493821Y-61735189D01*
X72730000Y-60971368D01*
X71966763Y-61734605D01*
X71848617Y-61783422D01*
X71434316Y-62197000D01*
X70064183Y-62197000D01*
X69967442Y-62046661D01*
X69730848Y-61885003D01*
X69450000Y-61828130D01*
X68250000Y-61828130D01*
X67987631Y-61877498D01*
X67746733Y-62032511D01*
X67530848Y-61885003D01*
X67250000Y-61828130D01*
X66050000Y-61828130D01*
X65787631Y-61877498D01*
X65546661Y-62032558D01*
X65385003Y-62269152D01*
X65328130Y-62550000D01*
X65328130Y-63450000D01*
X65377498Y-63712369D01*
X65532558Y-63953339D01*
X65692000Y-64062281D01*
X65692000Y-64897927D01*
X65542210Y-65258660D01*
X65541791Y-65739232D01*
X65725310Y-66183383D01*
X66064830Y-66523495D01*
X66508660Y-66707790D01*
X66989232Y-66708209D01*
X67433383Y-66524690D01*
X67773495Y-66185170D01*
X67957790Y-65741340D01*
X67958209Y-65260768D01*
X67774690Y-64816617D01*
X67608000Y-64649636D01*
X67608000Y-64060965D01*
X67753267Y-63967489D01*
X67969152Y-64114997D01*
X68250000Y-64171870D01*
X69450000Y-64171870D01*
X69712369Y-64122502D01*
X69882540Y-64013000D01*
X71434993Y-64013000D01*
X71846312Y-64425038D01*
X72418735Y-64662729D01*
X73004134Y-64663240D01*
X73982947Y-65642053D01*
X74277523Y-65838883D01*
X74625000Y-65908000D01*
X75057894Y-65908000D01*
X73873894Y-67092000D01*
X56197703Y-67092000D01*
X56257775Y-66790000D01*
X56138144Y-66188575D01*
X55841757Y-65745000D01*
X55917050Y-65713813D01*
X56116213Y-65514650D01*
X56224000Y-65254430D01*
X56224000Y-64481000D01*
X56047000Y-64304000D01*
X54554000Y-64304000D01*
X54554000Y-64324000D01*
X54446000Y-64324000D01*
X54446000Y-64304000D01*
X54426000Y-64304000D01*
X54426000Y-64196000D01*
X54446000Y-64196000D01*
X54446000Y-62855400D01*
X54554000Y-62855400D01*
X54554000Y-64196000D01*
X56047000Y-64196000D01*
X56224000Y-64019000D01*
X56224000Y-63245570D01*
X56116213Y-62985350D01*
X55917050Y-62786187D01*
X55656830Y-62678400D01*
X54731000Y-62678400D01*
X54554000Y-62855400D01*
X54446000Y-62855400D01*
X54269000Y-62678400D01*
X53343170Y-62678400D01*
X53200000Y-62737703D01*
X53200000Y-61196691D01*
X71170389Y-61196691D01*
X71404559Y-61770564D01*
X71413861Y-61784484D01*
X71694449Y-61854183D01*
X72653632Y-60895000D01*
X71694449Y-59935817D01*
X71413861Y-60005516D01*
X71173655Y-60576888D01*
X71170389Y-61196691D01*
X53200000Y-61196691D01*
X53200000Y-59859449D01*
X71770817Y-59859449D01*
X72730000Y-60818632D01*
X73689183Y-59859449D01*
X73619484Y-59578861D01*
X73048112Y-59338655D01*
X72428309Y-59335389D01*
X71854436Y-59569559D01*
X71840516Y-59578861D01*
X71770817Y-59859449D01*
X53200000Y-59859449D01*
X53200000Y-59283000D01*
X68154430Y-59283000D01*
X68154430Y-57200000D01*
X89316568Y-57200000D01*
X89292210Y-57258660D01*
G36*
X156472592Y-58922592D02*
X156264923Y-59233389D01*
X156192000Y-59600000D01*
X156192000Y-63689035D01*
X156046661Y-63782558D01*
X155885003Y-64019152D01*
X155828130Y-64300000D01*
X155828130Y-65200000D01*
X155846667Y-65298517D01*
X155353184Y-65792000D01*
X141992106Y-65792000D01*
X142242053Y-65542053D01*
X142438883Y-65247477D01*
X142508000Y-64900000D01*
X142508000Y-64093139D01*
X142632540Y-64013000D01*
X143434993Y-64013000D01*
X143846312Y-64425038D01*
X144418735Y-64662729D01*
X145038546Y-64663270D01*
X145611383Y-64426578D01*
X145897909Y-64140551D01*
X146310817Y-64140551D01*
X146380516Y-64421139D01*
X146951888Y-64661345D01*
X147571691Y-64664611D01*
X148145564Y-64430441D01*
X148159484Y-64421139D01*
X148229183Y-64140551D01*
X147270000Y-63181368D01*
X146310817Y-64140551D01*
X145897909Y-64140551D01*
X146026225Y-64012459D01*
X146234449Y-64064183D01*
X147193632Y-63105000D01*
X147346368Y-63105000D01*
X148305551Y-64064183D01*
X148586139Y-63994484D01*
X148826345Y-63423112D01*
X148829611Y-62803309D01*
X148595441Y-62229436D01*
X148586139Y-62215516D01*
X148305551Y-62145817D01*
X147346368Y-63105000D01*
X147193632Y-63105000D01*
X146234449Y-62145817D01*
X146025682Y-62197675D01*
X145613688Y-61784962D01*
X145493821Y-61735189D01*
X144730000Y-60971368D01*
X143966763Y-61734605D01*
X143848617Y-61783422D01*
X143434316Y-62197000D01*
X142814183Y-62197000D01*
X142717442Y-62046661D01*
X142480848Y-61885003D01*
X142200000Y-61828130D01*
X141000000Y-61828130D01*
X140737631Y-61877498D01*
X140496733Y-62032511D01*
X140280848Y-61885003D01*
X140000000Y-61828130D01*
X138800000Y-61828130D01*
X138537631Y-61877498D01*
X138296661Y-62032558D01*
X138290210Y-62042000D01*
X138000000Y-62042000D01*
X137633389Y-62114923D01*
X137322592Y-62322591D01*
X137054512Y-62590671D01*
X137158000Y-62340830D01*
X137158000Y-61831000D01*
X136981000Y-61654000D01*
X136054000Y-61654000D01*
X136054000Y-62731000D01*
X136231000Y-62908000D01*
X136479520Y-62908000D01*
X136316617Y-62975310D01*
X135976505Y-63314830D01*
X135792210Y-63758660D01*
X135791791Y-64239232D01*
X135937551Y-64592000D01*
X133442106Y-64592000D01*
X134142053Y-63892053D01*
X134338884Y-63597476D01*
X134408000Y-63250000D01*
X134408000Y-62746617D01*
X134453339Y-62717442D01*
X134614997Y-62480848D01*
X134671870Y-62200000D01*
X134671870Y-61831000D01*
X134842000Y-61831000D01*
X134842000Y-62340830D01*
X134949787Y-62601050D01*
X135148950Y-62800213D01*
X135409170Y-62908000D01*
X135769000Y-62908000D01*
X135946000Y-62731000D01*
X135946000Y-61654000D01*
X135019000Y-61654000D01*
X134842000Y-61831000D01*
X134671870Y-61831000D01*
X134671870Y-61000000D01*
X134622502Y-60737631D01*
X134467489Y-60496733D01*
X134596445Y-60308000D01*
X134906861Y-60308000D01*
X135032558Y-60503339D01*
X135040186Y-60508551D01*
X134949787Y-60598950D01*
X134842000Y-60859170D01*
X134842000Y-61369000D01*
X135019000Y-61546000D01*
X135946000Y-61546000D01*
X135946000Y-61526000D01*
X136054000Y-61526000D01*
X136054000Y-61546000D01*
X136981000Y-61546000D01*
X137158000Y-61369000D01*
X137158000Y-61196691D01*
X143170389Y-61196691D01*
X143404559Y-61770564D01*
X143413861Y-61784484D01*
X143694449Y-61854183D01*
X144653632Y-60895000D01*
X143694449Y-59935817D01*
X143413861Y-60005516D01*
X143173655Y-60576888D01*
X143170389Y-61196691D01*
X137158000Y-61196691D01*
X137158000Y-60859170D01*
X137050213Y-60598950D01*
X136959576Y-60508313D01*
X137114997Y-60280848D01*
X137171870Y-60000000D01*
X137171870Y-59859449D01*
X143770817Y-59859449D01*
X144730000Y-60818632D01*
X145689183Y-59859449D01*
X145619484Y-59578861D01*
X145048112Y-59338655D01*
X144428309Y-59335389D01*
X143854436Y-59569559D01*
X143840516Y-59578861D01*
X143770817Y-59859449D01*
X137171870Y-59859449D01*
X137171870Y-58908000D01*
X148828130Y-58908000D01*
X148828130Y-59000000D01*
X148877498Y-59262369D01*
X149032511Y-59503267D01*
X148885003Y-59719152D01*
X148830763Y-59987000D01*
X148565007Y-59987000D01*
X148153688Y-59574962D01*
X147581265Y-59337271D01*
X146961454Y-59336730D01*
X146388617Y-59573422D01*
X145973775Y-59987541D01*
X145765551Y-59935817D01*
X144806368Y-60895000D01*
X145765551Y-61854183D01*
X145974318Y-61802325D01*
X146386312Y-62215038D01*
X146506179Y-62264811D01*
X147270000Y-63028632D01*
X148033237Y-62265395D01*
X148151383Y-62216578D01*
X148565684Y-61803000D01*
X149178417Y-61803000D01*
X149269152Y-61864997D01*
X149550000Y-61921870D01*
X150450000Y-61921870D01*
X150712369Y-61872502D01*
X150953339Y-61717442D01*
X151114997Y-61480848D01*
X151171870Y-61200000D01*
X151171870Y-60000000D01*
X151122502Y-59737631D01*
X150967489Y-59496733D01*
X151114997Y-59280848D01*
X151171870Y-59000000D01*
X151171870Y-57800000D01*
X151122502Y-57537631D01*
X150967442Y-57296661D01*
X150825974Y-57200000D01*
X158195184Y-57200000D01*
X156472592Y-58922592D01*
X156472592Y-58922592D01*
G37*
X156472592Y-58922592D02*
X156264923Y-59233389D01*
X156192000Y-59600000D01*
X156192000Y-63689035D01*
X156046661Y-63782558D01*
X155885003Y-64019152D01*
X155828130Y-64300000D01*
X155828130Y-65200000D01*
X155846667Y-65298517D01*
X155353184Y-65792000D01*
X141992106Y-65792000D01*
X142242053Y-65542053D01*
X142438883Y-65247477D01*
X142508000Y-64900000D01*
X142508000Y-64093139D01*
X142632540Y-64013000D01*
X143434993Y-64013000D01*
X143846312Y-64425038D01*
X144418735Y-64662729D01*
X145038546Y-64663270D01*
X145611383Y-64426578D01*
X145897909Y-64140551D01*
X146310817Y-64140551D01*
X146380516Y-64421139D01*
X146951888Y-64661345D01*
X147571691Y-64664611D01*
X148145564Y-64430441D01*
X148159484Y-64421139D01*
X148229183Y-64140551D01*
X147270000Y-63181368D01*
X146310817Y-64140551D01*
X145897909Y-64140551D01*
X146026225Y-64012459D01*
X146234449Y-64064183D01*
X147193632Y-63105000D01*
X147346368Y-63105000D01*
X148305551Y-64064183D01*
X148586139Y-63994484D01*
X148826345Y-63423112D01*
X148829611Y-62803309D01*
X148595441Y-62229436D01*
X148586139Y-62215516D01*
X148305551Y-62145817D01*
X147346368Y-63105000D01*
X147193632Y-63105000D01*
X146234449Y-62145817D01*
X146025682Y-62197675D01*
X145613688Y-61784962D01*
X145493821Y-61735189D01*
X144730000Y-60971368D01*
X143966763Y-61734605D01*
X143848617Y-61783422D01*
X143434316Y-62197000D01*
X142814183Y-62197000D01*
X142717442Y-62046661D01*
X142480848Y-61885003D01*
X142200000Y-61828130D01*
X141000000Y-61828130D01*
X140737631Y-61877498D01*
X140496733Y-62032511D01*
X140280848Y-61885003D01*
X140000000Y-61828130D01*
X138800000Y-61828130D01*
X138537631Y-61877498D01*
X138296661Y-62032558D01*
X138290210Y-62042000D01*
X138000000Y-62042000D01*
X137633389Y-62114923D01*
X137322592Y-62322591D01*
X137054512Y-62590671D01*
X137158000Y-62340830D01*
X137158000Y-61831000D01*
X136981000Y-61654000D01*
X136054000Y-61654000D01*
X136054000Y-62731000D01*
X136231000Y-62908000D01*
X136479520Y-62908000D01*
X136316617Y-62975310D01*
X135976505Y-63314830D01*
X135792210Y-63758660D01*
X135791791Y-64239232D01*
X135937551Y-64592000D01*
X133442106Y-64592000D01*
X134142053Y-63892053D01*
X134338884Y-63597476D01*
X134408000Y-63250000D01*
X134408000Y-62746617D01*
X134453339Y-62717442D01*
X134614997Y-62480848D01*
X134671870Y-62200000D01*
X134671870Y-61831000D01*
X134842000Y-61831000D01*
X134842000Y-62340830D01*
X134949787Y-62601050D01*
X135148950Y-62800213D01*
X135409170Y-62908000D01*
X135769000Y-62908000D01*
X135946000Y-62731000D01*
X135946000Y-61654000D01*
X135019000Y-61654000D01*
X134842000Y-61831000D01*
X134671870Y-61831000D01*
X134671870Y-61000000D01*
X134622502Y-60737631D01*
X134467489Y-60496733D01*
X134596445Y-60308000D01*
X134906861Y-60308000D01*
X135032558Y-60503339D01*
X135040186Y-60508551D01*
X134949787Y-60598950D01*
X134842000Y-60859170D01*
X134842000Y-61369000D01*
X135019000Y-61546000D01*
X135946000Y-61546000D01*
X135946000Y-61526000D01*
X136054000Y-61526000D01*
X136054000Y-61546000D01*
X136981000Y-61546000D01*
X137158000Y-61369000D01*
X137158000Y-61196691D01*
X143170389Y-61196691D01*
X143404559Y-61770564D01*
X143413861Y-61784484D01*
X143694449Y-61854183D01*
X144653632Y-60895000D01*
X143694449Y-59935817D01*
X143413861Y-60005516D01*
X143173655Y-60576888D01*
X143170389Y-61196691D01*
X137158000Y-61196691D01*
X137158000Y-60859170D01*
X137050213Y-60598950D01*
X136959576Y-60508313D01*
X137114997Y-60280848D01*
X137171870Y-60000000D01*
X137171870Y-59859449D01*
X143770817Y-59859449D01*
X144730000Y-60818632D01*
X145689183Y-59859449D01*
X145619484Y-59578861D01*
X145048112Y-59338655D01*
X144428309Y-59335389D01*
X143854436Y-59569559D01*
X143840516Y-59578861D01*
X143770817Y-59859449D01*
X137171870Y-59859449D01*
X137171870Y-58908000D01*
X148828130Y-58908000D01*
X148828130Y-59000000D01*
X148877498Y-59262369D01*
X149032511Y-59503267D01*
X148885003Y-59719152D01*
X148830763Y-59987000D01*
X148565007Y-59987000D01*
X148153688Y-59574962D01*
X147581265Y-59337271D01*
X146961454Y-59336730D01*
X146388617Y-59573422D01*
X145973775Y-59987541D01*
X145765551Y-59935817D01*
X144806368Y-60895000D01*
X145765551Y-61854183D01*
X145974318Y-61802325D01*
X146386312Y-62215038D01*
X146506179Y-62264811D01*
X147270000Y-63028632D01*
X148033237Y-62265395D01*
X148151383Y-62216578D01*
X148565684Y-61803000D01*
X149178417Y-61803000D01*
X149269152Y-61864997D01*
X149550000Y-61921870D01*
X150450000Y-61921870D01*
X150712369Y-61872502D01*
X150953339Y-61717442D01*
X151114997Y-61480848D01*
X151171870Y-61200000D01*
X151171870Y-60000000D01*
X151122502Y-59737631D01*
X150967489Y-59496733D01*
X151114997Y-59280848D01*
X151171870Y-59000000D01*
X151171870Y-57800000D01*
X151122502Y-57537631D01*
X150967442Y-57296661D01*
X150825974Y-57200000D01*
X158195184Y-57200000D01*
X156472592Y-58922592D01*
G36*
X117607947Y-57357947D02*
X117087147Y-57878747D01*
X116935170Y-57726505D01*
X116491340Y-57542210D01*
X116010768Y-57541791D01*
X115566617Y-57725310D01*
X115226505Y-58064830D01*
X115042210Y-58508660D01*
X115041791Y-58989232D01*
X115225310Y-59433383D01*
X115342000Y-59550276D01*
X115342000Y-59917000D01*
X115181000Y-59917000D01*
X115004000Y-60094000D01*
X115004000Y-60946000D01*
X115024000Y-60946000D01*
X115024000Y-61054000D01*
X115004000Y-61054000D01*
X115004000Y-61906000D01*
X115156947Y-62058947D01*
X114557947Y-62657947D01*
X114412785Y-62875197D01*
X114277408Y-62672591D01*
X114008000Y-62403183D01*
X114008000Y-61999672D01*
X114209170Y-62083000D01*
X114719000Y-62083000D01*
X114896000Y-61906000D01*
X114896000Y-61054000D01*
X114876000Y-61054000D01*
X114876000Y-60946000D01*
X114896000Y-60946000D01*
X114896000Y-60094000D01*
X114719000Y-59917000D01*
X114209170Y-59917000D01*
X113996710Y-60005004D01*
X113930848Y-59960003D01*
X113752181Y-59923822D01*
X113941289Y-59797464D01*
X114281969Y-59287600D01*
X114401600Y-58686175D01*
X114401600Y-58313825D01*
X114281969Y-57712400D01*
X113941289Y-57202536D01*
X113937494Y-57200000D01*
X117844330Y-57200000D01*
X117607947Y-57357947D01*
X117607947Y-57357947D01*
G37*
X117607947Y-57357947D02*
X117087147Y-57878747D01*
X116935170Y-57726505D01*
X116491340Y-57542210D01*
X116010768Y-57541791D01*
X115566617Y-57725310D01*
X115226505Y-58064830D01*
X115042210Y-58508660D01*
X115041791Y-58989232D01*
X115225310Y-59433383D01*
X115342000Y-59550276D01*
X115342000Y-59917000D01*
X115181000Y-59917000D01*
X115004000Y-60094000D01*
X115004000Y-60946000D01*
X115024000Y-60946000D01*
X115024000Y-61054000D01*
X115004000Y-61054000D01*
X115004000Y-61906000D01*
X115156947Y-62058947D01*
X114557947Y-62657947D01*
X114412785Y-62875197D01*
X114277408Y-62672591D01*
X114008000Y-62403183D01*
X114008000Y-61999672D01*
X114209170Y-62083000D01*
X114719000Y-62083000D01*
X114896000Y-61906000D01*
X114896000Y-61054000D01*
X114876000Y-61054000D01*
X114876000Y-60946000D01*
X114896000Y-60946000D01*
X114896000Y-60094000D01*
X114719000Y-59917000D01*
X114209170Y-59917000D01*
X113996710Y-60005004D01*
X113930848Y-59960003D01*
X113752181Y-59923822D01*
X113941289Y-59797464D01*
X114281969Y-59287600D01*
X114401600Y-58686175D01*
X114401600Y-58313825D01*
X114281969Y-57712400D01*
X113941289Y-57202536D01*
X113937494Y-57200000D01*
X117844330Y-57200000D01*
X117607947Y-57357947D01*
G36*
X127328130Y-60000000D02*
X127377498Y-60262369D01*
X127532558Y-60503339D01*
X127540186Y-60508551D01*
X127449787Y-60598950D01*
X127342000Y-60859170D01*
X127342000Y-61369000D01*
X127519000Y-61546000D01*
X128446000Y-61546000D01*
X128446000Y-61526000D01*
X128554000Y-61526000D01*
X128554000Y-61546000D01*
X129481000Y-61546000D01*
X129658000Y-61369000D01*
X129658000Y-60859170D01*
X129550213Y-60598950D01*
X129459576Y-60508313D01*
X129596445Y-60308000D01*
X129906861Y-60308000D01*
X130032511Y-60503267D01*
X129885003Y-60719152D01*
X129828130Y-61000000D01*
X129828130Y-62137764D01*
X129658000Y-62307894D01*
X129658000Y-61831000D01*
X129481000Y-61654000D01*
X128554000Y-61654000D01*
X128554000Y-61674000D01*
X128446000Y-61674000D01*
X128446000Y-61654000D01*
X127519000Y-61654000D01*
X127342000Y-61831000D01*
X127342000Y-62340830D01*
X127342485Y-62342000D01*
X118250000Y-62342000D01*
X118158000Y-62360300D01*
X118158000Y-59376106D01*
X118626106Y-58908000D01*
X127328130Y-58908000D01*
X127328130Y-60000000D01*
X127328130Y-60000000D01*
G37*
X127328130Y-60000000D02*
X127377498Y-60262369D01*
X127532558Y-60503339D01*
X127540186Y-60508551D01*
X127449787Y-60598950D01*
X127342000Y-60859170D01*
X127342000Y-61369000D01*
X127519000Y-61546000D01*
X128446000Y-61546000D01*
X128446000Y-61526000D01*
X128554000Y-61526000D01*
X128554000Y-61546000D01*
X129481000Y-61546000D01*
X129658000Y-61369000D01*
X129658000Y-60859170D01*
X129550213Y-60598950D01*
X129459576Y-60508313D01*
X129596445Y-60308000D01*
X129906861Y-60308000D01*
X130032511Y-60503267D01*
X129885003Y-60719152D01*
X129828130Y-61000000D01*
X129828130Y-62137764D01*
X129658000Y-62307894D01*
X129658000Y-61831000D01*
X129481000Y-61654000D01*
X128554000Y-61654000D01*
X128554000Y-61674000D01*
X128446000Y-61674000D01*
X128446000Y-61654000D01*
X127519000Y-61654000D01*
X127342000Y-61831000D01*
X127342000Y-62340830D01*
X127342485Y-62342000D01*
X118250000Y-62342000D01*
X118158000Y-62360300D01*
X118158000Y-59376106D01*
X118626106Y-58908000D01*
X127328130Y-58908000D01*
X127328130Y-60000000D01*
G36*
X107804000Y-58446000D02*
X107824000Y-58446000D01*
X107824000Y-58554000D01*
X107804000Y-58554000D01*
X107804000Y-58574000D01*
X107696000Y-58574000D01*
X107696000Y-58554000D01*
X107676000Y-58554000D01*
X107676000Y-58446000D01*
X107696000Y-58446000D01*
X107696000Y-58426000D01*
X107804000Y-58426000D01*
X107804000Y-58446000D01*
X107804000Y-58446000D01*
G37*
X107804000Y-58446000D02*
X107824000Y-58446000D01*
X107824000Y-58554000D01*
X107804000Y-58554000D01*
X107804000Y-58574000D01*
X107696000Y-58574000D01*
X107696000Y-58554000D01*
X107676000Y-58554000D01*
X107676000Y-58446000D01*
X107696000Y-58446000D01*
X107696000Y-58426000D01*
X107804000Y-58426000D01*
X107804000Y-58446000D01*
G36*
X148123894Y-72842000D02*
X146223564Y-72842000D01*
X145946780Y-72785950D01*
X144448180Y-72785950D01*
X144185811Y-72835318D01*
X143944841Y-72990378D01*
X143783183Y-73226972D01*
X143726310Y-73507820D01*
X143726310Y-74107260D01*
X143775678Y-74369629D01*
X143821457Y-74440771D01*
X143740180Y-74636990D01*
X143740180Y-74846540D01*
X143917180Y-75023540D01*
X145143480Y-75023540D01*
X145143480Y-75003540D01*
X145251480Y-75003540D01*
X145251480Y-75023540D01*
X146477780Y-75023540D01*
X146654780Y-74846540D01*
X146654780Y-74658000D01*
X150003383Y-74658000D01*
X150032558Y-74703339D01*
X150269152Y-74864997D01*
X150550000Y-74921870D01*
X151750000Y-74921870D01*
X152012369Y-74872502D01*
X152253267Y-74717489D01*
X152469152Y-74864997D01*
X152750000Y-74921870D01*
X153354922Y-74921870D01*
X153511182Y-75078130D01*
X152750000Y-75078130D01*
X152487631Y-75127498D01*
X152246733Y-75282511D01*
X152030848Y-75135003D01*
X151750000Y-75078130D01*
X150550000Y-75078130D01*
X150287631Y-75127498D01*
X150046661Y-75282558D01*
X150006046Y-75342000D01*
X149300464Y-75342000D01*
X149185170Y-75226505D01*
X148741340Y-75042210D01*
X148260768Y-75041791D01*
X147816617Y-75225310D01*
X147699724Y-75342000D01*
X146654780Y-75342000D01*
X146654780Y-75308540D01*
X146477780Y-75131540D01*
X145251480Y-75131540D01*
X145251480Y-75151540D01*
X145143480Y-75151540D01*
X145143480Y-75131540D01*
X143917180Y-75131540D01*
X143740180Y-75308540D01*
X143740180Y-75518090D01*
X143820592Y-75712222D01*
X143783183Y-75766972D01*
X143726310Y-76047820D01*
X143726310Y-76647260D01*
X143775678Y-76909629D01*
X143821457Y-76980771D01*
X143740180Y-77176990D01*
X143740180Y-77386540D01*
X143917180Y-77563540D01*
X145143480Y-77563540D01*
X145143480Y-77543540D01*
X145251480Y-77543540D01*
X145251480Y-77563540D01*
X146477780Y-77563540D01*
X146654780Y-77386540D01*
X146654780Y-77176990D01*
X146646914Y-77158000D01*
X147699536Y-77158000D01*
X147814830Y-77273495D01*
X148258660Y-77457790D01*
X148739232Y-77458209D01*
X149183383Y-77274690D01*
X149300276Y-77158000D01*
X150003383Y-77158000D01*
X150032558Y-77203339D01*
X150269152Y-77364997D01*
X150550000Y-77421870D01*
X151750000Y-77421870D01*
X152012369Y-77372502D01*
X152253267Y-77217489D01*
X152469152Y-77364997D01*
X152750000Y-77421870D01*
X153604922Y-77421870D01*
X154026717Y-77843666D01*
X153950000Y-77828130D01*
X152750000Y-77828130D01*
X152487631Y-77877498D01*
X152246733Y-78032511D01*
X152030848Y-77885003D01*
X151750000Y-77828130D01*
X150550000Y-77828130D01*
X150287631Y-77877498D01*
X150046661Y-78032558D01*
X150006046Y-78092000D01*
X147800464Y-78092000D01*
X147685170Y-77976505D01*
X147241340Y-77792210D01*
X146760768Y-77791791D01*
X146645612Y-77839372D01*
X146477780Y-77671540D01*
X145251480Y-77671540D01*
X145251480Y-77691540D01*
X145143480Y-77691540D01*
X145143480Y-77671540D01*
X143917180Y-77671540D01*
X143740180Y-77848540D01*
X143740180Y-78058090D01*
X143819282Y-78249059D01*
X143783183Y-78301892D01*
X143726310Y-78582740D01*
X143726310Y-79182180D01*
X143775678Y-79444549D01*
X143821457Y-79515691D01*
X143740180Y-79711910D01*
X143740180Y-79921460D01*
X143917180Y-80098460D01*
X145143480Y-80098460D01*
X145143480Y-80078460D01*
X145251480Y-80078460D01*
X145251480Y-80098460D01*
X145271480Y-80098460D01*
X145271480Y-80206460D01*
X145251480Y-80206460D01*
X145251480Y-80226460D01*
X145143480Y-80226460D01*
X145143480Y-80206460D01*
X143917180Y-80206460D01*
X143740180Y-80383460D01*
X143740180Y-80593010D01*
X143820592Y-80787142D01*
X143783183Y-80841892D01*
X143726310Y-81122740D01*
X143726310Y-81722180D01*
X143775678Y-81984549D01*
X143821457Y-82055691D01*
X143740180Y-82251910D01*
X143740180Y-82461460D01*
X143917180Y-82638460D01*
X145143480Y-82638460D01*
X145143480Y-82618460D01*
X145251480Y-82618460D01*
X145251480Y-82638460D01*
X146477780Y-82638460D01*
X146654780Y-82461460D01*
X146654780Y-82408000D01*
X148199536Y-82408000D01*
X148314830Y-82523495D01*
X148758660Y-82707790D01*
X149239232Y-82708209D01*
X149683383Y-82524690D01*
X149800276Y-82408000D01*
X150003383Y-82408000D01*
X150032558Y-82453339D01*
X150269152Y-82614997D01*
X150550000Y-82671870D01*
X151750000Y-82671870D01*
X152012369Y-82622502D01*
X152253267Y-82467489D01*
X152469152Y-82614997D01*
X152750000Y-82671870D01*
X153604922Y-82671870D01*
X154392000Y-83458949D01*
X154392000Y-86044261D01*
X154265830Y-85992000D01*
X153981000Y-85992000D01*
X153804000Y-86169000D01*
X153804000Y-87246000D01*
X153824000Y-87246000D01*
X153824000Y-87354000D01*
X153804000Y-87354000D01*
X153804000Y-87374000D01*
X153696000Y-87374000D01*
X153696000Y-87354000D01*
X152844000Y-87354000D01*
X152667000Y-87531000D01*
X152667000Y-88040830D01*
X152755004Y-88253290D01*
X152710003Y-88319152D01*
X152653130Y-88600000D01*
X152653130Y-89144045D01*
X152642000Y-89200000D01*
X152642000Y-93050000D01*
X152653130Y-93105955D01*
X152653130Y-93650000D01*
X152702498Y-93912369D01*
X152755696Y-93995040D01*
X152667000Y-94209170D01*
X152667000Y-94719000D01*
X152844000Y-94896000D01*
X153696000Y-94896000D01*
X153696000Y-94876000D01*
X153804000Y-94876000D01*
X153804000Y-94896000D01*
X154656000Y-94896000D01*
X154833000Y-94719000D01*
X154833000Y-94209170D01*
X154802692Y-94136000D01*
X156817000Y-94136000D01*
X156817000Y-94345830D01*
X156924787Y-94606050D01*
X157123950Y-94805213D01*
X157384170Y-94913000D01*
X158069000Y-94913000D01*
X158246000Y-94736000D01*
X158246000Y-93959000D01*
X156994000Y-93959000D01*
X156817000Y-94136000D01*
X154802692Y-94136000D01*
X154744996Y-93996710D01*
X154789997Y-93930848D01*
X154846870Y-93650000D01*
X154846870Y-93105955D01*
X154858000Y-93050000D01*
X154858000Y-92608000D01*
X155018340Y-92608000D01*
X155258660Y-92707790D01*
X155739232Y-92708209D01*
X156183383Y-92524690D01*
X156235163Y-92473000D01*
X156803130Y-92473000D01*
X156803130Y-92935000D01*
X156852498Y-93197369D01*
X156898136Y-93268292D01*
X156817000Y-93464170D01*
X156817000Y-93674000D01*
X156994000Y-93851000D01*
X158246000Y-93851000D01*
X158246000Y-93831000D01*
X158354000Y-93831000D01*
X158354000Y-93851000D01*
X158374000Y-93851000D01*
X158374000Y-93959000D01*
X158354000Y-93959000D01*
X158354000Y-94736000D01*
X158531000Y-94913000D01*
X159215830Y-94913000D01*
X159476050Y-94805213D01*
X159675213Y-94606050D01*
X159781794Y-94348742D01*
X162392000Y-96958949D01*
X162392000Y-99279441D01*
X162221631Y-99311498D01*
X161980661Y-99466558D01*
X161819003Y-99703152D01*
X161762130Y-99984000D01*
X161762130Y-101800000D01*
X139258741Y-101800000D01*
X139283474Y-101783474D01*
X141283474Y-99783474D01*
X141523659Y-99424014D01*
X141544547Y-99319003D01*
X141608000Y-99000000D01*
X141608000Y-95500000D01*
X141544548Y-95181000D01*
X152667000Y-95181000D01*
X152667000Y-95690830D01*
X152774787Y-95951050D01*
X152973950Y-96150213D01*
X153234170Y-96258000D01*
X153519000Y-96258000D01*
X153696000Y-96081000D01*
X153696000Y-95004000D01*
X153804000Y-95004000D01*
X153804000Y-96081000D01*
X153981000Y-96258000D01*
X154265830Y-96258000D01*
X154526050Y-96150213D01*
X154725213Y-95951050D01*
X154833000Y-95690830D01*
X154833000Y-95181000D01*
X154656000Y-95004000D01*
X153804000Y-95004000D01*
X153696000Y-95004000D01*
X152844000Y-95004000D01*
X152667000Y-95181000D01*
X141544548Y-95181000D01*
X141523659Y-95075987D01*
X141283475Y-94716526D01*
X139688474Y-93121526D01*
X139329014Y-92881341D01*
X138905000Y-92797000D01*
X138196870Y-92797000D01*
X138196870Y-92335000D01*
X138147502Y-92072631D01*
X138101847Y-92001682D01*
X138139997Y-91945848D01*
X138196870Y-91665000D01*
X138196870Y-91065000D01*
X138185204Y-91003000D01*
X138294371Y-91003000D01*
X138314830Y-91023495D01*
X138758660Y-91207790D01*
X139239232Y-91208209D01*
X139683383Y-91024690D01*
X140023495Y-90685170D01*
X140207790Y-90241340D01*
X140208209Y-89760768D01*
X140024690Y-89316617D01*
X139685170Y-88976505D01*
X139241340Y-88792210D01*
X138760768Y-88791791D01*
X138316617Y-88975310D01*
X138104558Y-89187000D01*
X137839266Y-89187000D01*
X137755848Y-89130003D01*
X137475000Y-89073130D01*
X135925000Y-89073130D01*
X135662631Y-89122498D01*
X135421661Y-89277558D01*
X135260003Y-89514152D01*
X135203130Y-89795000D01*
X135203130Y-90257000D01*
X134451287Y-90257000D01*
X134457790Y-90241340D01*
X134458209Y-89760768D01*
X134274690Y-89316617D01*
X133935170Y-88976505D01*
X133491340Y-88792210D01*
X133010768Y-88791791D01*
X132566617Y-88975310D01*
X132388978Y-89152640D01*
X132355848Y-89130003D01*
X132075000Y-89073130D01*
X130525000Y-89073130D01*
X130262631Y-89122498D01*
X130021661Y-89277558D01*
X129860003Y-89514152D01*
X129803130Y-89795000D01*
X129803130Y-90216181D01*
X129358000Y-89771052D01*
X129358000Y-89450000D01*
X129346870Y-89394045D01*
X129346870Y-88850000D01*
X129297502Y-88587631D01*
X129244304Y-88504960D01*
X129333000Y-88290830D01*
X129333000Y-87781000D01*
X129156000Y-87604000D01*
X128304000Y-87604000D01*
X128304000Y-87624000D01*
X128196000Y-87624000D01*
X128196000Y-87604000D01*
X127344000Y-87604000D01*
X127167000Y-87781000D01*
X127167000Y-88290830D01*
X127255004Y-88503290D01*
X127210003Y-88569152D01*
X127153130Y-88850000D01*
X127153130Y-89394045D01*
X127142000Y-89450000D01*
X127142000Y-90230000D01*
X127226341Y-90654014D01*
X127466526Y-91013474D01*
X127693052Y-91240000D01*
X127541052Y-91392000D01*
X125950000Y-91392000D01*
X125894045Y-91403130D01*
X125350000Y-91403130D01*
X125087631Y-91452498D01*
X125004960Y-91505696D01*
X124790830Y-91417000D01*
X124281000Y-91417000D01*
X124104000Y-91594000D01*
X124104000Y-92446000D01*
X124124000Y-92446000D01*
X124124000Y-92554000D01*
X124104000Y-92554000D01*
X124104000Y-93406000D01*
X124281000Y-93583000D01*
X124790830Y-93583000D01*
X125003290Y-93494996D01*
X125069152Y-93539997D01*
X125221011Y-93570749D01*
X124976505Y-93814830D01*
X124792210Y-94258660D01*
X124791791Y-94739232D01*
X124816900Y-94800000D01*
X95200000Y-94800000D01*
X95200000Y-92731000D01*
X122742000Y-92731000D01*
X122742000Y-93015830D01*
X122849787Y-93276050D01*
X123048950Y-93475213D01*
X123309170Y-93583000D01*
X123819000Y-93583000D01*
X123996000Y-93406000D01*
X123996000Y-92554000D01*
X122919000Y-92554000D01*
X122742000Y-92731000D01*
X95200000Y-92731000D01*
X95200000Y-91984170D01*
X122742000Y-91984170D01*
X122742000Y-92269000D01*
X122919000Y-92446000D01*
X123996000Y-92446000D01*
X123996000Y-91594000D01*
X123819000Y-91417000D01*
X123309170Y-91417000D01*
X123048950Y-91524787D01*
X122849787Y-91723950D01*
X122742000Y-91984170D01*
X95200000Y-91984170D01*
X95200000Y-90700000D01*
X120750000Y-90700000D01*
X120827811Y-90684243D01*
X120893362Y-90639454D01*
X120936322Y-90572691D01*
X120950000Y-90500000D01*
X120950000Y-89658000D01*
X121500000Y-89658000D01*
X121847477Y-89588883D01*
X122142053Y-89392053D01*
X124834106Y-86700000D01*
X127212220Y-86700000D01*
X127167000Y-86809170D01*
X127167000Y-87319000D01*
X127344000Y-87496000D01*
X128196000Y-87496000D01*
X128196000Y-87476000D01*
X128304000Y-87476000D01*
X128304000Y-87496000D01*
X129156000Y-87496000D01*
X129333000Y-87319000D01*
X129333000Y-86809170D01*
X129287780Y-86700000D01*
X142500000Y-86700000D01*
X142577811Y-86684243D01*
X142643362Y-86639454D01*
X142686322Y-86572691D01*
X142688866Y-86559170D01*
X152667000Y-86559170D01*
X152667000Y-87069000D01*
X152844000Y-87246000D01*
X153696000Y-87246000D01*
X153696000Y-86169000D01*
X153519000Y-85992000D01*
X153234170Y-85992000D01*
X152973950Y-86099787D01*
X152774787Y-86298950D01*
X152667000Y-86559170D01*
X142688866Y-86559170D01*
X142700000Y-86500000D01*
X142700000Y-82923460D01*
X143740180Y-82923460D01*
X143740180Y-83133010D01*
X143847967Y-83393230D01*
X144047130Y-83592393D01*
X144307350Y-83700180D01*
X144966480Y-83700180D01*
X145143480Y-83523180D01*
X145143480Y-82746460D01*
X145251480Y-82746460D01*
X145251480Y-83523180D01*
X145428480Y-83700180D01*
X146087610Y-83700180D01*
X146347830Y-83592393D01*
X146546993Y-83393230D01*
X146654780Y-83133010D01*
X146654780Y-82923460D01*
X146477780Y-82746460D01*
X145251480Y-82746460D01*
X145143480Y-82746460D01*
X143917180Y-82746460D01*
X143740180Y-82923460D01*
X142700000Y-82923460D01*
X142700000Y-71450000D01*
X149515894Y-71450000D01*
X148123894Y-72842000D01*
X148123894Y-72842000D01*
G37*
X148123894Y-72842000D02*
X146223564Y-72842000D01*
X145946780Y-72785950D01*
X144448180Y-72785950D01*
X144185811Y-72835318D01*
X143944841Y-72990378D01*
X143783183Y-73226972D01*
X143726310Y-73507820D01*
X143726310Y-74107260D01*
X143775678Y-74369629D01*
X143821457Y-74440771D01*
X143740180Y-74636990D01*
X143740180Y-74846540D01*
X143917180Y-75023540D01*
X145143480Y-75023540D01*
X145143480Y-75003540D01*
X145251480Y-75003540D01*
X145251480Y-75023540D01*
X146477780Y-75023540D01*
X146654780Y-74846540D01*
X146654780Y-74658000D01*
X150003383Y-74658000D01*
X150032558Y-74703339D01*
X150269152Y-74864997D01*
X150550000Y-74921870D01*
X151750000Y-74921870D01*
X152012369Y-74872502D01*
X152253267Y-74717489D01*
X152469152Y-74864997D01*
X152750000Y-74921870D01*
X153354922Y-74921870D01*
X153511182Y-75078130D01*
X152750000Y-75078130D01*
X152487631Y-75127498D01*
X152246733Y-75282511D01*
X152030848Y-75135003D01*
X151750000Y-75078130D01*
X150550000Y-75078130D01*
X150287631Y-75127498D01*
X150046661Y-75282558D01*
X150006046Y-75342000D01*
X149300464Y-75342000D01*
X149185170Y-75226505D01*
X148741340Y-75042210D01*
X148260768Y-75041791D01*
X147816617Y-75225310D01*
X147699724Y-75342000D01*
X146654780Y-75342000D01*
X146654780Y-75308540D01*
X146477780Y-75131540D01*
X145251480Y-75131540D01*
X145251480Y-75151540D01*
X145143480Y-75151540D01*
X145143480Y-75131540D01*
X143917180Y-75131540D01*
X143740180Y-75308540D01*
X143740180Y-75518090D01*
X143820592Y-75712222D01*
X143783183Y-75766972D01*
X143726310Y-76047820D01*
X143726310Y-76647260D01*
X143775678Y-76909629D01*
X143821457Y-76980771D01*
X143740180Y-77176990D01*
X143740180Y-77386540D01*
X143917180Y-77563540D01*
X145143480Y-77563540D01*
X145143480Y-77543540D01*
X145251480Y-77543540D01*
X145251480Y-77563540D01*
X146477780Y-77563540D01*
X146654780Y-77386540D01*
X146654780Y-77176990D01*
X146646914Y-77158000D01*
X147699536Y-77158000D01*
X147814830Y-77273495D01*
X148258660Y-77457790D01*
X148739232Y-77458209D01*
X149183383Y-77274690D01*
X149300276Y-77158000D01*
X150003383Y-77158000D01*
X150032558Y-77203339D01*
X150269152Y-77364997D01*
X150550000Y-77421870D01*
X151750000Y-77421870D01*
X152012369Y-77372502D01*
X152253267Y-77217489D01*
X152469152Y-77364997D01*
X152750000Y-77421870D01*
X153604922Y-77421870D01*
X154026717Y-77843666D01*
X153950000Y-77828130D01*
X152750000Y-77828130D01*
X152487631Y-77877498D01*
X152246733Y-78032511D01*
X152030848Y-77885003D01*
X151750000Y-77828130D01*
X150550000Y-77828130D01*
X150287631Y-77877498D01*
X150046661Y-78032558D01*
X150006046Y-78092000D01*
X147800464Y-78092000D01*
X147685170Y-77976505D01*
X147241340Y-77792210D01*
X146760768Y-77791791D01*
X146645612Y-77839372D01*
X146477780Y-77671540D01*
X145251480Y-77671540D01*
X145251480Y-77691540D01*
X145143480Y-77691540D01*
X145143480Y-77671540D01*
X143917180Y-77671540D01*
X143740180Y-77848540D01*
X143740180Y-78058090D01*
X143819282Y-78249059D01*
X143783183Y-78301892D01*
X143726310Y-78582740D01*
X143726310Y-79182180D01*
X143775678Y-79444549D01*
X143821457Y-79515691D01*
X143740180Y-79711910D01*
X143740180Y-79921460D01*
X143917180Y-80098460D01*
X145143480Y-80098460D01*
X145143480Y-80078460D01*
X145251480Y-80078460D01*
X145251480Y-80098460D01*
X145271480Y-80098460D01*
X145271480Y-80206460D01*
X145251480Y-80206460D01*
X145251480Y-80226460D01*
X145143480Y-80226460D01*
X145143480Y-80206460D01*
X143917180Y-80206460D01*
X143740180Y-80383460D01*
X143740180Y-80593010D01*
X143820592Y-80787142D01*
X143783183Y-80841892D01*
X143726310Y-81122740D01*
X143726310Y-81722180D01*
X143775678Y-81984549D01*
X143821457Y-82055691D01*
X143740180Y-82251910D01*
X143740180Y-82461460D01*
X143917180Y-82638460D01*
X145143480Y-82638460D01*
X145143480Y-82618460D01*
X145251480Y-82618460D01*
X145251480Y-82638460D01*
X146477780Y-82638460D01*
X146654780Y-82461460D01*
X146654780Y-82408000D01*
X148199536Y-82408000D01*
X148314830Y-82523495D01*
X148758660Y-82707790D01*
X149239232Y-82708209D01*
X149683383Y-82524690D01*
X149800276Y-82408000D01*
X150003383Y-82408000D01*
X150032558Y-82453339D01*
X150269152Y-82614997D01*
X150550000Y-82671870D01*
X151750000Y-82671870D01*
X152012369Y-82622502D01*
X152253267Y-82467489D01*
X152469152Y-82614997D01*
X152750000Y-82671870D01*
X153604922Y-82671870D01*
X154392000Y-83458949D01*
X154392000Y-86044261D01*
X154265830Y-85992000D01*
X153981000Y-85992000D01*
X153804000Y-86169000D01*
X153804000Y-87246000D01*
X153824000Y-87246000D01*
X153824000Y-87354000D01*
X153804000Y-87354000D01*
X153804000Y-87374000D01*
X153696000Y-87374000D01*
X153696000Y-87354000D01*
X152844000Y-87354000D01*
X152667000Y-87531000D01*
X152667000Y-88040830D01*
X152755004Y-88253290D01*
X152710003Y-88319152D01*
X152653130Y-88600000D01*
X152653130Y-89144045D01*
X152642000Y-89200000D01*
X152642000Y-93050000D01*
X152653130Y-93105955D01*
X152653130Y-93650000D01*
X152702498Y-93912369D01*
X152755696Y-93995040D01*
X152667000Y-94209170D01*
X152667000Y-94719000D01*
X152844000Y-94896000D01*
X153696000Y-94896000D01*
X153696000Y-94876000D01*
X153804000Y-94876000D01*
X153804000Y-94896000D01*
X154656000Y-94896000D01*
X154833000Y-94719000D01*
X154833000Y-94209170D01*
X154802692Y-94136000D01*
X156817000Y-94136000D01*
X156817000Y-94345830D01*
X156924787Y-94606050D01*
X157123950Y-94805213D01*
X157384170Y-94913000D01*
X158069000Y-94913000D01*
X158246000Y-94736000D01*
X158246000Y-93959000D01*
X156994000Y-93959000D01*
X156817000Y-94136000D01*
X154802692Y-94136000D01*
X154744996Y-93996710D01*
X154789997Y-93930848D01*
X154846870Y-93650000D01*
X154846870Y-93105955D01*
X154858000Y-93050000D01*
X154858000Y-92608000D01*
X155018340Y-92608000D01*
X155258660Y-92707790D01*
X155739232Y-92708209D01*
X156183383Y-92524690D01*
X156235163Y-92473000D01*
X156803130Y-92473000D01*
X156803130Y-92935000D01*
X156852498Y-93197369D01*
X156898136Y-93268292D01*
X156817000Y-93464170D01*
X156817000Y-93674000D01*
X156994000Y-93851000D01*
X158246000Y-93851000D01*
X158246000Y-93831000D01*
X158354000Y-93831000D01*
X158354000Y-93851000D01*
X158374000Y-93851000D01*
X158374000Y-93959000D01*
X158354000Y-93959000D01*
X158354000Y-94736000D01*
X158531000Y-94913000D01*
X159215830Y-94913000D01*
X159476050Y-94805213D01*
X159675213Y-94606050D01*
X159781794Y-94348742D01*
X162392000Y-96958949D01*
X162392000Y-99279441D01*
X162221631Y-99311498D01*
X161980661Y-99466558D01*
X161819003Y-99703152D01*
X161762130Y-99984000D01*
X161762130Y-101800000D01*
X139258741Y-101800000D01*
X139283474Y-101783474D01*
X141283474Y-99783474D01*
X141523659Y-99424014D01*
X141544547Y-99319003D01*
X141608000Y-99000000D01*
X141608000Y-95500000D01*
X141544548Y-95181000D01*
X152667000Y-95181000D01*
X152667000Y-95690830D01*
X152774787Y-95951050D01*
X152973950Y-96150213D01*
X153234170Y-96258000D01*
X153519000Y-96258000D01*
X153696000Y-96081000D01*
X153696000Y-95004000D01*
X153804000Y-95004000D01*
X153804000Y-96081000D01*
X153981000Y-96258000D01*
X154265830Y-96258000D01*
X154526050Y-96150213D01*
X154725213Y-95951050D01*
X154833000Y-95690830D01*
X154833000Y-95181000D01*
X154656000Y-95004000D01*
X153804000Y-95004000D01*
X153696000Y-95004000D01*
X152844000Y-95004000D01*
X152667000Y-95181000D01*
X141544548Y-95181000D01*
X141523659Y-95075987D01*
X141283475Y-94716526D01*
X139688474Y-93121526D01*
X139329014Y-92881341D01*
X138905000Y-92797000D01*
X138196870Y-92797000D01*
X138196870Y-92335000D01*
X138147502Y-92072631D01*
X138101847Y-92001682D01*
X138139997Y-91945848D01*
X138196870Y-91665000D01*
X138196870Y-91065000D01*
X138185204Y-91003000D01*
X138294371Y-91003000D01*
X138314830Y-91023495D01*
X138758660Y-91207790D01*
X139239232Y-91208209D01*
X139683383Y-91024690D01*
X140023495Y-90685170D01*
X140207790Y-90241340D01*
X140208209Y-89760768D01*
X140024690Y-89316617D01*
X139685170Y-88976505D01*
X139241340Y-88792210D01*
X138760768Y-88791791D01*
X138316617Y-88975310D01*
X138104558Y-89187000D01*
X137839266Y-89187000D01*
X137755848Y-89130003D01*
X137475000Y-89073130D01*
X135925000Y-89073130D01*
X135662631Y-89122498D01*
X135421661Y-89277558D01*
X135260003Y-89514152D01*
X135203130Y-89795000D01*
X135203130Y-90257000D01*
X134451287Y-90257000D01*
X134457790Y-90241340D01*
X134458209Y-89760768D01*
X134274690Y-89316617D01*
X133935170Y-88976505D01*
X133491340Y-88792210D01*
X133010768Y-88791791D01*
X132566617Y-88975310D01*
X132388978Y-89152640D01*
X132355848Y-89130003D01*
X132075000Y-89073130D01*
X130525000Y-89073130D01*
X130262631Y-89122498D01*
X130021661Y-89277558D01*
X129860003Y-89514152D01*
X129803130Y-89795000D01*
X129803130Y-90216181D01*
X129358000Y-89771052D01*
X129358000Y-89450000D01*
X129346870Y-89394045D01*
X129346870Y-88850000D01*
X129297502Y-88587631D01*
X129244304Y-88504960D01*
X129333000Y-88290830D01*
X129333000Y-87781000D01*
X129156000Y-87604000D01*
X128304000Y-87604000D01*
X128304000Y-87624000D01*
X128196000Y-87624000D01*
X128196000Y-87604000D01*
X127344000Y-87604000D01*
X127167000Y-87781000D01*
X127167000Y-88290830D01*
X127255004Y-88503290D01*
X127210003Y-88569152D01*
X127153130Y-88850000D01*
X127153130Y-89394045D01*
X127142000Y-89450000D01*
X127142000Y-90230000D01*
X127226341Y-90654014D01*
X127466526Y-91013474D01*
X127693052Y-91240000D01*
X127541052Y-91392000D01*
X125950000Y-91392000D01*
X125894045Y-91403130D01*
X125350000Y-91403130D01*
X125087631Y-91452498D01*
X125004960Y-91505696D01*
X124790830Y-91417000D01*
X124281000Y-91417000D01*
X124104000Y-91594000D01*
X124104000Y-92446000D01*
X124124000Y-92446000D01*
X124124000Y-92554000D01*
X124104000Y-92554000D01*
X124104000Y-93406000D01*
X124281000Y-93583000D01*
X124790830Y-93583000D01*
X125003290Y-93494996D01*
X125069152Y-93539997D01*
X125221011Y-93570749D01*
X124976505Y-93814830D01*
X124792210Y-94258660D01*
X124791791Y-94739232D01*
X124816900Y-94800000D01*
X95200000Y-94800000D01*
X95200000Y-92731000D01*
X122742000Y-92731000D01*
X122742000Y-93015830D01*
X122849787Y-93276050D01*
X123048950Y-93475213D01*
X123309170Y-93583000D01*
X123819000Y-93583000D01*
X123996000Y-93406000D01*
X123996000Y-92554000D01*
X122919000Y-92554000D01*
X122742000Y-92731000D01*
X95200000Y-92731000D01*
X95200000Y-91984170D01*
X122742000Y-91984170D01*
X122742000Y-92269000D01*
X122919000Y-92446000D01*
X123996000Y-92446000D01*
X123996000Y-91594000D01*
X123819000Y-91417000D01*
X123309170Y-91417000D01*
X123048950Y-91524787D01*
X122849787Y-91723950D01*
X122742000Y-91984170D01*
X95200000Y-91984170D01*
X95200000Y-90700000D01*
X120750000Y-90700000D01*
X120827811Y-90684243D01*
X120893362Y-90639454D01*
X120936322Y-90572691D01*
X120950000Y-90500000D01*
X120950000Y-89658000D01*
X121500000Y-89658000D01*
X121847477Y-89588883D01*
X122142053Y-89392053D01*
X124834106Y-86700000D01*
X127212220Y-86700000D01*
X127167000Y-86809170D01*
X127167000Y-87319000D01*
X127344000Y-87496000D01*
X128196000Y-87496000D01*
X128196000Y-87476000D01*
X128304000Y-87476000D01*
X128304000Y-87496000D01*
X129156000Y-87496000D01*
X129333000Y-87319000D01*
X129333000Y-86809170D01*
X129287780Y-86700000D01*
X142500000Y-86700000D01*
X142577811Y-86684243D01*
X142643362Y-86639454D01*
X142686322Y-86572691D01*
X142688866Y-86559170D01*
X152667000Y-86559170D01*
X152667000Y-87069000D01*
X152844000Y-87246000D01*
X153696000Y-87246000D01*
X153696000Y-86169000D01*
X153519000Y-85992000D01*
X153234170Y-85992000D01*
X152973950Y-86099787D01*
X152774787Y-86298950D01*
X152667000Y-86559170D01*
X142688866Y-86559170D01*
X142700000Y-86500000D01*
X142700000Y-82923460D01*
X143740180Y-82923460D01*
X143740180Y-83133010D01*
X143847967Y-83393230D01*
X144047130Y-83592393D01*
X144307350Y-83700180D01*
X144966480Y-83700180D01*
X145143480Y-83523180D01*
X145143480Y-82746460D01*
X145251480Y-82746460D01*
X145251480Y-83523180D01*
X145428480Y-83700180D01*
X146087610Y-83700180D01*
X146347830Y-83592393D01*
X146546993Y-83393230D01*
X146654780Y-83133010D01*
X146654780Y-82923460D01*
X146477780Y-82746460D01*
X145251480Y-82746460D01*
X145143480Y-82746460D01*
X143917180Y-82746460D01*
X143740180Y-82923460D01*
X142700000Y-82923460D01*
X142700000Y-71450000D01*
X149515894Y-71450000D01*
X148123894Y-72842000D01*
G36*
X134351526Y-93418474D02*
X134710986Y-93658659D01*
X134781334Y-93672652D01*
X135135000Y-93743000D01*
X135203130Y-93743000D01*
X135203130Y-94205000D01*
X135252498Y-94467369D01*
X135407558Y-94708339D01*
X135644152Y-94869997D01*
X135925000Y-94926870D01*
X136273310Y-94926870D01*
X136275987Y-94928659D01*
X136700000Y-95013000D01*
X138446052Y-95013000D01*
X139392000Y-95958949D01*
X139392000Y-98541052D01*
X138041052Y-99892000D01*
X136855822Y-99892000D01*
X136759052Y-99747173D01*
X136199746Y-99373457D01*
X135540000Y-99242225D01*
X134880254Y-99373457D01*
X134589480Y-99567746D01*
X134533442Y-99480661D01*
X134296848Y-99319003D01*
X134016000Y-99262130D01*
X131984000Y-99262130D01*
X131721631Y-99311498D01*
X131480661Y-99466558D01*
X131319003Y-99703152D01*
X131280760Y-99892000D01*
X131208949Y-99892000D01*
X129608000Y-98291052D01*
X129608000Y-94458948D01*
X129817000Y-94249948D01*
X129817000Y-94345830D01*
X129924787Y-94606050D01*
X130123950Y-94805213D01*
X130384170Y-94913000D01*
X131069000Y-94913000D01*
X131246000Y-94736000D01*
X131246000Y-93959000D01*
X131354000Y-93959000D01*
X131354000Y-94736000D01*
X131531000Y-94913000D01*
X132215830Y-94913000D01*
X132476050Y-94805213D01*
X132675213Y-94606050D01*
X132783000Y-94345830D01*
X132783000Y-94136000D01*
X132606000Y-93959000D01*
X131354000Y-93959000D01*
X131246000Y-93959000D01*
X131226000Y-93959000D01*
X131226000Y-93851000D01*
X131246000Y-93851000D01*
X131246000Y-93831000D01*
X131354000Y-93831000D01*
X131354000Y-93851000D01*
X132606000Y-93851000D01*
X132783000Y-93674000D01*
X132783000Y-93464170D01*
X132702732Y-93270387D01*
X132739997Y-93215848D01*
X132796870Y-92935000D01*
X132796870Y-92473000D01*
X133406052Y-92473000D01*
X134351526Y-93418474D01*
X134351526Y-93418474D01*
G37*
X134351526Y-93418474D02*
X134710986Y-93658659D01*
X134781334Y-93672652D01*
X135135000Y-93743000D01*
X135203130Y-93743000D01*
X135203130Y-94205000D01*
X135252498Y-94467369D01*
X135407558Y-94708339D01*
X135644152Y-94869997D01*
X135925000Y-94926870D01*
X136273310Y-94926870D01*
X136275987Y-94928659D01*
X136700000Y-95013000D01*
X138446052Y-95013000D01*
X139392000Y-95958949D01*
X139392000Y-98541052D01*
X138041052Y-99892000D01*
X136855822Y-99892000D01*
X136759052Y-99747173D01*
X136199746Y-99373457D01*
X135540000Y-99242225D01*
X134880254Y-99373457D01*
X134589480Y-99567746D01*
X134533442Y-99480661D01*
X134296848Y-99319003D01*
X134016000Y-99262130D01*
X131984000Y-99262130D01*
X131721631Y-99311498D01*
X131480661Y-99466558D01*
X131319003Y-99703152D01*
X131280760Y-99892000D01*
X131208949Y-99892000D01*
X129608000Y-98291052D01*
X129608000Y-94458948D01*
X129817000Y-94249948D01*
X129817000Y-94345830D01*
X129924787Y-94606050D01*
X130123950Y-94805213D01*
X130384170Y-94913000D01*
X131069000Y-94913000D01*
X131246000Y-94736000D01*
X131246000Y-93959000D01*
X131354000Y-93959000D01*
X131354000Y-94736000D01*
X131531000Y-94913000D01*
X132215830Y-94913000D01*
X132476050Y-94805213D01*
X132675213Y-94606050D01*
X132783000Y-94345830D01*
X132783000Y-94136000D01*
X132606000Y-93959000D01*
X131354000Y-93959000D01*
X131246000Y-93959000D01*
X131226000Y-93959000D01*
X131226000Y-93851000D01*
X131246000Y-93851000D01*
X131246000Y-93831000D01*
X131354000Y-93831000D01*
X131354000Y-93851000D01*
X132606000Y-93851000D01*
X132783000Y-93674000D01*
X132783000Y-93464170D01*
X132702732Y-93270387D01*
X132739997Y-93215848D01*
X132796870Y-92935000D01*
X132796870Y-92473000D01*
X133406052Y-92473000D01*
X134351526Y-93418474D01*
M02*
