G04 #@! TF.FileFunction,Copper,L2,Bot,Signal*
%FSLAX46Y46*%
G04 Gerber Fmt 4.6, Leading zero omitted, Abs format (unit mm)*
G04 Created by KiCad (PCBNEW 4.0.2+dfsg1-stable) date Die 18 Okt 2016 18:09:58 CEST*
%MOMM*%
G01*
G04 APERTURE LIST*
%ADD10C,0.100000*%
%ADD11R,2.032000X2.032000*%
%ADD12O,2.032000X2.032000*%
%ADD13R,1.727200X2.032000*%
%ADD14O,1.727200X2.032000*%
%ADD15R,2.032000X1.727200*%
%ADD16O,2.032000X1.727200*%
%ADD17R,1.727200X1.727200*%
%ADD18O,1.727200X1.727200*%
%ADD19O,1.501140X2.499360*%
%ADD20C,3.100000*%
%ADD21C,1.700000*%
%ADD22C,1.000000*%
%ADD23C,0.400000*%
%ADD24C,0.800000*%
%ADD25C,0.500000*%
G04 APERTURE END LIST*
D10*
D11*
X54700000Y-100300000D03*
D12*
X57240000Y-100300000D03*
D13*
X107750000Y-58500000D03*
D14*
X110290000Y-58500000D03*
X112830000Y-58500000D03*
D15*
X54500000Y-64250000D03*
D16*
X54500000Y-66790000D03*
X54500000Y-69330000D03*
D11*
X133000000Y-101000000D03*
D12*
X135540000Y-101000000D03*
D11*
X163500000Y-101000000D03*
D12*
X166040000Y-101000000D03*
D17*
X163000000Y-59500000D03*
D18*
X165540000Y-59500000D03*
X163000000Y-62040000D03*
X165540000Y-62040000D03*
X163000000Y-64580000D03*
X165540000Y-64580000D03*
D11*
X55000000Y-88500000D03*
D12*
X55000000Y-85960000D03*
D19*
X67000000Y-80000000D03*
X69540000Y-80000000D03*
X64460000Y-80000000D03*
D20*
X164000000Y-81000000D03*
X56000000Y-81000000D03*
X56000000Y-53000000D03*
X74000000Y-53000000D03*
X92000000Y-53000000D03*
X110000000Y-53000000D03*
X128000000Y-53000000D03*
X146000000Y-53000000D03*
X164000000Y-53000000D03*
D21*
X72730000Y-63105000D03*
X72730000Y-60895000D03*
X75270000Y-63105000D03*
X75270000Y-60895000D03*
X144730000Y-63105000D03*
X144730000Y-60895000D03*
X147270000Y-63105000D03*
X147270000Y-60895000D03*
D20*
X96400000Y-100000000D03*
X123600000Y-100000000D03*
D13*
X106500000Y-84500000D03*
D14*
X103960000Y-84500000D03*
X101420000Y-84500000D03*
X98880000Y-84500000D03*
X96340000Y-84500000D03*
X93800000Y-84500000D03*
D22*
X87000000Y-77750000D03*
X89000000Y-64000000D03*
X126000000Y-94500000D03*
X155500000Y-91500000D03*
X69250000Y-100250000D03*
X127000000Y-61750000D03*
X64750000Y-70750000D03*
X144000000Y-69750000D03*
X114750000Y-72250000D03*
X119250000Y-74500000D03*
X112250000Y-72250000D03*
X117000000Y-76750000D03*
X118500000Y-86250000D03*
X93000000Y-71000000D03*
X89000000Y-60750000D03*
X70750000Y-88250000D03*
X76500000Y-86500000D03*
X66750000Y-65500000D03*
X68500000Y-75500000D03*
X89000000Y-72250000D03*
X101500000Y-62000000D03*
X137000000Y-66750000D03*
X137000000Y-64000000D03*
X90500000Y-57500000D03*
X82000000Y-90000000D03*
X69000000Y-84500000D03*
X87000000Y-90000000D03*
X121500000Y-93000000D03*
X153750000Y-85500000D03*
X133500000Y-93000000D03*
X141750000Y-93000000D03*
X67750000Y-98750000D03*
X126250000Y-77000000D03*
X127000000Y-68750000D03*
X125000000Y-75750000D03*
X116250000Y-58750000D03*
X105000000Y-61000000D03*
X107000000Y-76000000D03*
X103000000Y-67750000D03*
X149000000Y-81500000D03*
X139000000Y-90000000D03*
X147000000Y-79000000D03*
X133250000Y-90000000D03*
X161500000Y-89250000D03*
X148500000Y-76250000D03*
X118250000Y-69500000D03*
X109250000Y-62500000D03*
X115250000Y-75750000D03*
X124000000Y-65750000D03*
X116250000Y-70500000D03*
X109500000Y-83250000D03*
D23*
X50000000Y-50000000D02*
X50000000Y-105000000D01*
X170000000Y-50000000D02*
X50000000Y-50000000D01*
X170000000Y-105000000D02*
X170000000Y-50000000D01*
X50000000Y-105000000D02*
X170000000Y-105000000D01*
D24*
X87000000Y-67250000D02*
X87000000Y-66250000D01*
X87000000Y-77750000D02*
X87000000Y-67250000D01*
X87000000Y-66000000D02*
X87000000Y-66250000D01*
X89000000Y-64000000D02*
X87000000Y-66000000D01*
X128750000Y-94500000D02*
X152500000Y-94500000D01*
X126000000Y-94500000D02*
X128750000Y-94500000D01*
X152500000Y-94500000D02*
X155500000Y-91500000D01*
X89000000Y-100250000D02*
X94750000Y-94500000D01*
X88750000Y-100250000D02*
X89000000Y-100250000D01*
X88750000Y-100250000D02*
X69250000Y-100250000D01*
X94750000Y-94500000D02*
X126000000Y-94500000D01*
D25*
X106500000Y-84500000D02*
X106500000Y-79500000D01*
X104000000Y-77000000D02*
X99000000Y-77000000D01*
X106500000Y-79500000D02*
X104000000Y-77000000D01*
X125250000Y-68500000D02*
X119250000Y-74500000D01*
X125250000Y-63500000D02*
X125250000Y-68500000D01*
X127000000Y-61750000D02*
X125250000Y-63500000D01*
X114500000Y-76750000D02*
X113500000Y-76750000D01*
X112250000Y-75500000D02*
X112250000Y-74500000D01*
X113500000Y-76750000D02*
X112250000Y-75500000D01*
X147270000Y-63105000D02*
X147270000Y-66480000D01*
X147270000Y-66480000D02*
X144000000Y-69750000D01*
X112250000Y-72250000D02*
X114750000Y-72250000D01*
X117000000Y-76750000D02*
X119250000Y-74500000D01*
X117000000Y-76750000D02*
X114500000Y-76750000D01*
X112250000Y-74500000D02*
X112250000Y-72250000D01*
X117500000Y-77250000D02*
X117000000Y-76750000D01*
X117500000Y-85250000D02*
X117500000Y-77250000D01*
X118500000Y-86250000D02*
X117500000Y-85250000D01*
X99000000Y-77000000D02*
X93000000Y-71000000D01*
X107750000Y-58500000D02*
X91250000Y-58500000D01*
X91250000Y-58500000D02*
X89000000Y-60750000D01*
X72730000Y-60895000D02*
X73060000Y-60895000D01*
X73060000Y-60895000D02*
X75270000Y-63105000D01*
X72730000Y-60895000D02*
X67105000Y-60895000D01*
X64750000Y-63250000D02*
X64750000Y-66500000D01*
X67105000Y-60895000D02*
X64750000Y-63250000D01*
X67000000Y-80000000D02*
X67000000Y-76750000D01*
X62500000Y-64250000D02*
X54500000Y-64250000D01*
X64750000Y-66500000D02*
X62500000Y-64250000D01*
X64750000Y-74500000D02*
X64750000Y-70750000D01*
X64750000Y-70750000D02*
X64750000Y-66500000D01*
X67000000Y-76750000D02*
X64750000Y-74500000D01*
X72500000Y-86500000D02*
X70750000Y-88250000D01*
X76500000Y-86500000D02*
X72500000Y-86500000D01*
X66750000Y-65500000D02*
X66750000Y-73750000D01*
X66750000Y-73750000D02*
X68500000Y-75500000D01*
X90250000Y-71000000D02*
X89000000Y-72250000D01*
X99250000Y-62000000D02*
X101500000Y-62000000D01*
X90250000Y-71000000D02*
X99250000Y-62000000D01*
X137000000Y-64000000D02*
X137000000Y-66750000D01*
X96340000Y-84500000D02*
X96340000Y-85660000D01*
X95000000Y-87000000D02*
X87000000Y-87000000D01*
X96340000Y-85660000D02*
X95000000Y-87000000D01*
X87000000Y-90000000D02*
X87000000Y-87000000D01*
X87000000Y-87000000D02*
X87000000Y-80250000D01*
X85000000Y-63000000D02*
X90500000Y-57500000D01*
X85000000Y-78250000D02*
X85000000Y-63000000D01*
X87000000Y-80250000D02*
X85000000Y-78250000D01*
X73500000Y-84500000D02*
X69000000Y-84500000D01*
X73500000Y-84500000D02*
X79750000Y-84500000D01*
X79750000Y-84500000D02*
X82000000Y-86750000D01*
X82000000Y-90000000D02*
X82000000Y-86750000D01*
D24*
X151000000Y-93000000D02*
X153750000Y-90250000D01*
X153750000Y-90250000D02*
X153750000Y-85500000D01*
X151000000Y-93000000D02*
X148500000Y-93000000D01*
X122500000Y-93000000D02*
X133500000Y-93000000D01*
X133500000Y-93000000D02*
X141750000Y-93000000D01*
X141750000Y-93000000D02*
X148500000Y-93000000D01*
X67750000Y-98750000D02*
X88500000Y-98750000D01*
X88500000Y-98750000D02*
X94250000Y-93000000D01*
X94250000Y-93000000D02*
X121500000Y-93000000D01*
X121500000Y-93000000D02*
X122500000Y-93000000D01*
D23*
X138500000Y-59500000D02*
X134750000Y-59500000D01*
X130000000Y-64250000D02*
X130000000Y-68000000D01*
X134750000Y-59500000D02*
X130000000Y-64250000D01*
X128250000Y-75000000D02*
X126250000Y-77000000D01*
X128250000Y-75000000D02*
X128250000Y-69750000D01*
X128250000Y-69750000D02*
X129500000Y-68500000D01*
X129500000Y-68500000D02*
X130000000Y-68000000D01*
X163000000Y-59500000D02*
X140500000Y-59500000D01*
X138500000Y-59500000D02*
X140500000Y-59500000D01*
X127000000Y-68750000D02*
X127000000Y-73750000D01*
X125000000Y-75750000D02*
X127000000Y-73750000D01*
X125000000Y-75750000D02*
X126500000Y-74250000D01*
X126000000Y-74750000D02*
X126500000Y-74250000D01*
X114000000Y-61000000D02*
X111250000Y-61000000D01*
X116250000Y-58750000D02*
X114000000Y-61000000D01*
X105000000Y-61000000D02*
X111250000Y-61000000D01*
X107000000Y-76000000D02*
X105250000Y-76000000D01*
X105250000Y-76000000D02*
X103000000Y-73750000D01*
X103000000Y-73750000D02*
X103000000Y-67750000D01*
X148250000Y-84750000D02*
X149000000Y-84000000D01*
X149000000Y-84000000D02*
X149000000Y-81500000D01*
X141500000Y-90000000D02*
X143000000Y-90000000D01*
X143000000Y-90000000D02*
X148250000Y-84750000D01*
X141500000Y-90000000D02*
X139000000Y-90000000D01*
X135500000Y-87750000D02*
X133250000Y-90000000D01*
X142000000Y-87750000D02*
X135500000Y-87750000D01*
X147000000Y-82750000D02*
X142000000Y-87750000D01*
X147000000Y-82750000D02*
X147000000Y-79000000D01*
X148500000Y-76250000D02*
X149500000Y-77250000D01*
X161500000Y-89250000D02*
X149500000Y-77250000D01*
X111250000Y-62500000D02*
X109250000Y-62500000D01*
X111250000Y-62500000D02*
X118250000Y-69500000D01*
X115250000Y-75750000D02*
X115250000Y-74500000D01*
X115250000Y-74500000D02*
X124000000Y-65750000D01*
X111750000Y-70500000D02*
X116250000Y-70500000D01*
X109500000Y-72750000D02*
X111750000Y-70500000D01*
X109500000Y-77500000D02*
X109500000Y-72750000D01*
X109500000Y-83250000D02*
X109500000Y-77500000D01*
G36*
X89292210Y-57258660D02*
X89292128Y-57353055D01*
X84322592Y-62322592D01*
X84114923Y-62633389D01*
X84042000Y-63000000D01*
X84042000Y-78250000D01*
X84114923Y-78616611D01*
X84322592Y-78927408D01*
X86042000Y-80646816D01*
X86042000Y-89249449D01*
X85976505Y-89314830D01*
X85792210Y-89758660D01*
X85791791Y-90239232D01*
X85975310Y-90683383D01*
X86314830Y-91023495D01*
X86758660Y-91207790D01*
X87239232Y-91208209D01*
X87683383Y-91024690D01*
X88023495Y-90685170D01*
X88207790Y-90241340D01*
X88208209Y-89760768D01*
X88024690Y-89316617D01*
X87958000Y-89249811D01*
X87958000Y-87958000D01*
X95000000Y-87958000D01*
X95366611Y-87885077D01*
X95677408Y-87677408D01*
X97017408Y-86337408D01*
X97225077Y-86026611D01*
X97242970Y-85936659D01*
X97451289Y-85797464D01*
X97610000Y-85559936D01*
X97768711Y-85797464D01*
X98278575Y-86138144D01*
X98880000Y-86257775D01*
X99481425Y-86138144D01*
X99991289Y-85797464D01*
X100150000Y-85559936D01*
X100308711Y-85797464D01*
X100818575Y-86138144D01*
X101420000Y-86257775D01*
X102021425Y-86138144D01*
X102531289Y-85797464D01*
X102690000Y-85559936D01*
X102848711Y-85797464D01*
X103358575Y-86138144D01*
X103960000Y-86257775D01*
X104561425Y-86138144D01*
X105005000Y-85841757D01*
X105036187Y-85917050D01*
X105235350Y-86116213D01*
X105495570Y-86224000D01*
X106269000Y-86224000D01*
X106446000Y-86047000D01*
X106446000Y-84554000D01*
X106554000Y-84554000D01*
X106554000Y-86047000D01*
X106731000Y-86224000D01*
X107504430Y-86224000D01*
X107764650Y-86116213D01*
X107963813Y-85917050D01*
X108071600Y-85656830D01*
X108071600Y-84731000D01*
X107894600Y-84554000D01*
X106554000Y-84554000D01*
X106446000Y-84554000D01*
X106426000Y-84554000D01*
X106426000Y-84446000D01*
X106446000Y-84446000D01*
X106446000Y-82953000D01*
X106554000Y-82953000D01*
X106554000Y-84446000D01*
X107894600Y-84446000D01*
X108071600Y-84269000D01*
X108071600Y-83343170D01*
X107963813Y-83082950D01*
X107764650Y-82883787D01*
X107504430Y-82776000D01*
X106731000Y-82776000D01*
X106554000Y-82953000D01*
X106446000Y-82953000D01*
X106269000Y-82776000D01*
X105495570Y-82776000D01*
X105235350Y-82883787D01*
X105036187Y-83082950D01*
X105005000Y-83158243D01*
X104561425Y-82861856D01*
X103960000Y-82742225D01*
X103358575Y-82861856D01*
X102848711Y-83202536D01*
X102690000Y-83440064D01*
X102531289Y-83202536D01*
X102021425Y-82861856D01*
X101420000Y-82742225D01*
X100818575Y-82861856D01*
X100308711Y-83202536D01*
X100150000Y-83440064D01*
X99991289Y-83202536D01*
X99481425Y-82861856D01*
X98880000Y-82742225D01*
X98278575Y-82861856D01*
X97768711Y-83202536D01*
X97610000Y-83440064D01*
X97451289Y-83202536D01*
X96941425Y-82861856D01*
X96340000Y-82742225D01*
X95738575Y-82861856D01*
X95228711Y-83202536D01*
X95070000Y-83440064D01*
X94911289Y-83202536D01*
X94401425Y-82861856D01*
X93800000Y-82742225D01*
X93198575Y-82861856D01*
X92688711Y-83202536D01*
X92348031Y-83712400D01*
X92228400Y-84313825D01*
X92228400Y-84686175D01*
X92348031Y-85287600D01*
X92688711Y-85797464D01*
X93054685Y-86042000D01*
X87958000Y-86042000D01*
X87958000Y-80250000D01*
X87885077Y-79883389D01*
X87677408Y-79572592D01*
X87062871Y-78958055D01*
X87239232Y-78958209D01*
X87683383Y-78774690D01*
X88023495Y-78435170D01*
X88207790Y-77991340D01*
X88208209Y-77510768D01*
X88108000Y-77268243D01*
X88108000Y-73066304D01*
X88314830Y-73273495D01*
X88758660Y-73457790D01*
X89239232Y-73458209D01*
X89683383Y-73274690D01*
X90023495Y-72935170D01*
X90207790Y-72491340D01*
X90207872Y-72396944D01*
X94615584Y-67989232D01*
X101791791Y-67989232D01*
X101975310Y-68433383D01*
X102092000Y-68550276D01*
X102092000Y-73750000D01*
X102161117Y-74097477D01*
X102357947Y-74392053D01*
X104607947Y-76642053D01*
X104902524Y-76838884D01*
X105250000Y-76908000D01*
X106199536Y-76908000D01*
X106314830Y-77023495D01*
X106758660Y-77207790D01*
X107239232Y-77208209D01*
X107683383Y-77024690D01*
X108023495Y-76685170D01*
X108207790Y-76241340D01*
X108208209Y-75760768D01*
X108024690Y-75316617D01*
X107685170Y-74976505D01*
X107241340Y-74792210D01*
X106760768Y-74791791D01*
X106316617Y-74975310D01*
X106199724Y-75092000D01*
X105626106Y-75092000D01*
X103908000Y-73373894D01*
X103908000Y-68550464D01*
X104023495Y-68435170D01*
X104207790Y-67991340D01*
X104208209Y-67510768D01*
X104024690Y-67066617D01*
X103685170Y-66726505D01*
X103241340Y-66542210D01*
X102760768Y-66541791D01*
X102316617Y-66725310D01*
X101976505Y-67064830D01*
X101792210Y-67508660D01*
X101791791Y-67989232D01*
X94615584Y-67989232D01*
X99646816Y-62958000D01*
X100749449Y-62958000D01*
X100814830Y-63023495D01*
X101258660Y-63207790D01*
X101739232Y-63208209D01*
X102183383Y-63024690D01*
X102523495Y-62685170D01*
X102707790Y-62241340D01*
X102708209Y-61760768D01*
X102524690Y-61316617D01*
X102185170Y-60976505D01*
X101741340Y-60792210D01*
X101260768Y-60791791D01*
X100816617Y-60975310D01*
X100749811Y-61042000D01*
X99250000Y-61042000D01*
X98883389Y-61114923D01*
X98572592Y-61322592D01*
X88853312Y-71041872D01*
X88760768Y-71041791D01*
X88316617Y-71225310D01*
X88108000Y-71433564D01*
X88108000Y-66458948D01*
X89442888Y-65124060D01*
X89683383Y-65024690D01*
X90023495Y-64685170D01*
X90207790Y-64241340D01*
X90208209Y-63760768D01*
X90024690Y-63316617D01*
X89685170Y-62976505D01*
X89241340Y-62792210D01*
X88760768Y-62791791D01*
X88316617Y-62975310D01*
X87976505Y-63314830D01*
X87875872Y-63557180D01*
X86216526Y-65216526D01*
X85976341Y-65575986D01*
X85976341Y-65575987D01*
X85958000Y-65668194D01*
X85958000Y-63396816D01*
X90646689Y-58708128D01*
X90739232Y-58708209D01*
X91183383Y-58524690D01*
X91523495Y-58185170D01*
X91707790Y-57741340D01*
X91708209Y-57260768D01*
X91683100Y-57200000D01*
X106237703Y-57200000D01*
X106178400Y-57343170D01*
X106178400Y-58269000D01*
X106355400Y-58446000D01*
X107696000Y-58446000D01*
X107696000Y-58426000D01*
X107804000Y-58426000D01*
X107804000Y-58446000D01*
X107824000Y-58446000D01*
X107824000Y-58554000D01*
X107804000Y-58554000D01*
X107804000Y-58574000D01*
X107696000Y-58574000D01*
X107696000Y-58554000D01*
X106355400Y-58554000D01*
X106178400Y-58731000D01*
X106178400Y-59656830D01*
X106286187Y-59917050D01*
X106461137Y-60092000D01*
X105800464Y-60092000D01*
X105685170Y-59976505D01*
X105241340Y-59792210D01*
X104760768Y-59791791D01*
X104316617Y-59975310D01*
X103976505Y-60314830D01*
X103792210Y-60758660D01*
X103791791Y-61239232D01*
X103975310Y-61683383D01*
X104314830Y-62023495D01*
X104758660Y-62207790D01*
X105239232Y-62208209D01*
X105683383Y-62024690D01*
X105800276Y-61908000D01*
X108187817Y-61908000D01*
X108042210Y-62258660D01*
X108041791Y-62739232D01*
X108225310Y-63183383D01*
X108564830Y-63523495D01*
X109008660Y-63707790D01*
X109489232Y-63708209D01*
X109933383Y-63524690D01*
X110050276Y-63408000D01*
X110873894Y-63408000D01*
X117041933Y-69576039D01*
X117041927Y-69583448D01*
X116935170Y-69476505D01*
X116491340Y-69292210D01*
X116010768Y-69291791D01*
X115566617Y-69475310D01*
X115449724Y-69592000D01*
X111750000Y-69592000D01*
X111402524Y-69661116D01*
X111107947Y-69857947D01*
X108857947Y-72107947D01*
X108661117Y-72402523D01*
X108592000Y-72750000D01*
X108592000Y-82449536D01*
X108476505Y-82564830D01*
X108292210Y-83008660D01*
X108291791Y-83489232D01*
X108475310Y-83933383D01*
X108814830Y-84273495D01*
X109258660Y-84457790D01*
X109739232Y-84458209D01*
X110183383Y-84274690D01*
X110523495Y-83935170D01*
X110707790Y-83491340D01*
X110708209Y-83010768D01*
X110524690Y-82566617D01*
X110408000Y-82449724D01*
X110408000Y-73126106D01*
X112126106Y-71408000D01*
X115449536Y-71408000D01*
X115564830Y-71523495D01*
X116008660Y-71707790D01*
X116489232Y-71708209D01*
X116933383Y-71524690D01*
X117273495Y-71185170D01*
X117457790Y-70741340D01*
X117458073Y-70416552D01*
X117564830Y-70523495D01*
X117831618Y-70634276D01*
X114607947Y-73857947D01*
X114411117Y-74152523D01*
X114342000Y-74500000D01*
X114342000Y-74949536D01*
X114226505Y-75064830D01*
X114042210Y-75508660D01*
X114041791Y-75989232D01*
X114225310Y-76433383D01*
X114564830Y-76773495D01*
X115008660Y-76957790D01*
X115489232Y-76958209D01*
X115933383Y-76774690D01*
X116273495Y-76435170D01*
X116457790Y-75991340D01*
X116458209Y-75510768D01*
X116274690Y-75066617D01*
X116158000Y-74949724D01*
X116158000Y-74876106D01*
X124076039Y-66958067D01*
X124239232Y-66958209D01*
X124683383Y-66774690D01*
X125023495Y-66435170D01*
X125207790Y-65991340D01*
X125208209Y-65510768D01*
X125024690Y-65066617D01*
X124685170Y-64726505D01*
X124241340Y-64542210D01*
X123760768Y-64541791D01*
X123316617Y-64725310D01*
X122976505Y-65064830D01*
X122792210Y-65508660D01*
X122792066Y-65673828D01*
X119384212Y-69081682D01*
X119274690Y-68816617D01*
X118935170Y-68476505D01*
X118491340Y-68292210D01*
X118326172Y-68292066D01*
X111942106Y-61908000D01*
X114000000Y-61908000D01*
X114347477Y-61838883D01*
X114642053Y-61642053D01*
X116326039Y-59958067D01*
X116489232Y-59958209D01*
X116933383Y-59774690D01*
X117273495Y-59435170D01*
X117457790Y-58991340D01*
X117458209Y-58510768D01*
X117274690Y-58066617D01*
X116935170Y-57726505D01*
X116491340Y-57542210D01*
X116010768Y-57541791D01*
X115566617Y-57725310D01*
X115226505Y-58064830D01*
X115042210Y-58508660D01*
X115042066Y-58673828D01*
X113987319Y-59728575D01*
X114281969Y-59287600D01*
X114401600Y-58686175D01*
X114401600Y-58313825D01*
X114281969Y-57712400D01*
X113941289Y-57202536D01*
X113937494Y-57200000D01*
X166800000Y-57200000D01*
X166800000Y-58565194D01*
X166682078Y-58388711D01*
X166172214Y-58048031D01*
X165570789Y-57928400D01*
X165509211Y-57928400D01*
X164907786Y-58048031D01*
X164501160Y-58319730D01*
X164381042Y-58133061D01*
X164144448Y-57971403D01*
X163863600Y-57914530D01*
X162136400Y-57914530D01*
X161874031Y-57963898D01*
X161633061Y-58118958D01*
X161471403Y-58355552D01*
X161423521Y-58592000D01*
X134750000Y-58592000D01*
X134402523Y-58661117D01*
X134107947Y-58857947D01*
X129357947Y-63607947D01*
X129161117Y-63902523D01*
X129092000Y-64250000D01*
X129092000Y-67623894D01*
X128207308Y-68508586D01*
X128024690Y-68066617D01*
X127685170Y-67726505D01*
X127241340Y-67542210D01*
X126760768Y-67541791D01*
X126316617Y-67725310D01*
X125976505Y-68064830D01*
X125792210Y-68508660D01*
X125791791Y-68989232D01*
X125975310Y-69433383D01*
X126092000Y-69550276D01*
X126092000Y-73373894D01*
X124923961Y-74541933D01*
X124760768Y-74541791D01*
X124316617Y-74725310D01*
X123976505Y-75064830D01*
X123792210Y-75508660D01*
X123791791Y-75989232D01*
X123975310Y-76433383D01*
X124314830Y-76773495D01*
X124758660Y-76957790D01*
X125042036Y-76958037D01*
X125041791Y-77239232D01*
X125225310Y-77683383D01*
X125564830Y-78023495D01*
X126008660Y-78207790D01*
X126489232Y-78208209D01*
X126933383Y-78024690D01*
X127273495Y-77685170D01*
X127457790Y-77241340D01*
X127457934Y-77076172D01*
X128892053Y-75642053D01*
X129088883Y-75347477D01*
X129158000Y-75000000D01*
X129158000Y-70126106D01*
X130642053Y-68642053D01*
X130729775Y-68510768D01*
X130838883Y-68347477D01*
X130908000Y-68000000D01*
X130908000Y-64626106D01*
X131294874Y-64239232D01*
X135791791Y-64239232D01*
X135975310Y-64683383D01*
X136042000Y-64750189D01*
X136042000Y-65999449D01*
X135976505Y-66064830D01*
X135792210Y-66508660D01*
X135791791Y-66989232D01*
X135975310Y-67433383D01*
X136314830Y-67773495D01*
X136758660Y-67957790D01*
X137239232Y-67958209D01*
X137683383Y-67774690D01*
X138023495Y-67435170D01*
X138207790Y-66991340D01*
X138208209Y-66510768D01*
X138024690Y-66066617D01*
X137958000Y-65999811D01*
X137958000Y-64750551D01*
X138023495Y-64685170D01*
X138207790Y-64241340D01*
X138208209Y-63760768D01*
X138064741Y-63413546D01*
X143171730Y-63413546D01*
X143408422Y-63986383D01*
X143846312Y-64425038D01*
X144418735Y-64662729D01*
X145038546Y-64663270D01*
X145611383Y-64426578D01*
X145897909Y-64140551D01*
X146310817Y-64140551D01*
X146380516Y-64421139D01*
X146951888Y-64661345D01*
X147571691Y-64664611D01*
X148145564Y-64430441D01*
X148159484Y-64421139D01*
X148229183Y-64140551D01*
X147270000Y-63181368D01*
X146310817Y-64140551D01*
X145897909Y-64140551D01*
X146026225Y-64012459D01*
X146234449Y-64064183D01*
X147193632Y-63105000D01*
X147346368Y-63105000D01*
X148305551Y-64064183D01*
X148586139Y-63994484D01*
X148826345Y-63423112D01*
X148829611Y-62803309D01*
X148595441Y-62229436D01*
X148586139Y-62215516D01*
X148305551Y-62145817D01*
X147346368Y-63105000D01*
X147193632Y-63105000D01*
X146234449Y-62145817D01*
X146025682Y-62197675D01*
X145613688Y-61784962D01*
X145493821Y-61735189D01*
X144730000Y-60971368D01*
X143966763Y-61734605D01*
X143848617Y-61783422D01*
X143409962Y-62221312D01*
X143172271Y-62793735D01*
X143171730Y-63413546D01*
X138064741Y-63413546D01*
X138024690Y-63316617D01*
X137685170Y-62976505D01*
X137241340Y-62792210D01*
X136760768Y-62791791D01*
X136316617Y-62975310D01*
X135976505Y-63314830D01*
X135792210Y-63758660D01*
X135791791Y-64239232D01*
X131294874Y-64239232D01*
X135126106Y-60408000D01*
X143244656Y-60408000D01*
X143173655Y-60576888D01*
X143170389Y-61196691D01*
X143404559Y-61770564D01*
X143413861Y-61784484D01*
X143694449Y-61854183D01*
X144653632Y-60895000D01*
X144639490Y-60880858D01*
X144715858Y-60804490D01*
X144730000Y-60818632D01*
X144744142Y-60804490D01*
X144820510Y-60880858D01*
X144806368Y-60895000D01*
X145765551Y-61854183D01*
X145974318Y-61802325D01*
X146386312Y-62215038D01*
X146506179Y-62264811D01*
X147270000Y-63028632D01*
X148033237Y-62265395D01*
X148151383Y-62216578D01*
X148590038Y-61778688D01*
X148827729Y-61206265D01*
X148828270Y-60586454D01*
X148754534Y-60408000D01*
X161422884Y-60408000D01*
X161463898Y-60625969D01*
X161618958Y-60866939D01*
X161811357Y-60998400D01*
X161517242Y-61438575D01*
X161397611Y-62040000D01*
X161517242Y-62641425D01*
X161857922Y-63151289D01*
X162095450Y-63310000D01*
X161857922Y-63468711D01*
X161517242Y-63978575D01*
X161397611Y-64580000D01*
X161517242Y-65181425D01*
X161857922Y-65691289D01*
X162367786Y-66031969D01*
X162969211Y-66151600D01*
X163030789Y-66151600D01*
X163632214Y-66031969D01*
X164142078Y-65691289D01*
X164273288Y-65494919D01*
X164673281Y-65891007D01*
X165240957Y-66122891D01*
X165486000Y-65973676D01*
X165486000Y-64634000D01*
X165466000Y-64634000D01*
X165466000Y-64526000D01*
X165486000Y-64526000D01*
X165486000Y-64506000D01*
X165594000Y-64506000D01*
X165594000Y-64526000D01*
X165614000Y-64526000D01*
X165614000Y-64634000D01*
X165594000Y-64634000D01*
X165594000Y-65973676D01*
X165839043Y-66122891D01*
X166406719Y-65891007D01*
X166800000Y-65501565D01*
X166800000Y-70050000D01*
X141500000Y-70050000D01*
X141422189Y-70065757D01*
X141356638Y-70110546D01*
X141313678Y-70177309D01*
X141300000Y-70250000D01*
X141300000Y-85300000D01*
X119750000Y-85300000D01*
X119672189Y-85315757D01*
X119606638Y-85360546D01*
X119563678Y-85427309D01*
X119550000Y-85500000D01*
X119550000Y-89300000D01*
X94000000Y-89300000D01*
X93922189Y-89315757D01*
X93856638Y-89360546D01*
X93813678Y-89427309D01*
X93800000Y-89500000D01*
X93800000Y-91993704D01*
X93466526Y-92216526D01*
X88041052Y-97642000D01*
X68231660Y-97642000D01*
X67991340Y-97542210D01*
X67510768Y-97541791D01*
X67066617Y-97725310D01*
X66726505Y-98064830D01*
X66542210Y-98508660D01*
X66541791Y-98989232D01*
X66725310Y-99433383D01*
X67064830Y-99773495D01*
X67508660Y-99957790D01*
X67989232Y-99958209D01*
X68078470Y-99921337D01*
X68042210Y-100008660D01*
X68041791Y-100489232D01*
X68225310Y-100933383D01*
X68564830Y-101273495D01*
X69008660Y-101457790D01*
X69489232Y-101458209D01*
X69731757Y-101358000D01*
X89000000Y-101358000D01*
X89424014Y-101273659D01*
X89783474Y-101033474D01*
X93800000Y-97016948D01*
X93800000Y-101800000D01*
X58089131Y-101800000D01*
X58459052Y-101552827D01*
X58832768Y-100993521D01*
X58964000Y-100333775D01*
X58964000Y-100266225D01*
X58832768Y-99606479D01*
X58459052Y-99047173D01*
X57899746Y-98673457D01*
X57240000Y-98542225D01*
X56580254Y-98673457D01*
X56296391Y-98863128D01*
X56117050Y-98683787D01*
X55856830Y-98576000D01*
X54931000Y-98576000D01*
X54754000Y-98753000D01*
X54754000Y-100246000D01*
X54774000Y-100246000D01*
X54774000Y-100354000D01*
X54754000Y-100354000D01*
X54754000Y-100374000D01*
X54646000Y-100374000D01*
X54646000Y-100354000D01*
X54626000Y-100354000D01*
X54626000Y-100246000D01*
X54646000Y-100246000D01*
X54646000Y-98753000D01*
X54469000Y-98576000D01*
X53543170Y-98576000D01*
X53282950Y-98683787D01*
X53200000Y-98766737D01*
X53200000Y-88731000D01*
X53276000Y-88731000D01*
X53276000Y-89656830D01*
X53383787Y-89917050D01*
X53582950Y-90116213D01*
X53843170Y-90224000D01*
X54769000Y-90224000D01*
X54946000Y-90047000D01*
X54946000Y-88554000D01*
X55054000Y-88554000D01*
X55054000Y-90047000D01*
X55231000Y-90224000D01*
X56156830Y-90224000D01*
X56417050Y-90116213D01*
X56616213Y-89917050D01*
X56724000Y-89656830D01*
X56724000Y-88731000D01*
X56547000Y-88554000D01*
X55054000Y-88554000D01*
X54946000Y-88554000D01*
X53453000Y-88554000D01*
X53276000Y-88731000D01*
X53200000Y-88731000D01*
X53200000Y-85960000D01*
X53242225Y-85960000D01*
X53373457Y-86619746D01*
X53563128Y-86903609D01*
X53383787Y-87082950D01*
X53276000Y-87343170D01*
X53276000Y-88269000D01*
X53453000Y-88446000D01*
X54946000Y-88446000D01*
X54946000Y-88426000D01*
X55054000Y-88426000D01*
X55054000Y-88446000D01*
X56547000Y-88446000D01*
X56724000Y-88269000D01*
X56724000Y-87343170D01*
X56616213Y-87082950D01*
X56436872Y-86903609D01*
X56626543Y-86619746D01*
X56757775Y-85960000D01*
X56626543Y-85300254D01*
X56252827Y-84740948D01*
X56250259Y-84739232D01*
X67791791Y-84739232D01*
X67975310Y-85183383D01*
X68314830Y-85523495D01*
X68758660Y-85707790D01*
X69239232Y-85708209D01*
X69683383Y-85524690D01*
X69750189Y-85458000D01*
X79353184Y-85458000D01*
X81042000Y-87146817D01*
X81042000Y-89249449D01*
X80976505Y-89314830D01*
X80792210Y-89758660D01*
X80791791Y-90239232D01*
X80975310Y-90683383D01*
X81314830Y-91023495D01*
X81758660Y-91207790D01*
X82239232Y-91208209D01*
X82683383Y-91024690D01*
X83023495Y-90685170D01*
X83207790Y-90241340D01*
X83208209Y-89760768D01*
X83024690Y-89316617D01*
X82958000Y-89249811D01*
X82958000Y-86750000D01*
X82885077Y-86383389D01*
X82721209Y-86138144D01*
X82677409Y-86072592D01*
X80427408Y-83822592D01*
X80116611Y-83614923D01*
X79750000Y-83542000D01*
X69750551Y-83542000D01*
X69685170Y-83476505D01*
X69241340Y-83292210D01*
X68760768Y-83291791D01*
X68316617Y-83475310D01*
X67976505Y-83814830D01*
X67792210Y-84258660D01*
X67791791Y-84739232D01*
X56250259Y-84739232D01*
X55693521Y-84367232D01*
X55033775Y-84236000D01*
X54966225Y-84236000D01*
X54306479Y-84367232D01*
X53747173Y-84740948D01*
X53373457Y-85300254D01*
X53242225Y-85960000D01*
X53200000Y-85960000D01*
X53200000Y-84200000D01*
X58000000Y-84200000D01*
X58077811Y-84184243D01*
X58143362Y-84139454D01*
X58186322Y-84072691D01*
X58200000Y-84000000D01*
X58200000Y-81589847D01*
X58257607Y-81451114D01*
X58258391Y-80552826D01*
X58200000Y-80411509D01*
X58200000Y-79462537D01*
X63001430Y-79462537D01*
X63001430Y-80537463D01*
X63112457Y-81095634D01*
X63428635Y-81568828D01*
X63901829Y-81885006D01*
X64460000Y-81996033D01*
X65018171Y-81885006D01*
X65491365Y-81568828D01*
X65738979Y-81198247D01*
X66006819Y-81568658D01*
X66491719Y-81867317D01*
X66718651Y-81930287D01*
X66946000Y-81779542D01*
X66946000Y-80054000D01*
X66926000Y-80054000D01*
X66926000Y-79946000D01*
X66946000Y-79946000D01*
X66946000Y-78220458D01*
X67054000Y-78220458D01*
X67054000Y-79946000D01*
X67074000Y-79946000D01*
X67074000Y-80054000D01*
X67054000Y-80054000D01*
X67054000Y-81779542D01*
X67281349Y-81930287D01*
X67508281Y-81867317D01*
X67993181Y-81568658D01*
X68261021Y-81198247D01*
X68508635Y-81568828D01*
X68981829Y-81885006D01*
X69540000Y-81996033D01*
X70098171Y-81885006D01*
X70571365Y-81568828D01*
X70887543Y-81095634D01*
X70998570Y-80537463D01*
X70998570Y-79462537D01*
X70887543Y-78904366D01*
X70571365Y-78431172D01*
X70098171Y-78114994D01*
X69540000Y-78003967D01*
X68981829Y-78114994D01*
X68508635Y-78431172D01*
X68261021Y-78801753D01*
X67993181Y-78431342D01*
X67508281Y-78132683D01*
X67281349Y-78069713D01*
X67054000Y-78220458D01*
X66946000Y-78220458D01*
X66718651Y-78069713D01*
X66491719Y-78132683D01*
X66006819Y-78431342D01*
X65738979Y-78801753D01*
X65491365Y-78431172D01*
X65018171Y-78114994D01*
X64460000Y-78003967D01*
X63901829Y-78114994D01*
X63428635Y-78431172D01*
X63112457Y-78904366D01*
X63001430Y-79462537D01*
X58200000Y-79462537D01*
X58200000Y-78000000D01*
X58184243Y-77922189D01*
X58139454Y-77856638D01*
X58072691Y-77813678D01*
X58000000Y-77800000D01*
X53200000Y-77800000D01*
X53200000Y-70437494D01*
X53202536Y-70441289D01*
X53712400Y-70781969D01*
X54313825Y-70901600D01*
X54686175Y-70901600D01*
X55287600Y-70781969D01*
X55797464Y-70441289D01*
X56138144Y-69931425D01*
X56257775Y-69330000D01*
X56138144Y-68728575D01*
X55797464Y-68218711D01*
X55559936Y-68060000D01*
X55797464Y-67901289D01*
X56138144Y-67391425D01*
X56257775Y-66790000D01*
X56138144Y-66188575D01*
X55841757Y-65745000D01*
X55855682Y-65739232D01*
X65541791Y-65739232D01*
X65725310Y-66183383D01*
X65792000Y-66250189D01*
X65792000Y-73750000D01*
X65864923Y-74116611D01*
X66072592Y-74427408D01*
X67291872Y-75646688D01*
X67291791Y-75739232D01*
X67475310Y-76183383D01*
X67814830Y-76523495D01*
X68258660Y-76707790D01*
X68739232Y-76708209D01*
X69183383Y-76524690D01*
X69523495Y-76185170D01*
X69707790Y-75741340D01*
X69708209Y-75260768D01*
X69524690Y-74816617D01*
X69185170Y-74476505D01*
X68741340Y-74292210D01*
X68646944Y-74292128D01*
X67708000Y-73353184D01*
X67708000Y-66250551D01*
X67773495Y-66185170D01*
X67957790Y-65741340D01*
X67958209Y-65260768D01*
X67774690Y-64816617D01*
X67435170Y-64476505D01*
X66991340Y-64292210D01*
X66510768Y-64291791D01*
X66066617Y-64475310D01*
X65726505Y-64814830D01*
X65542210Y-65258660D01*
X65541791Y-65739232D01*
X55855682Y-65739232D01*
X55917050Y-65713813D01*
X56116213Y-65514650D01*
X56224000Y-65254430D01*
X56224000Y-64481000D01*
X56047000Y-64304000D01*
X54554000Y-64304000D01*
X54554000Y-64324000D01*
X54446000Y-64324000D01*
X54446000Y-64304000D01*
X54426000Y-64304000D01*
X54426000Y-64196000D01*
X54446000Y-64196000D01*
X54446000Y-62855400D01*
X54554000Y-62855400D01*
X54554000Y-64196000D01*
X56047000Y-64196000D01*
X56224000Y-64019000D01*
X56224000Y-63413546D01*
X71171730Y-63413546D01*
X71408422Y-63986383D01*
X71846312Y-64425038D01*
X72418735Y-64662729D01*
X73038546Y-64663270D01*
X73611383Y-64426578D01*
X73897909Y-64140551D01*
X74310817Y-64140551D01*
X74380516Y-64421139D01*
X74951888Y-64661345D01*
X75571691Y-64664611D01*
X76145564Y-64430441D01*
X76159484Y-64421139D01*
X76229183Y-64140551D01*
X75270000Y-63181368D01*
X74310817Y-64140551D01*
X73897909Y-64140551D01*
X74026225Y-64012459D01*
X74234449Y-64064183D01*
X75193632Y-63105000D01*
X75346368Y-63105000D01*
X76305551Y-64064183D01*
X76586139Y-63994484D01*
X76826345Y-63423112D01*
X76829611Y-62803309D01*
X76595441Y-62229436D01*
X76586139Y-62215516D01*
X76305551Y-62145817D01*
X75346368Y-63105000D01*
X75193632Y-63105000D01*
X74234449Y-62145817D01*
X74025682Y-62197675D01*
X73613688Y-61784962D01*
X73493821Y-61735189D01*
X72730000Y-60971368D01*
X71966763Y-61734605D01*
X71848617Y-61783422D01*
X71409962Y-62221312D01*
X71172271Y-62793735D01*
X71171730Y-63413546D01*
X56224000Y-63413546D01*
X56224000Y-63245570D01*
X56116213Y-62985350D01*
X55917050Y-62786187D01*
X55656830Y-62678400D01*
X54731000Y-62678400D01*
X54554000Y-62855400D01*
X54446000Y-62855400D01*
X54269000Y-62678400D01*
X53343170Y-62678400D01*
X53200000Y-62737703D01*
X53200000Y-61196691D01*
X71170389Y-61196691D01*
X71404559Y-61770564D01*
X71413861Y-61784484D01*
X71694449Y-61854183D01*
X72653632Y-60895000D01*
X72806368Y-60895000D01*
X73765551Y-61854183D01*
X73974318Y-61802325D01*
X74386312Y-62215038D01*
X74506179Y-62264811D01*
X75270000Y-63028632D01*
X76033237Y-62265395D01*
X76151383Y-62216578D01*
X76590038Y-61778688D01*
X76827729Y-61206265D01*
X76828270Y-60586454D01*
X76591578Y-60013617D01*
X76153688Y-59574962D01*
X75581265Y-59337271D01*
X74961454Y-59336730D01*
X74388617Y-59573422D01*
X73973775Y-59987541D01*
X73765551Y-59935817D01*
X72806368Y-60895000D01*
X72653632Y-60895000D01*
X71694449Y-59935817D01*
X71413861Y-60005516D01*
X71173655Y-60576888D01*
X71170389Y-61196691D01*
X53200000Y-61196691D01*
X53200000Y-59859449D01*
X71770817Y-59859449D01*
X72730000Y-60818632D01*
X73689183Y-59859449D01*
X73619484Y-59578861D01*
X73048112Y-59338655D01*
X72428309Y-59335389D01*
X71854436Y-59569559D01*
X71840516Y-59578861D01*
X71770817Y-59859449D01*
X53200000Y-59859449D01*
X53200000Y-57200000D01*
X89316568Y-57200000D01*
X89292210Y-57258660D01*
X89292210Y-57258660D01*
G37*
X89292210Y-57258660D02*
X89292128Y-57353055D01*
X84322592Y-62322592D01*
X84114923Y-62633389D01*
X84042000Y-63000000D01*
X84042000Y-78250000D01*
X84114923Y-78616611D01*
X84322592Y-78927408D01*
X86042000Y-80646816D01*
X86042000Y-89249449D01*
X85976505Y-89314830D01*
X85792210Y-89758660D01*
X85791791Y-90239232D01*
X85975310Y-90683383D01*
X86314830Y-91023495D01*
X86758660Y-91207790D01*
X87239232Y-91208209D01*
X87683383Y-91024690D01*
X88023495Y-90685170D01*
X88207790Y-90241340D01*
X88208209Y-89760768D01*
X88024690Y-89316617D01*
X87958000Y-89249811D01*
X87958000Y-87958000D01*
X95000000Y-87958000D01*
X95366611Y-87885077D01*
X95677408Y-87677408D01*
X97017408Y-86337408D01*
X97225077Y-86026611D01*
X97242970Y-85936659D01*
X97451289Y-85797464D01*
X97610000Y-85559936D01*
X97768711Y-85797464D01*
X98278575Y-86138144D01*
X98880000Y-86257775D01*
X99481425Y-86138144D01*
X99991289Y-85797464D01*
X100150000Y-85559936D01*
X100308711Y-85797464D01*
X100818575Y-86138144D01*
X101420000Y-86257775D01*
X102021425Y-86138144D01*
X102531289Y-85797464D01*
X102690000Y-85559936D01*
X102848711Y-85797464D01*
X103358575Y-86138144D01*
X103960000Y-86257775D01*
X104561425Y-86138144D01*
X105005000Y-85841757D01*
X105036187Y-85917050D01*
X105235350Y-86116213D01*
X105495570Y-86224000D01*
X106269000Y-86224000D01*
X106446000Y-86047000D01*
X106446000Y-84554000D01*
X106554000Y-84554000D01*
X106554000Y-86047000D01*
X106731000Y-86224000D01*
X107504430Y-86224000D01*
X107764650Y-86116213D01*
X107963813Y-85917050D01*
X108071600Y-85656830D01*
X108071600Y-84731000D01*
X107894600Y-84554000D01*
X106554000Y-84554000D01*
X106446000Y-84554000D01*
X106426000Y-84554000D01*
X106426000Y-84446000D01*
X106446000Y-84446000D01*
X106446000Y-82953000D01*
X106554000Y-82953000D01*
X106554000Y-84446000D01*
X107894600Y-84446000D01*
X108071600Y-84269000D01*
X108071600Y-83343170D01*
X107963813Y-83082950D01*
X107764650Y-82883787D01*
X107504430Y-82776000D01*
X106731000Y-82776000D01*
X106554000Y-82953000D01*
X106446000Y-82953000D01*
X106269000Y-82776000D01*
X105495570Y-82776000D01*
X105235350Y-82883787D01*
X105036187Y-83082950D01*
X105005000Y-83158243D01*
X104561425Y-82861856D01*
X103960000Y-82742225D01*
X103358575Y-82861856D01*
X102848711Y-83202536D01*
X102690000Y-83440064D01*
X102531289Y-83202536D01*
X102021425Y-82861856D01*
X101420000Y-82742225D01*
X100818575Y-82861856D01*
X100308711Y-83202536D01*
X100150000Y-83440064D01*
X99991289Y-83202536D01*
X99481425Y-82861856D01*
X98880000Y-82742225D01*
X98278575Y-82861856D01*
X97768711Y-83202536D01*
X97610000Y-83440064D01*
X97451289Y-83202536D01*
X96941425Y-82861856D01*
X96340000Y-82742225D01*
X95738575Y-82861856D01*
X95228711Y-83202536D01*
X95070000Y-83440064D01*
X94911289Y-83202536D01*
X94401425Y-82861856D01*
X93800000Y-82742225D01*
X93198575Y-82861856D01*
X92688711Y-83202536D01*
X92348031Y-83712400D01*
X92228400Y-84313825D01*
X92228400Y-84686175D01*
X92348031Y-85287600D01*
X92688711Y-85797464D01*
X93054685Y-86042000D01*
X87958000Y-86042000D01*
X87958000Y-80250000D01*
X87885077Y-79883389D01*
X87677408Y-79572592D01*
X87062871Y-78958055D01*
X87239232Y-78958209D01*
X87683383Y-78774690D01*
X88023495Y-78435170D01*
X88207790Y-77991340D01*
X88208209Y-77510768D01*
X88108000Y-77268243D01*
X88108000Y-73066304D01*
X88314830Y-73273495D01*
X88758660Y-73457790D01*
X89239232Y-73458209D01*
X89683383Y-73274690D01*
X90023495Y-72935170D01*
X90207790Y-72491340D01*
X90207872Y-72396944D01*
X94615584Y-67989232D01*
X101791791Y-67989232D01*
X101975310Y-68433383D01*
X102092000Y-68550276D01*
X102092000Y-73750000D01*
X102161117Y-74097477D01*
X102357947Y-74392053D01*
X104607947Y-76642053D01*
X104902524Y-76838884D01*
X105250000Y-76908000D01*
X106199536Y-76908000D01*
X106314830Y-77023495D01*
X106758660Y-77207790D01*
X107239232Y-77208209D01*
X107683383Y-77024690D01*
X108023495Y-76685170D01*
X108207790Y-76241340D01*
X108208209Y-75760768D01*
X108024690Y-75316617D01*
X107685170Y-74976505D01*
X107241340Y-74792210D01*
X106760768Y-74791791D01*
X106316617Y-74975310D01*
X106199724Y-75092000D01*
X105626106Y-75092000D01*
X103908000Y-73373894D01*
X103908000Y-68550464D01*
X104023495Y-68435170D01*
X104207790Y-67991340D01*
X104208209Y-67510768D01*
X104024690Y-67066617D01*
X103685170Y-66726505D01*
X103241340Y-66542210D01*
X102760768Y-66541791D01*
X102316617Y-66725310D01*
X101976505Y-67064830D01*
X101792210Y-67508660D01*
X101791791Y-67989232D01*
X94615584Y-67989232D01*
X99646816Y-62958000D01*
X100749449Y-62958000D01*
X100814830Y-63023495D01*
X101258660Y-63207790D01*
X101739232Y-63208209D01*
X102183383Y-63024690D01*
X102523495Y-62685170D01*
X102707790Y-62241340D01*
X102708209Y-61760768D01*
X102524690Y-61316617D01*
X102185170Y-60976505D01*
X101741340Y-60792210D01*
X101260768Y-60791791D01*
X100816617Y-60975310D01*
X100749811Y-61042000D01*
X99250000Y-61042000D01*
X98883389Y-61114923D01*
X98572592Y-61322592D01*
X88853312Y-71041872D01*
X88760768Y-71041791D01*
X88316617Y-71225310D01*
X88108000Y-71433564D01*
X88108000Y-66458948D01*
X89442888Y-65124060D01*
X89683383Y-65024690D01*
X90023495Y-64685170D01*
X90207790Y-64241340D01*
X90208209Y-63760768D01*
X90024690Y-63316617D01*
X89685170Y-62976505D01*
X89241340Y-62792210D01*
X88760768Y-62791791D01*
X88316617Y-62975310D01*
X87976505Y-63314830D01*
X87875872Y-63557180D01*
X86216526Y-65216526D01*
X85976341Y-65575986D01*
X85976341Y-65575987D01*
X85958000Y-65668194D01*
X85958000Y-63396816D01*
X90646689Y-58708128D01*
X90739232Y-58708209D01*
X91183383Y-58524690D01*
X91523495Y-58185170D01*
X91707790Y-57741340D01*
X91708209Y-57260768D01*
X91683100Y-57200000D01*
X106237703Y-57200000D01*
X106178400Y-57343170D01*
X106178400Y-58269000D01*
X106355400Y-58446000D01*
X107696000Y-58446000D01*
X107696000Y-58426000D01*
X107804000Y-58426000D01*
X107804000Y-58446000D01*
X107824000Y-58446000D01*
X107824000Y-58554000D01*
X107804000Y-58554000D01*
X107804000Y-58574000D01*
X107696000Y-58574000D01*
X107696000Y-58554000D01*
X106355400Y-58554000D01*
X106178400Y-58731000D01*
X106178400Y-59656830D01*
X106286187Y-59917050D01*
X106461137Y-60092000D01*
X105800464Y-60092000D01*
X105685170Y-59976505D01*
X105241340Y-59792210D01*
X104760768Y-59791791D01*
X104316617Y-59975310D01*
X103976505Y-60314830D01*
X103792210Y-60758660D01*
X103791791Y-61239232D01*
X103975310Y-61683383D01*
X104314830Y-62023495D01*
X104758660Y-62207790D01*
X105239232Y-62208209D01*
X105683383Y-62024690D01*
X105800276Y-61908000D01*
X108187817Y-61908000D01*
X108042210Y-62258660D01*
X108041791Y-62739232D01*
X108225310Y-63183383D01*
X108564830Y-63523495D01*
X109008660Y-63707790D01*
X109489232Y-63708209D01*
X109933383Y-63524690D01*
X110050276Y-63408000D01*
X110873894Y-63408000D01*
X117041933Y-69576039D01*
X117041927Y-69583448D01*
X116935170Y-69476505D01*
X116491340Y-69292210D01*
X116010768Y-69291791D01*
X115566617Y-69475310D01*
X115449724Y-69592000D01*
X111750000Y-69592000D01*
X111402524Y-69661116D01*
X111107947Y-69857947D01*
X108857947Y-72107947D01*
X108661117Y-72402523D01*
X108592000Y-72750000D01*
X108592000Y-82449536D01*
X108476505Y-82564830D01*
X108292210Y-83008660D01*
X108291791Y-83489232D01*
X108475310Y-83933383D01*
X108814830Y-84273495D01*
X109258660Y-84457790D01*
X109739232Y-84458209D01*
X110183383Y-84274690D01*
X110523495Y-83935170D01*
X110707790Y-83491340D01*
X110708209Y-83010768D01*
X110524690Y-82566617D01*
X110408000Y-82449724D01*
X110408000Y-73126106D01*
X112126106Y-71408000D01*
X115449536Y-71408000D01*
X115564830Y-71523495D01*
X116008660Y-71707790D01*
X116489232Y-71708209D01*
X116933383Y-71524690D01*
X117273495Y-71185170D01*
X117457790Y-70741340D01*
X117458073Y-70416552D01*
X117564830Y-70523495D01*
X117831618Y-70634276D01*
X114607947Y-73857947D01*
X114411117Y-74152523D01*
X114342000Y-74500000D01*
X114342000Y-74949536D01*
X114226505Y-75064830D01*
X114042210Y-75508660D01*
X114041791Y-75989232D01*
X114225310Y-76433383D01*
X114564830Y-76773495D01*
X115008660Y-76957790D01*
X115489232Y-76958209D01*
X115933383Y-76774690D01*
X116273495Y-76435170D01*
X116457790Y-75991340D01*
X116458209Y-75510768D01*
X116274690Y-75066617D01*
X116158000Y-74949724D01*
X116158000Y-74876106D01*
X124076039Y-66958067D01*
X124239232Y-66958209D01*
X124683383Y-66774690D01*
X125023495Y-66435170D01*
X125207790Y-65991340D01*
X125208209Y-65510768D01*
X125024690Y-65066617D01*
X124685170Y-64726505D01*
X124241340Y-64542210D01*
X123760768Y-64541791D01*
X123316617Y-64725310D01*
X122976505Y-65064830D01*
X122792210Y-65508660D01*
X122792066Y-65673828D01*
X119384212Y-69081682D01*
X119274690Y-68816617D01*
X118935170Y-68476505D01*
X118491340Y-68292210D01*
X118326172Y-68292066D01*
X111942106Y-61908000D01*
X114000000Y-61908000D01*
X114347477Y-61838883D01*
X114642053Y-61642053D01*
X116326039Y-59958067D01*
X116489232Y-59958209D01*
X116933383Y-59774690D01*
X117273495Y-59435170D01*
X117457790Y-58991340D01*
X117458209Y-58510768D01*
X117274690Y-58066617D01*
X116935170Y-57726505D01*
X116491340Y-57542210D01*
X116010768Y-57541791D01*
X115566617Y-57725310D01*
X115226505Y-58064830D01*
X115042210Y-58508660D01*
X115042066Y-58673828D01*
X113987319Y-59728575D01*
X114281969Y-59287600D01*
X114401600Y-58686175D01*
X114401600Y-58313825D01*
X114281969Y-57712400D01*
X113941289Y-57202536D01*
X113937494Y-57200000D01*
X166800000Y-57200000D01*
X166800000Y-58565194D01*
X166682078Y-58388711D01*
X166172214Y-58048031D01*
X165570789Y-57928400D01*
X165509211Y-57928400D01*
X164907786Y-58048031D01*
X164501160Y-58319730D01*
X164381042Y-58133061D01*
X164144448Y-57971403D01*
X163863600Y-57914530D01*
X162136400Y-57914530D01*
X161874031Y-57963898D01*
X161633061Y-58118958D01*
X161471403Y-58355552D01*
X161423521Y-58592000D01*
X134750000Y-58592000D01*
X134402523Y-58661117D01*
X134107947Y-58857947D01*
X129357947Y-63607947D01*
X129161117Y-63902523D01*
X129092000Y-64250000D01*
X129092000Y-67623894D01*
X128207308Y-68508586D01*
X128024690Y-68066617D01*
X127685170Y-67726505D01*
X127241340Y-67542210D01*
X126760768Y-67541791D01*
X126316617Y-67725310D01*
X125976505Y-68064830D01*
X125792210Y-68508660D01*
X125791791Y-68989232D01*
X125975310Y-69433383D01*
X126092000Y-69550276D01*
X126092000Y-73373894D01*
X124923961Y-74541933D01*
X124760768Y-74541791D01*
X124316617Y-74725310D01*
X123976505Y-75064830D01*
X123792210Y-75508660D01*
X123791791Y-75989232D01*
X123975310Y-76433383D01*
X124314830Y-76773495D01*
X124758660Y-76957790D01*
X125042036Y-76958037D01*
X125041791Y-77239232D01*
X125225310Y-77683383D01*
X125564830Y-78023495D01*
X126008660Y-78207790D01*
X126489232Y-78208209D01*
X126933383Y-78024690D01*
X127273495Y-77685170D01*
X127457790Y-77241340D01*
X127457934Y-77076172D01*
X128892053Y-75642053D01*
X129088883Y-75347477D01*
X129158000Y-75000000D01*
X129158000Y-70126106D01*
X130642053Y-68642053D01*
X130729775Y-68510768D01*
X130838883Y-68347477D01*
X130908000Y-68000000D01*
X130908000Y-64626106D01*
X131294874Y-64239232D01*
X135791791Y-64239232D01*
X135975310Y-64683383D01*
X136042000Y-64750189D01*
X136042000Y-65999449D01*
X135976505Y-66064830D01*
X135792210Y-66508660D01*
X135791791Y-66989232D01*
X135975310Y-67433383D01*
X136314830Y-67773495D01*
X136758660Y-67957790D01*
X137239232Y-67958209D01*
X137683383Y-67774690D01*
X138023495Y-67435170D01*
X138207790Y-66991340D01*
X138208209Y-66510768D01*
X138024690Y-66066617D01*
X137958000Y-65999811D01*
X137958000Y-64750551D01*
X138023495Y-64685170D01*
X138207790Y-64241340D01*
X138208209Y-63760768D01*
X138064741Y-63413546D01*
X143171730Y-63413546D01*
X143408422Y-63986383D01*
X143846312Y-64425038D01*
X144418735Y-64662729D01*
X145038546Y-64663270D01*
X145611383Y-64426578D01*
X145897909Y-64140551D01*
X146310817Y-64140551D01*
X146380516Y-64421139D01*
X146951888Y-64661345D01*
X147571691Y-64664611D01*
X148145564Y-64430441D01*
X148159484Y-64421139D01*
X148229183Y-64140551D01*
X147270000Y-63181368D01*
X146310817Y-64140551D01*
X145897909Y-64140551D01*
X146026225Y-64012459D01*
X146234449Y-64064183D01*
X147193632Y-63105000D01*
X147346368Y-63105000D01*
X148305551Y-64064183D01*
X148586139Y-63994484D01*
X148826345Y-63423112D01*
X148829611Y-62803309D01*
X148595441Y-62229436D01*
X148586139Y-62215516D01*
X148305551Y-62145817D01*
X147346368Y-63105000D01*
X147193632Y-63105000D01*
X146234449Y-62145817D01*
X146025682Y-62197675D01*
X145613688Y-61784962D01*
X145493821Y-61735189D01*
X144730000Y-60971368D01*
X143966763Y-61734605D01*
X143848617Y-61783422D01*
X143409962Y-62221312D01*
X143172271Y-62793735D01*
X143171730Y-63413546D01*
X138064741Y-63413546D01*
X138024690Y-63316617D01*
X137685170Y-62976505D01*
X137241340Y-62792210D01*
X136760768Y-62791791D01*
X136316617Y-62975310D01*
X135976505Y-63314830D01*
X135792210Y-63758660D01*
X135791791Y-64239232D01*
X131294874Y-64239232D01*
X135126106Y-60408000D01*
X143244656Y-60408000D01*
X143173655Y-60576888D01*
X143170389Y-61196691D01*
X143404559Y-61770564D01*
X143413861Y-61784484D01*
X143694449Y-61854183D01*
X144653632Y-60895000D01*
X144639490Y-60880858D01*
X144715858Y-60804490D01*
X144730000Y-60818632D01*
X144744142Y-60804490D01*
X144820510Y-60880858D01*
X144806368Y-60895000D01*
X145765551Y-61854183D01*
X145974318Y-61802325D01*
X146386312Y-62215038D01*
X146506179Y-62264811D01*
X147270000Y-63028632D01*
X148033237Y-62265395D01*
X148151383Y-62216578D01*
X148590038Y-61778688D01*
X148827729Y-61206265D01*
X148828270Y-60586454D01*
X148754534Y-60408000D01*
X161422884Y-60408000D01*
X161463898Y-60625969D01*
X161618958Y-60866939D01*
X161811357Y-60998400D01*
X161517242Y-61438575D01*
X161397611Y-62040000D01*
X161517242Y-62641425D01*
X161857922Y-63151289D01*
X162095450Y-63310000D01*
X161857922Y-63468711D01*
X161517242Y-63978575D01*
X161397611Y-64580000D01*
X161517242Y-65181425D01*
X161857922Y-65691289D01*
X162367786Y-66031969D01*
X162969211Y-66151600D01*
X163030789Y-66151600D01*
X163632214Y-66031969D01*
X164142078Y-65691289D01*
X164273288Y-65494919D01*
X164673281Y-65891007D01*
X165240957Y-66122891D01*
X165486000Y-65973676D01*
X165486000Y-64634000D01*
X165466000Y-64634000D01*
X165466000Y-64526000D01*
X165486000Y-64526000D01*
X165486000Y-64506000D01*
X165594000Y-64506000D01*
X165594000Y-64526000D01*
X165614000Y-64526000D01*
X165614000Y-64634000D01*
X165594000Y-64634000D01*
X165594000Y-65973676D01*
X165839043Y-66122891D01*
X166406719Y-65891007D01*
X166800000Y-65501565D01*
X166800000Y-70050000D01*
X141500000Y-70050000D01*
X141422189Y-70065757D01*
X141356638Y-70110546D01*
X141313678Y-70177309D01*
X141300000Y-70250000D01*
X141300000Y-85300000D01*
X119750000Y-85300000D01*
X119672189Y-85315757D01*
X119606638Y-85360546D01*
X119563678Y-85427309D01*
X119550000Y-85500000D01*
X119550000Y-89300000D01*
X94000000Y-89300000D01*
X93922189Y-89315757D01*
X93856638Y-89360546D01*
X93813678Y-89427309D01*
X93800000Y-89500000D01*
X93800000Y-91993704D01*
X93466526Y-92216526D01*
X88041052Y-97642000D01*
X68231660Y-97642000D01*
X67991340Y-97542210D01*
X67510768Y-97541791D01*
X67066617Y-97725310D01*
X66726505Y-98064830D01*
X66542210Y-98508660D01*
X66541791Y-98989232D01*
X66725310Y-99433383D01*
X67064830Y-99773495D01*
X67508660Y-99957790D01*
X67989232Y-99958209D01*
X68078470Y-99921337D01*
X68042210Y-100008660D01*
X68041791Y-100489232D01*
X68225310Y-100933383D01*
X68564830Y-101273495D01*
X69008660Y-101457790D01*
X69489232Y-101458209D01*
X69731757Y-101358000D01*
X89000000Y-101358000D01*
X89424014Y-101273659D01*
X89783474Y-101033474D01*
X93800000Y-97016948D01*
X93800000Y-101800000D01*
X58089131Y-101800000D01*
X58459052Y-101552827D01*
X58832768Y-100993521D01*
X58964000Y-100333775D01*
X58964000Y-100266225D01*
X58832768Y-99606479D01*
X58459052Y-99047173D01*
X57899746Y-98673457D01*
X57240000Y-98542225D01*
X56580254Y-98673457D01*
X56296391Y-98863128D01*
X56117050Y-98683787D01*
X55856830Y-98576000D01*
X54931000Y-98576000D01*
X54754000Y-98753000D01*
X54754000Y-100246000D01*
X54774000Y-100246000D01*
X54774000Y-100354000D01*
X54754000Y-100354000D01*
X54754000Y-100374000D01*
X54646000Y-100374000D01*
X54646000Y-100354000D01*
X54626000Y-100354000D01*
X54626000Y-100246000D01*
X54646000Y-100246000D01*
X54646000Y-98753000D01*
X54469000Y-98576000D01*
X53543170Y-98576000D01*
X53282950Y-98683787D01*
X53200000Y-98766737D01*
X53200000Y-88731000D01*
X53276000Y-88731000D01*
X53276000Y-89656830D01*
X53383787Y-89917050D01*
X53582950Y-90116213D01*
X53843170Y-90224000D01*
X54769000Y-90224000D01*
X54946000Y-90047000D01*
X54946000Y-88554000D01*
X55054000Y-88554000D01*
X55054000Y-90047000D01*
X55231000Y-90224000D01*
X56156830Y-90224000D01*
X56417050Y-90116213D01*
X56616213Y-89917050D01*
X56724000Y-89656830D01*
X56724000Y-88731000D01*
X56547000Y-88554000D01*
X55054000Y-88554000D01*
X54946000Y-88554000D01*
X53453000Y-88554000D01*
X53276000Y-88731000D01*
X53200000Y-88731000D01*
X53200000Y-85960000D01*
X53242225Y-85960000D01*
X53373457Y-86619746D01*
X53563128Y-86903609D01*
X53383787Y-87082950D01*
X53276000Y-87343170D01*
X53276000Y-88269000D01*
X53453000Y-88446000D01*
X54946000Y-88446000D01*
X54946000Y-88426000D01*
X55054000Y-88426000D01*
X55054000Y-88446000D01*
X56547000Y-88446000D01*
X56724000Y-88269000D01*
X56724000Y-87343170D01*
X56616213Y-87082950D01*
X56436872Y-86903609D01*
X56626543Y-86619746D01*
X56757775Y-85960000D01*
X56626543Y-85300254D01*
X56252827Y-84740948D01*
X56250259Y-84739232D01*
X67791791Y-84739232D01*
X67975310Y-85183383D01*
X68314830Y-85523495D01*
X68758660Y-85707790D01*
X69239232Y-85708209D01*
X69683383Y-85524690D01*
X69750189Y-85458000D01*
X79353184Y-85458000D01*
X81042000Y-87146817D01*
X81042000Y-89249449D01*
X80976505Y-89314830D01*
X80792210Y-89758660D01*
X80791791Y-90239232D01*
X80975310Y-90683383D01*
X81314830Y-91023495D01*
X81758660Y-91207790D01*
X82239232Y-91208209D01*
X82683383Y-91024690D01*
X83023495Y-90685170D01*
X83207790Y-90241340D01*
X83208209Y-89760768D01*
X83024690Y-89316617D01*
X82958000Y-89249811D01*
X82958000Y-86750000D01*
X82885077Y-86383389D01*
X82721209Y-86138144D01*
X82677409Y-86072592D01*
X80427408Y-83822592D01*
X80116611Y-83614923D01*
X79750000Y-83542000D01*
X69750551Y-83542000D01*
X69685170Y-83476505D01*
X69241340Y-83292210D01*
X68760768Y-83291791D01*
X68316617Y-83475310D01*
X67976505Y-83814830D01*
X67792210Y-84258660D01*
X67791791Y-84739232D01*
X56250259Y-84739232D01*
X55693521Y-84367232D01*
X55033775Y-84236000D01*
X54966225Y-84236000D01*
X54306479Y-84367232D01*
X53747173Y-84740948D01*
X53373457Y-85300254D01*
X53242225Y-85960000D01*
X53200000Y-85960000D01*
X53200000Y-84200000D01*
X58000000Y-84200000D01*
X58077811Y-84184243D01*
X58143362Y-84139454D01*
X58186322Y-84072691D01*
X58200000Y-84000000D01*
X58200000Y-81589847D01*
X58257607Y-81451114D01*
X58258391Y-80552826D01*
X58200000Y-80411509D01*
X58200000Y-79462537D01*
X63001430Y-79462537D01*
X63001430Y-80537463D01*
X63112457Y-81095634D01*
X63428635Y-81568828D01*
X63901829Y-81885006D01*
X64460000Y-81996033D01*
X65018171Y-81885006D01*
X65491365Y-81568828D01*
X65738979Y-81198247D01*
X66006819Y-81568658D01*
X66491719Y-81867317D01*
X66718651Y-81930287D01*
X66946000Y-81779542D01*
X66946000Y-80054000D01*
X66926000Y-80054000D01*
X66926000Y-79946000D01*
X66946000Y-79946000D01*
X66946000Y-78220458D01*
X67054000Y-78220458D01*
X67054000Y-79946000D01*
X67074000Y-79946000D01*
X67074000Y-80054000D01*
X67054000Y-80054000D01*
X67054000Y-81779542D01*
X67281349Y-81930287D01*
X67508281Y-81867317D01*
X67993181Y-81568658D01*
X68261021Y-81198247D01*
X68508635Y-81568828D01*
X68981829Y-81885006D01*
X69540000Y-81996033D01*
X70098171Y-81885006D01*
X70571365Y-81568828D01*
X70887543Y-81095634D01*
X70998570Y-80537463D01*
X70998570Y-79462537D01*
X70887543Y-78904366D01*
X70571365Y-78431172D01*
X70098171Y-78114994D01*
X69540000Y-78003967D01*
X68981829Y-78114994D01*
X68508635Y-78431172D01*
X68261021Y-78801753D01*
X67993181Y-78431342D01*
X67508281Y-78132683D01*
X67281349Y-78069713D01*
X67054000Y-78220458D01*
X66946000Y-78220458D01*
X66718651Y-78069713D01*
X66491719Y-78132683D01*
X66006819Y-78431342D01*
X65738979Y-78801753D01*
X65491365Y-78431172D01*
X65018171Y-78114994D01*
X64460000Y-78003967D01*
X63901829Y-78114994D01*
X63428635Y-78431172D01*
X63112457Y-78904366D01*
X63001430Y-79462537D01*
X58200000Y-79462537D01*
X58200000Y-78000000D01*
X58184243Y-77922189D01*
X58139454Y-77856638D01*
X58072691Y-77813678D01*
X58000000Y-77800000D01*
X53200000Y-77800000D01*
X53200000Y-70437494D01*
X53202536Y-70441289D01*
X53712400Y-70781969D01*
X54313825Y-70901600D01*
X54686175Y-70901600D01*
X55287600Y-70781969D01*
X55797464Y-70441289D01*
X56138144Y-69931425D01*
X56257775Y-69330000D01*
X56138144Y-68728575D01*
X55797464Y-68218711D01*
X55559936Y-68060000D01*
X55797464Y-67901289D01*
X56138144Y-67391425D01*
X56257775Y-66790000D01*
X56138144Y-66188575D01*
X55841757Y-65745000D01*
X55855682Y-65739232D01*
X65541791Y-65739232D01*
X65725310Y-66183383D01*
X65792000Y-66250189D01*
X65792000Y-73750000D01*
X65864923Y-74116611D01*
X66072592Y-74427408D01*
X67291872Y-75646688D01*
X67291791Y-75739232D01*
X67475310Y-76183383D01*
X67814830Y-76523495D01*
X68258660Y-76707790D01*
X68739232Y-76708209D01*
X69183383Y-76524690D01*
X69523495Y-76185170D01*
X69707790Y-75741340D01*
X69708209Y-75260768D01*
X69524690Y-74816617D01*
X69185170Y-74476505D01*
X68741340Y-74292210D01*
X68646944Y-74292128D01*
X67708000Y-73353184D01*
X67708000Y-66250551D01*
X67773495Y-66185170D01*
X67957790Y-65741340D01*
X67958209Y-65260768D01*
X67774690Y-64816617D01*
X67435170Y-64476505D01*
X66991340Y-64292210D01*
X66510768Y-64291791D01*
X66066617Y-64475310D01*
X65726505Y-64814830D01*
X65542210Y-65258660D01*
X65541791Y-65739232D01*
X55855682Y-65739232D01*
X55917050Y-65713813D01*
X56116213Y-65514650D01*
X56224000Y-65254430D01*
X56224000Y-64481000D01*
X56047000Y-64304000D01*
X54554000Y-64304000D01*
X54554000Y-64324000D01*
X54446000Y-64324000D01*
X54446000Y-64304000D01*
X54426000Y-64304000D01*
X54426000Y-64196000D01*
X54446000Y-64196000D01*
X54446000Y-62855400D01*
X54554000Y-62855400D01*
X54554000Y-64196000D01*
X56047000Y-64196000D01*
X56224000Y-64019000D01*
X56224000Y-63413546D01*
X71171730Y-63413546D01*
X71408422Y-63986383D01*
X71846312Y-64425038D01*
X72418735Y-64662729D01*
X73038546Y-64663270D01*
X73611383Y-64426578D01*
X73897909Y-64140551D01*
X74310817Y-64140551D01*
X74380516Y-64421139D01*
X74951888Y-64661345D01*
X75571691Y-64664611D01*
X76145564Y-64430441D01*
X76159484Y-64421139D01*
X76229183Y-64140551D01*
X75270000Y-63181368D01*
X74310817Y-64140551D01*
X73897909Y-64140551D01*
X74026225Y-64012459D01*
X74234449Y-64064183D01*
X75193632Y-63105000D01*
X75346368Y-63105000D01*
X76305551Y-64064183D01*
X76586139Y-63994484D01*
X76826345Y-63423112D01*
X76829611Y-62803309D01*
X76595441Y-62229436D01*
X76586139Y-62215516D01*
X76305551Y-62145817D01*
X75346368Y-63105000D01*
X75193632Y-63105000D01*
X74234449Y-62145817D01*
X74025682Y-62197675D01*
X73613688Y-61784962D01*
X73493821Y-61735189D01*
X72730000Y-60971368D01*
X71966763Y-61734605D01*
X71848617Y-61783422D01*
X71409962Y-62221312D01*
X71172271Y-62793735D01*
X71171730Y-63413546D01*
X56224000Y-63413546D01*
X56224000Y-63245570D01*
X56116213Y-62985350D01*
X55917050Y-62786187D01*
X55656830Y-62678400D01*
X54731000Y-62678400D01*
X54554000Y-62855400D01*
X54446000Y-62855400D01*
X54269000Y-62678400D01*
X53343170Y-62678400D01*
X53200000Y-62737703D01*
X53200000Y-61196691D01*
X71170389Y-61196691D01*
X71404559Y-61770564D01*
X71413861Y-61784484D01*
X71694449Y-61854183D01*
X72653632Y-60895000D01*
X72806368Y-60895000D01*
X73765551Y-61854183D01*
X73974318Y-61802325D01*
X74386312Y-62215038D01*
X74506179Y-62264811D01*
X75270000Y-63028632D01*
X76033237Y-62265395D01*
X76151383Y-62216578D01*
X76590038Y-61778688D01*
X76827729Y-61206265D01*
X76828270Y-60586454D01*
X76591578Y-60013617D01*
X76153688Y-59574962D01*
X75581265Y-59337271D01*
X74961454Y-59336730D01*
X74388617Y-59573422D01*
X73973775Y-59987541D01*
X73765551Y-59935817D01*
X72806368Y-60895000D01*
X72653632Y-60895000D01*
X71694449Y-59935817D01*
X71413861Y-60005516D01*
X71173655Y-60576888D01*
X71170389Y-61196691D01*
X53200000Y-61196691D01*
X53200000Y-59859449D01*
X71770817Y-59859449D01*
X72730000Y-60818632D01*
X73689183Y-59859449D01*
X73619484Y-59578861D01*
X73048112Y-59338655D01*
X72428309Y-59335389D01*
X71854436Y-59569559D01*
X71840516Y-59578861D01*
X71770817Y-59859449D01*
X53200000Y-59859449D01*
X53200000Y-57200000D01*
X89316568Y-57200000D01*
X89292210Y-57258660D01*
G36*
X166800000Y-77800000D02*
X162000000Y-77800000D01*
X161922189Y-77815757D01*
X161856638Y-77860546D01*
X161813678Y-77927309D01*
X161800000Y-78000000D01*
X161800000Y-80410153D01*
X161742393Y-80548886D01*
X161741609Y-81447174D01*
X161800000Y-81588491D01*
X161800000Y-84000000D01*
X161815757Y-84077811D01*
X161860546Y-84143362D01*
X161927309Y-84186322D01*
X162000000Y-84200000D01*
X166800000Y-84200000D01*
X166800000Y-99440445D01*
X166699746Y-99373457D01*
X166040000Y-99242225D01*
X165380254Y-99373457D01*
X165089480Y-99567746D01*
X165033442Y-99480661D01*
X164796848Y-99319003D01*
X164516000Y-99262130D01*
X162484000Y-99262130D01*
X162221631Y-99311498D01*
X161980661Y-99466558D01*
X161819003Y-99703152D01*
X161762130Y-99984000D01*
X161762130Y-101800000D01*
X137061621Y-101800000D01*
X137132768Y-101693521D01*
X137264000Y-101033775D01*
X137264000Y-100966225D01*
X137132768Y-100306479D01*
X136759052Y-99747173D01*
X136199746Y-99373457D01*
X135540000Y-99242225D01*
X134880254Y-99373457D01*
X134589480Y-99567746D01*
X134533442Y-99480661D01*
X134296848Y-99319003D01*
X134016000Y-99262130D01*
X131984000Y-99262130D01*
X131721631Y-99311498D01*
X131480661Y-99466558D01*
X131319003Y-99703152D01*
X131262130Y-99984000D01*
X131262130Y-101800000D01*
X126200000Y-101800000D01*
X126200000Y-95708175D01*
X126239232Y-95708209D01*
X126481757Y-95608000D01*
X152500000Y-95608000D01*
X152924014Y-95523659D01*
X153283474Y-95283474D01*
X155942889Y-92624060D01*
X156183383Y-92524690D01*
X156523495Y-92185170D01*
X156707790Y-91741340D01*
X156708209Y-91260768D01*
X156524690Y-90816617D01*
X156185170Y-90476505D01*
X155741340Y-90292210D01*
X155260768Y-90291791D01*
X154816617Y-90475310D01*
X154476505Y-90814830D01*
X154375873Y-91057178D01*
X152041052Y-93392000D01*
X126481660Y-93392000D01*
X126241340Y-93292210D01*
X125760768Y-93291791D01*
X125518243Y-93392000D01*
X95200000Y-93392000D01*
X95200000Y-90700000D01*
X120750000Y-90700000D01*
X120827811Y-90684243D01*
X120893362Y-90639454D01*
X120936322Y-90572691D01*
X120950000Y-90500000D01*
X120950000Y-86700000D01*
X141765894Y-86700000D01*
X141623894Y-86842000D01*
X135500000Y-86842000D01*
X135152524Y-86911116D01*
X134857947Y-87107947D01*
X133173961Y-88791933D01*
X133010768Y-88791791D01*
X132566617Y-88975310D01*
X132226505Y-89314830D01*
X132042210Y-89758660D01*
X132041791Y-90239232D01*
X132225310Y-90683383D01*
X132564830Y-91023495D01*
X133008660Y-91207790D01*
X133489232Y-91208209D01*
X133933383Y-91024690D01*
X134273495Y-90685170D01*
X134457790Y-90241340D01*
X134457934Y-90076172D01*
X135876106Y-88658000D01*
X142000000Y-88658000D01*
X142347477Y-88588883D01*
X142642053Y-88392053D01*
X147642053Y-83392053D01*
X147731887Y-83257607D01*
X147838883Y-83097477D01*
X147908000Y-82750000D01*
X147908000Y-82020480D01*
X147975310Y-82183383D01*
X148092000Y-82300276D01*
X148092000Y-83623894D01*
X142623894Y-89092000D01*
X139800464Y-89092000D01*
X139685170Y-88976505D01*
X139241340Y-88792210D01*
X138760768Y-88791791D01*
X138316617Y-88975310D01*
X137976505Y-89314830D01*
X137792210Y-89758660D01*
X137791791Y-90239232D01*
X137975310Y-90683383D01*
X138314830Y-91023495D01*
X138758660Y-91207790D01*
X139239232Y-91208209D01*
X139683383Y-91024690D01*
X139800276Y-90908000D01*
X143000000Y-90908000D01*
X143347477Y-90838883D01*
X143642053Y-90642053D01*
X149642053Y-84642053D01*
X149838883Y-84347477D01*
X149908000Y-84000000D01*
X149908000Y-82300464D01*
X150023495Y-82185170D01*
X150207790Y-81741340D01*
X150208209Y-81260768D01*
X150024690Y-80816617D01*
X149685170Y-80476505D01*
X149241340Y-80292210D01*
X148760768Y-80291791D01*
X148316617Y-80475310D01*
X147976505Y-80814830D01*
X147908000Y-80979808D01*
X147908000Y-79800464D01*
X148023495Y-79685170D01*
X148207790Y-79241340D01*
X148208209Y-78760768D01*
X148024690Y-78316617D01*
X147685170Y-77976505D01*
X147241340Y-77792210D01*
X146760768Y-77791791D01*
X146316617Y-77975310D01*
X145976505Y-78314830D01*
X145792210Y-78758660D01*
X145791791Y-79239232D01*
X145975310Y-79683383D01*
X146092000Y-79800276D01*
X146092000Y-82373894D01*
X142700000Y-85765894D01*
X142700000Y-76489232D01*
X147291791Y-76489232D01*
X147475310Y-76933383D01*
X147814830Y-77273495D01*
X148258660Y-77457790D01*
X148423828Y-77457934D01*
X160291933Y-89326039D01*
X160291791Y-89489232D01*
X160475310Y-89933383D01*
X160814830Y-90273495D01*
X161258660Y-90457790D01*
X161739232Y-90458209D01*
X162183383Y-90274690D01*
X162523495Y-89935170D01*
X162707790Y-89491340D01*
X162708209Y-89010768D01*
X162524690Y-88566617D01*
X162185170Y-88226505D01*
X161741340Y-88042210D01*
X161576172Y-88042066D01*
X149708067Y-76173961D01*
X149708209Y-76010768D01*
X149524690Y-75566617D01*
X149185170Y-75226505D01*
X148741340Y-75042210D01*
X148260768Y-75041791D01*
X147816617Y-75225310D01*
X147476505Y-75564830D01*
X147292210Y-76008660D01*
X147291791Y-76489232D01*
X142700000Y-76489232D01*
X142700000Y-71450000D01*
X166800000Y-71450000D01*
X166800000Y-77800000D01*
X166800000Y-77800000D01*
G37*
X166800000Y-77800000D02*
X162000000Y-77800000D01*
X161922189Y-77815757D01*
X161856638Y-77860546D01*
X161813678Y-77927309D01*
X161800000Y-78000000D01*
X161800000Y-80410153D01*
X161742393Y-80548886D01*
X161741609Y-81447174D01*
X161800000Y-81588491D01*
X161800000Y-84000000D01*
X161815757Y-84077811D01*
X161860546Y-84143362D01*
X161927309Y-84186322D01*
X162000000Y-84200000D01*
X166800000Y-84200000D01*
X166800000Y-99440445D01*
X166699746Y-99373457D01*
X166040000Y-99242225D01*
X165380254Y-99373457D01*
X165089480Y-99567746D01*
X165033442Y-99480661D01*
X164796848Y-99319003D01*
X164516000Y-99262130D01*
X162484000Y-99262130D01*
X162221631Y-99311498D01*
X161980661Y-99466558D01*
X161819003Y-99703152D01*
X161762130Y-99984000D01*
X161762130Y-101800000D01*
X137061621Y-101800000D01*
X137132768Y-101693521D01*
X137264000Y-101033775D01*
X137264000Y-100966225D01*
X137132768Y-100306479D01*
X136759052Y-99747173D01*
X136199746Y-99373457D01*
X135540000Y-99242225D01*
X134880254Y-99373457D01*
X134589480Y-99567746D01*
X134533442Y-99480661D01*
X134296848Y-99319003D01*
X134016000Y-99262130D01*
X131984000Y-99262130D01*
X131721631Y-99311498D01*
X131480661Y-99466558D01*
X131319003Y-99703152D01*
X131262130Y-99984000D01*
X131262130Y-101800000D01*
X126200000Y-101800000D01*
X126200000Y-95708175D01*
X126239232Y-95708209D01*
X126481757Y-95608000D01*
X152500000Y-95608000D01*
X152924014Y-95523659D01*
X153283474Y-95283474D01*
X155942889Y-92624060D01*
X156183383Y-92524690D01*
X156523495Y-92185170D01*
X156707790Y-91741340D01*
X156708209Y-91260768D01*
X156524690Y-90816617D01*
X156185170Y-90476505D01*
X155741340Y-90292210D01*
X155260768Y-90291791D01*
X154816617Y-90475310D01*
X154476505Y-90814830D01*
X154375873Y-91057178D01*
X152041052Y-93392000D01*
X126481660Y-93392000D01*
X126241340Y-93292210D01*
X125760768Y-93291791D01*
X125518243Y-93392000D01*
X95200000Y-93392000D01*
X95200000Y-90700000D01*
X120750000Y-90700000D01*
X120827811Y-90684243D01*
X120893362Y-90639454D01*
X120936322Y-90572691D01*
X120950000Y-90500000D01*
X120950000Y-86700000D01*
X141765894Y-86700000D01*
X141623894Y-86842000D01*
X135500000Y-86842000D01*
X135152524Y-86911116D01*
X134857947Y-87107947D01*
X133173961Y-88791933D01*
X133010768Y-88791791D01*
X132566617Y-88975310D01*
X132226505Y-89314830D01*
X132042210Y-89758660D01*
X132041791Y-90239232D01*
X132225310Y-90683383D01*
X132564830Y-91023495D01*
X133008660Y-91207790D01*
X133489232Y-91208209D01*
X133933383Y-91024690D01*
X134273495Y-90685170D01*
X134457790Y-90241340D01*
X134457934Y-90076172D01*
X135876106Y-88658000D01*
X142000000Y-88658000D01*
X142347477Y-88588883D01*
X142642053Y-88392053D01*
X147642053Y-83392053D01*
X147731887Y-83257607D01*
X147838883Y-83097477D01*
X147908000Y-82750000D01*
X147908000Y-82020480D01*
X147975310Y-82183383D01*
X148092000Y-82300276D01*
X148092000Y-83623894D01*
X142623894Y-89092000D01*
X139800464Y-89092000D01*
X139685170Y-88976505D01*
X139241340Y-88792210D01*
X138760768Y-88791791D01*
X138316617Y-88975310D01*
X137976505Y-89314830D01*
X137792210Y-89758660D01*
X137791791Y-90239232D01*
X137975310Y-90683383D01*
X138314830Y-91023495D01*
X138758660Y-91207790D01*
X139239232Y-91208209D01*
X139683383Y-91024690D01*
X139800276Y-90908000D01*
X143000000Y-90908000D01*
X143347477Y-90838883D01*
X143642053Y-90642053D01*
X149642053Y-84642053D01*
X149838883Y-84347477D01*
X149908000Y-84000000D01*
X149908000Y-82300464D01*
X150023495Y-82185170D01*
X150207790Y-81741340D01*
X150208209Y-81260768D01*
X150024690Y-80816617D01*
X149685170Y-80476505D01*
X149241340Y-80292210D01*
X148760768Y-80291791D01*
X148316617Y-80475310D01*
X147976505Y-80814830D01*
X147908000Y-80979808D01*
X147908000Y-79800464D01*
X148023495Y-79685170D01*
X148207790Y-79241340D01*
X148208209Y-78760768D01*
X148024690Y-78316617D01*
X147685170Y-77976505D01*
X147241340Y-77792210D01*
X146760768Y-77791791D01*
X146316617Y-77975310D01*
X145976505Y-78314830D01*
X145792210Y-78758660D01*
X145791791Y-79239232D01*
X145975310Y-79683383D01*
X146092000Y-79800276D01*
X146092000Y-82373894D01*
X142700000Y-85765894D01*
X142700000Y-76489232D01*
X147291791Y-76489232D01*
X147475310Y-76933383D01*
X147814830Y-77273495D01*
X148258660Y-77457790D01*
X148423828Y-77457934D01*
X160291933Y-89326039D01*
X160291791Y-89489232D01*
X160475310Y-89933383D01*
X160814830Y-90273495D01*
X161258660Y-90457790D01*
X161739232Y-90458209D01*
X162183383Y-90274690D01*
X162523495Y-89935170D01*
X162707790Y-89491340D01*
X162708209Y-89010768D01*
X162524690Y-88566617D01*
X162185170Y-88226505D01*
X161741340Y-88042210D01*
X161576172Y-88042066D01*
X149708067Y-76173961D01*
X149708209Y-76010768D01*
X149524690Y-75566617D01*
X149185170Y-75226505D01*
X148741340Y-75042210D01*
X148260768Y-75041791D01*
X147816617Y-75225310D01*
X147476505Y-75564830D01*
X147292210Y-76008660D01*
X147291791Y-76489232D01*
X142700000Y-76489232D01*
X142700000Y-71450000D01*
X166800000Y-71450000D01*
X166800000Y-77800000D01*
M02*
