G04 #@! TF.FileFunction,Soldermask,Top*
%FSLAX46Y46*%
G04 Gerber Fmt 4.6, Leading zero omitted, Abs format (unit mm)*
G04 Created by KiCad (PCBNEW 4.0.2+dfsg1-stable) date Die 18 Okt 2016 18:09:58 CEST*
%MOMM*%
G01*
G04 APERTURE LIST*
%ADD10C,0.100000*%
%ADD11R,1.150000X1.600000*%
%ADD12R,2.432000X1.924000*%
%ADD13R,1.600000X1.150000*%
%ADD14R,1.600000X1.300000*%
%ADD15R,1.300000X1.600000*%
%ADD16R,2.432000X2.432000*%
%ADD17O,2.432000X2.432000*%
%ADD18R,2.127200X2.432000*%
%ADD19O,2.127200X2.432000*%
%ADD20R,2.432000X2.127200*%
%ADD21O,2.432000X2.127200*%
%ADD22R,2.127200X2.127200*%
%ADD23O,2.127200X2.127200*%
%ADD24R,2.800300X1.700480*%
%ADD25R,2.599640X3.999180*%
%ADD26O,1.901140X2.899360*%
%ADD27R,0.950000X1.900000*%
%ADD28R,1.900000X0.950000*%
%ADD29R,1.898600X0.999440*%
%ADD30R,1.460000X1.050000*%
%ADD31R,1.950000X1.000000*%
%ADD32R,2.400000X2.900000*%
%ADD33C,3.500000*%
%ADD34C,2.100000*%
G04 APERTURE END LIST*
D10*
D11*
X70250000Y-93200000D03*
X70250000Y-91300000D03*
X73000000Y-93200000D03*
X73000000Y-91300000D03*
X67250000Y-93200000D03*
X67250000Y-91300000D03*
D12*
X78750000Y-80349000D03*
X78750000Y-83651000D03*
X78750000Y-72651000D03*
X78750000Y-69349000D03*
X78750000Y-94849000D03*
X78750000Y-98151000D03*
X78750000Y-89901000D03*
X78750000Y-86599000D03*
D11*
X118500000Y-82800000D03*
X118500000Y-84700000D03*
D13*
X113050000Y-61000000D03*
X114950000Y-61000000D03*
D11*
X128500000Y-72050000D03*
X128500000Y-73950000D03*
X101250000Y-74700000D03*
X101250000Y-72800000D03*
D13*
X125950000Y-92500000D03*
X124050000Y-92500000D03*
D11*
X128250000Y-89450000D03*
X128250000Y-87550000D03*
X153750000Y-89200000D03*
X153750000Y-87300000D03*
X153750000Y-93050000D03*
X153750000Y-94950000D03*
D14*
X61650000Y-94750000D03*
X63850000Y-94750000D03*
D15*
X133500000Y-59400000D03*
X133500000Y-61600000D03*
X131000000Y-59400000D03*
X131000000Y-61600000D03*
D16*
X54700000Y-100300000D03*
D17*
X57240000Y-100300000D03*
D18*
X107750000Y-58500000D03*
D19*
X110290000Y-58500000D03*
X112830000Y-58500000D03*
D20*
X54500000Y-64250000D03*
D21*
X54500000Y-66790000D03*
X54500000Y-69330000D03*
D16*
X133000000Y-101000000D03*
D17*
X135540000Y-101000000D03*
D16*
X163500000Y-101000000D03*
D17*
X166040000Y-101000000D03*
D22*
X163000000Y-59500000D03*
D23*
X165540000Y-59500000D03*
X163000000Y-62040000D03*
X165540000Y-62040000D03*
X163000000Y-64580000D03*
X165540000Y-64580000D03*
D16*
X55000000Y-88500000D03*
D17*
X55000000Y-85960000D03*
D14*
X59100000Y-94750000D03*
X56900000Y-94750000D03*
X64400000Y-84500000D03*
X66600000Y-84500000D03*
X56900000Y-97250000D03*
X59100000Y-97250000D03*
X81850000Y-61000000D03*
X79650000Y-61000000D03*
X66650000Y-63000000D03*
X68850000Y-63000000D03*
D15*
X150000000Y-58400000D03*
X150000000Y-60600000D03*
D14*
X139400000Y-63000000D03*
X141600000Y-63000000D03*
D15*
X136000000Y-59400000D03*
X136000000Y-61600000D03*
X128500000Y-59400000D03*
X128500000Y-61600000D03*
D14*
X157150000Y-64750000D03*
X159350000Y-64750000D03*
X132900000Y-81500000D03*
X135100000Y-81500000D03*
X153350000Y-81500000D03*
X151150000Y-81500000D03*
X132900000Y-79000000D03*
X135100000Y-79000000D03*
X153350000Y-79000000D03*
X151150000Y-79000000D03*
X132900000Y-76500000D03*
X135100000Y-76500000D03*
X153350000Y-76250000D03*
X151150000Y-76250000D03*
X132900000Y-73750000D03*
X135100000Y-73750000D03*
X153350000Y-73750000D03*
X151150000Y-73750000D03*
X90900000Y-64000000D03*
X93100000Y-64000000D03*
X93100000Y-60750000D03*
X90900000Y-60750000D03*
D24*
X84651200Y-73198760D03*
X84651200Y-75500000D03*
X84651200Y-77801240D03*
D25*
X90848800Y-75500000D03*
D24*
X84651200Y-87698760D03*
X84651200Y-90000000D03*
X84651200Y-92301240D03*
D25*
X90848800Y-90000000D03*
D26*
X67000000Y-80000000D03*
X69540000Y-80000000D03*
X64460000Y-80000000D03*
D27*
X120000000Y-67300000D03*
X119200000Y-67300000D03*
X118400000Y-67300000D03*
X117600000Y-67300000D03*
X116800000Y-67300000D03*
X116000000Y-67300000D03*
X115200000Y-67300000D03*
X114400000Y-67300000D03*
X113600000Y-67300000D03*
X112800000Y-67300000D03*
X112000000Y-67300000D03*
D28*
X110300000Y-69000000D03*
X110300000Y-69800000D03*
X110300000Y-70600000D03*
X110300000Y-71400000D03*
X110300000Y-72200000D03*
X110300000Y-73000000D03*
X110300000Y-73800000D03*
X110300000Y-74600000D03*
X110300000Y-75400000D03*
X110300000Y-76200000D03*
X110300000Y-77000000D03*
D27*
X112000000Y-78700000D03*
X112800000Y-78700000D03*
X113600000Y-78700000D03*
X114400000Y-78700000D03*
X115200000Y-78700000D03*
X116000000Y-78700000D03*
X116800000Y-78700000D03*
X117600000Y-78700000D03*
X118400000Y-78700000D03*
X119200000Y-78700000D03*
X120000000Y-78700000D03*
D28*
X121700000Y-77000000D03*
X121700000Y-76200000D03*
X121700000Y-75400000D03*
X121700000Y-74600000D03*
X121700000Y-73800000D03*
X121700000Y-73000000D03*
X121700000Y-72200000D03*
X121700000Y-71400000D03*
X121700000Y-70600000D03*
X121700000Y-69800000D03*
X121700000Y-69000000D03*
D29*
X139802520Y-73807540D03*
X139802520Y-75077540D03*
X139802520Y-76347540D03*
X139802520Y-77617540D03*
X139802520Y-78882460D03*
X139802520Y-80152460D03*
X139802520Y-81422460D03*
X139802520Y-82692460D03*
X145197480Y-82692460D03*
X145197480Y-81422460D03*
X145197480Y-80152460D03*
X145197480Y-78882460D03*
X145197480Y-77617540D03*
X145197480Y-76347540D03*
X145197480Y-75077540D03*
X145197480Y-73807540D03*
D30*
X97500000Y-62150000D03*
X97500000Y-63100000D03*
X97500000Y-64050000D03*
X99700000Y-64050000D03*
X99700000Y-62150000D03*
D31*
X136700000Y-93905000D03*
X136700000Y-92635000D03*
X136700000Y-91365000D03*
X136700000Y-90095000D03*
X131300000Y-90095000D03*
X131300000Y-91365000D03*
X131300000Y-92635000D03*
X131300000Y-93905000D03*
X163700000Y-93905000D03*
X163700000Y-92635000D03*
X163700000Y-91365000D03*
X163700000Y-90095000D03*
X158300000Y-90095000D03*
X158300000Y-91365000D03*
X158300000Y-92635000D03*
X158300000Y-93905000D03*
D32*
X61800000Y-100250000D03*
X65200000Y-100250000D03*
D33*
X164000000Y-81000000D03*
X56000000Y-81000000D03*
X56000000Y-53000000D03*
X74000000Y-53000000D03*
X92000000Y-53000000D03*
X110000000Y-53000000D03*
X128000000Y-53000000D03*
X146000000Y-53000000D03*
X164000000Y-53000000D03*
D34*
X72730000Y-63105000D03*
X72730000Y-60895000D03*
X75270000Y-63105000D03*
X75270000Y-60895000D03*
X144730000Y-63105000D03*
X144730000Y-60895000D03*
X147270000Y-63105000D03*
X147270000Y-60895000D03*
D33*
X96400000Y-100000000D03*
X123600000Y-100000000D03*
D18*
X106500000Y-84500000D03*
D19*
X103960000Y-84500000D03*
X101420000Y-84500000D03*
X98880000Y-84500000D03*
X96340000Y-84500000D03*
X93800000Y-84500000D03*
M02*
