G04 #@! TF.FileFunction,Soldermask,Bot*
%FSLAX46Y46*%
G04 Gerber Fmt 4.6, Leading zero omitted, Abs format (unit mm)*
G04 Created by KiCad (PCBNEW 4.0.2+dfsg1-stable) date Die 18 Okt 2016 18:09:58 CEST*
%MOMM*%
G01*
G04 APERTURE LIST*
%ADD10C,0.100000*%
%ADD11R,2.432000X2.432000*%
%ADD12O,2.432000X2.432000*%
%ADD13R,2.127200X2.432000*%
%ADD14O,2.127200X2.432000*%
%ADD15R,2.432000X2.127200*%
%ADD16O,2.432000X2.127200*%
%ADD17R,2.127200X2.127200*%
%ADD18O,2.127200X2.127200*%
%ADD19O,1.901140X2.899360*%
%ADD20C,3.500000*%
%ADD21C,2.100000*%
G04 APERTURE END LIST*
D10*
D11*
X54700000Y-100300000D03*
D12*
X57240000Y-100300000D03*
D13*
X107750000Y-58500000D03*
D14*
X110290000Y-58500000D03*
X112830000Y-58500000D03*
D15*
X54500000Y-64250000D03*
D16*
X54500000Y-66790000D03*
X54500000Y-69330000D03*
D11*
X133000000Y-101000000D03*
D12*
X135540000Y-101000000D03*
D11*
X163500000Y-101000000D03*
D12*
X166040000Y-101000000D03*
D17*
X163000000Y-59500000D03*
D18*
X165540000Y-59500000D03*
X163000000Y-62040000D03*
X165540000Y-62040000D03*
X163000000Y-64580000D03*
X165540000Y-64580000D03*
D11*
X55000000Y-88500000D03*
D12*
X55000000Y-85960000D03*
D19*
X67000000Y-80000000D03*
X69540000Y-80000000D03*
X64460000Y-80000000D03*
D20*
X164000000Y-81000000D03*
X56000000Y-81000000D03*
X56000000Y-53000000D03*
X74000000Y-53000000D03*
X92000000Y-53000000D03*
X110000000Y-53000000D03*
X128000000Y-53000000D03*
X146000000Y-53000000D03*
X164000000Y-53000000D03*
D21*
X72730000Y-63105000D03*
X72730000Y-60895000D03*
X75270000Y-63105000D03*
X75270000Y-60895000D03*
X144730000Y-63105000D03*
X144730000Y-60895000D03*
X147270000Y-63105000D03*
X147270000Y-60895000D03*
D20*
X96400000Y-100000000D03*
X123600000Y-100000000D03*
D13*
X106500000Y-84500000D03*
D14*
X103960000Y-84500000D03*
X101420000Y-84500000D03*
X98880000Y-84500000D03*
X96340000Y-84500000D03*
X93800000Y-84500000D03*
M02*
