M48
;DRILL file {KiCad 4.0.2+dfsg1-stable} date Die 18 Okt 2016 18:09:10 CEST
;FORMAT={-:-/ absolute / inch / decimal}
FMAT,2
INCH,TZ
T1C0.024
T2C0.031
T3C0.039
T4C0.040
T5C0.122
%
G90
G05
M72
T1
X2.5492Y-2.7854
X2.628Y-2.5787
X2.6673Y-3.8878
X2.6969Y-2.9724
X2.7165Y-3.3268
X2.7264Y-3.9469
X2.7854Y-3.4744
X3.0118Y-3.4055
X3.2283Y-3.5433
X3.4252Y-3.061
X3.4252Y-3.5433
X3.5039Y-2.3917
X3.5039Y-2.5197
X3.5039Y-2.8445
X3.563Y-2.2638
X3.6614Y-2.7953
X3.9961Y-2.4409
X4.0551Y-2.6673
X4.1339Y-2.4016
X4.2126Y-2.9921
X4.3012Y-2.4606
X4.311Y-3.2776
X4.4193Y-2.8445
X4.5177Y-2.8445
X4.5374Y-2.9823
X4.5768Y-2.313
X4.5768Y-2.7756
X4.6063Y-3.0217
X4.6555Y-2.7362
X4.6654Y-3.3957
X4.6949Y-2.9331
X4.7835Y-3.6614
X4.8819Y-2.5886
X4.9213Y-2.9823
X4.9606Y-3.7205
X4.9705Y-3.0315
X5.Y-2.4311
X5.Y-2.7067
X5.2461Y-3.5433
X5.2559Y-3.6614
X5.3937Y-2.5197
X5.3937Y-2.628
X5.4724Y-3.5433
X5.5807Y-3.6614
X5.6693Y-2.7461
X5.7874Y-3.1102
X5.8465Y-3.002
X5.8661Y-3.2087
X6.0531Y-3.3661
X6.122Y-3.6024
X6.3583Y-3.5138
T2
X2.8634Y-2.3974
X2.8634Y-2.4844
X2.9634Y-2.3974
X2.9634Y-2.4844
X5.698Y-2.3974
X5.698Y-2.4844
X5.798Y-2.3974
X5.798Y-2.4844
T3
X2.5378Y-3.1496
X2.6378Y-3.1496
X2.7378Y-3.1496
T4
X2.1457Y-2.5295
X2.1457Y-2.6295
X2.1457Y-2.7295
X2.1535Y-3.9488
X2.1654Y-3.3843
X2.1654Y-3.4843
X2.2535Y-3.9488
X3.6929Y-3.3268
X3.7929Y-3.3268
X3.8929Y-3.3268
X3.9929Y-3.3268
X4.0929Y-3.3268
X4.1929Y-3.3268
X4.2421Y-2.3031
X4.3421Y-2.3031
X4.4421Y-2.3031
X5.2362Y-3.9764
X5.3362Y-3.9764
X6.4173Y-2.3425
X6.4173Y-2.4425
X6.4173Y-2.5425
X6.437Y-3.9764
X6.5173Y-2.3425
X6.5173Y-2.4425
X6.5173Y-2.5425
X6.537Y-3.9764
T5
X2.2047Y-2.0866
X2.2047Y-3.189
X2.9134Y-2.0866
X3.622Y-2.0866
X3.7953Y-3.937
X4.3307Y-2.0866
X4.8661Y-3.937
X5.0394Y-2.0866
X5.748Y-2.0866
X6.4567Y-2.0866
X6.4567Y-3.189
T0
M30
